P3
#ftghrt
64 64
255
90
206
109
91
206
109
94
206
109
95
206
109
95
206
109
98
206
109
99
206
109
100
206
109
102
206
109
103
206
109
105
206
109
105
205
110
107
206
109
108
206
109
110
206
109
111
206
109
112
205
109
114
205
109
116
204
109
116
205
109
119
205
109
121
205
109
121
205
109
122
205
109
125
205
109
126
205
109
127
204
109
128
204
109
129
204
109
131
204
109
133
204
109
134
205
109
136
205
109
137
205
109
138
205
109
139
204
109
141
204
109
142
204
109
143
203
109
145
204
109
146
204
109
148
204
109
150
204
109
151
204
109
151
203
109
153
203
109
155
203
109
156
202
109
157
202
109
159
203
109
160
204
109
162
203
109
163
203
109
165
202
109
166
203
109
167
203
110
169
203
109
171
203
109
171
203
109
172
202
109
174
202
109
176
202
109
176
202
109
179
202
109
90
205
110
92
205
110
94
204
111
95
204
110
96
203
110
97
204
110
99
204
110
100
204
110
102
204
110
104
204
110
105
203
110
106
204
110
107
204
111
109
204
110
110
204
110
112
204
110
113
204
110
114
203
110
116
203
110
117
202
111
118
202
110
121
202
111
121
202
110
123
202
110
124
202
110
126
202
111
127
202
110
129
203
110
131
203
110
131
203
110
133
203
110
134
202
110
135
202
110
137
202
110
138
202
111
140
203
111
141
202
110
143
202
110
144
203
110
146
202
111
147
202
110
147
202
111
150
202
111
151
202
110
151
202
110
154
202
110
156
202
111
156
202
110
157
202
110
159
202
110
161
202
110
161
202
110
164
202
110
165
202
111
166
202
110
167
201
110
169
201
110
171
201
110
171
201
111
173
201
111
175
201
110
176
201
110
177
201
111
179
201
110
91
202
113
92
202
112
94
203
112
95
202
112
96
202
112
98
202
112
99
202
113
101
202
112
102
202
112
104
202
112
105
202
112
107
202
112
107
202
112
109
202
112
110
202
113
111
202
112
113
202
111
115
202
112
116
202
113
118
202
112
119
202
112
120
202
112
122
201
113
123
201
113
124
201
112
126
201
112
128
201
112
129
201
112
131
201
112
131
202
112
132
201
113
135
201
112
136
201
112
136
201
113
139
201
112
141
201
112
141
201
113
142
201
111
145
201
111
146
200
111
147
201
112
149
201
112
150
201
112
151
201
112
153
201
112
154
201
113
156
201
112
157
201
113
158
199
113
159
201
113
161
201
112
162
201
113
164
201
112
166
200
113
166
200
112
168
200
111
170
199
112
171
199
111
172
199
112
174
199
112
175
199
112
176
200
112
178
199
112
179
200
112
91
201
114
92
201
114
95
201
114
95
202
114
96
201
114
99
201
115
100
201
114
100
201
114
103
201
114
103
201
115
105
201
114
106
200
114
108
201
114
110
201
114
111
201
115
112
201
114
113
201
113
115
200
113
116
201
114
117
201
114
120
200
113
121
199
113
122
200
114
124
199
114
125
199
115
126
199
114
127
199
114
129
200
114
130
199
115
131
200
115
133
199
114
135
199
114
136
199
115
137
199
114
139
199
114
141
199
114
142
199
113
143
200
114
144
199
114
146
199
114
147
199
113
149
198
114
151
199
114
151
199
113
153
199
113
154
199
114
156
199
114
157
198
114
158
198
114
160
199
114
161
199
114
163
199
114
164
198
115
166
199
114
167
198
113
168
198
114
169
197
114
171
197
114
172
197
114
174
197
114
174
197
114
176
197
114
177
198
114
179
197
113
91
199
116
92
199
116
95
199
116
96
199
115
97
200
116
98
199
116
100
198
116
101
198
116
102
199
116
105
199
116
105
199
116
107
199
116
109
198
116
109
199
116
111
199
116
112
199
115
114
199
116
116
199
116
116
199
115
118
199
115
119
198
116
121
198
116
122
198
116
123
197
115
125
197
116
126
197
116
128
197
115
130
197
115
131
198
116
131
197
116
134
197
115
136
197
115
136
197
116
138
197
116
139
197
116
141
197
116
142
197
116
143
197
116
144
198
116
146
198
116
148
197
116
149
197
115
151
197
116
152
197
115
152
197
116
154
197
116
156
197
116
156
197
116
159
197
115
160
197
116
161
197
115
162
197
116
164
197
116
166
197
116
166
197
116
168
197
115
169
197
116
171
197
116
172
196
116
173
196
116
175
196
116
176
196
116
178
196
116
179
196
116
91
197
117
94
197
117
94
197
116
95
197
117
97
197
117
99
197
117
100
197
116
102
197
117
103
197
116
104
197
117
106
197
117
107
197
117
109
197
117
110
197
116
111
197
117
112
197
117
114
197
117
116
197
117
116
197
117
118
197
117
120
197
116
121
196
117
123
197
117
124
196
117
126
196
116
127
196
116
128
196
117
130
196
117
131
196
116
133
196
117
133
196
117
136
196
116
136
196
117
137
196
117
140
196
117
141
196
117
142
196
117
144
196
116
145
196
117
146
196
117
148
196
117
149
196
117
151
196
117
151
196
117
154
196
117
155
196
117
156
196
117
157
196
116
159
196
117
160
196
117
161
196
117
163
196
116
164
196
116
166
196
117
166
196
117
168
196
117
170
195
117
171
195
117
172
194
117
173
195
117
176
194
117
176
194
117
177
194
117
180
195
117
92
196
119
93
196
119
95
196
119
95
196
119
97
196
119
100
196
119
100
197
119
102
196
119
104
195
118
105
195
119
106
196
119
108
195
118
108
196
119
110
196
119
111
196
119
112
195
118
114
196
119
116
196
119
117
196
119
118
196
119
120
195
118
121
196
119
122
195
119
125
195
119
125
194
119
127
194
118
129
194
119
130
194
119
131
194
119
132
194
119
134
194
119
135
194
119
137
194
118
138
194
119
139
194
119
141
194
118
142
194
119
144
194
119
146
194
119
146
194
118
147
195
119
149
194
119
151
195
118
152
194
119
152
193
119
155
194
119
156
194
119
157
194
119
159
194
119
160
194
119
161
193
119
162
194
119
165
194
119
166
194
118
167
194
118
169
193
118
170
193
118
171
194
119
173
193
118
175
192
119
175
192
119
176
192
119
178
192
118
179
192
119
92
195
120
93
195
121
95
194
121
96
194
120
97
194
121
99
194
121
100
194
121
102
195
121
103
194
121
105
194
121
106
193
121
107
194
121
109
194
121
110
194
121
112
194
121
113
193
120
114
194
119
116
193
120
117
194
121
119
194
121
120
194
120
121
194
121
123
194
121
124
193
120
126
193
120
126
192
121
129
193
121
130
192
121
131
192
121
132
192
121
134
192
121
136
193
121
136
192
121
139
192
121
140
192
120
141
192
120
142
192
121
143
192
121
145
192
120
146
192
121
148
192
120
149
192
121
150
192
120
151
192
120
153
192
120
155
192
121
156
192
121
157
192
121
158
192
121
161
192
121
161
192
121
163
192
121
164
192
121
166
192
121
167
192
120
168
192
120
170
192
120
171
192
119
172
192
120
174
192
121
175
192
120
177
191
121
178
191
120
180
191
120
92
194
121
94
193
121
95
193
122
97
192
121
98
192
121
99
192
121
101
192
122
102
192
122
103
192
122
105
192
121
107
192
122
108
193
122
109
192
122
110
192
122
112
192
121
113
192
121
115
192
121
116
192
121
117
192
121
120
192
121
121
192
121
121
192
121
123
192
121
125
192
122
126
192
122
128
192
121
129
191
122
131
191
121
131
191
122
133
191
122
135
192
122
135
191
122
137
191
122
138
192
121
139
191
121
141
191
121
142
191
121
144
191
122
145
191
121
147
191
121
148
191
121
149
191
121
151
192
122
151
191
121
153
191
121
155
191
121
156
191
121
157
191
122
159
190
121
160
191
121
162
191
121
164
191
122
165
190
122
166
191
122
168
191
121
169
191
121
170
191
121
171
191
121
173
191
121
174
191
121
176
190
122
177
189
121
179
189
121
181
189
121
93
192
122
94
192
123
95
191
123
96
191
123
99
191
123
100
191
123
101
191
124
103
191
123
104
191
124
105
191
123
106
192
123
108
191
123
110
191
124
111
192
123
112
192
123
113
192
123
116
191
123
116
191
123
117
190
122
119
191
122
121
191
123
122
191
123
123
191
123
125
191
122
126
190
123
126
190
123
128
190
123
131
190
123
131
189
123
132
189
124
134
190
123
136
190
123
136
190
123
139
189
123
140
189
123
141
189
122
142
189
123
144
189
123
145
189
123
146
189
123
148
189
122
150
189
123
151
189
123
152
189
123
153
189
123
155
189
122
156
189
123
157
188
123
160
189
123
161
190
123
161
189
123
163
189
123
165
189
124
166
188
123
168
189
123
169
189
122
170
189
123
172
189
122
173
189
122
174
188
123
176
188
122
178
188
123
178
187
122
181
187
122
92
190
124
95
191
125
95
190
125
97
190
125
98
189
125
100
189
124
101
189
125
102
189
125
104
189
125
105
189
125
106
189
125
109
189
125
110
189
126
111
189
125
113
189
125
114
189
124
115
189
124
116
189
124
118
188
124
119
189
125
121
189
124
121
189
124
124
189
124
125
189
124
126
188
124
128
189
125
129
188
125
130
188
125
132
188
125
134
187
125
134
189
126
136
188
125
137
189
125
138
188
124
141
187
125
141
187
124
143
187
124
145
187
124
146
187
124
147
187
125
149
187
124
151
187
124
151
187
125
152
187
124
154
187
125
156
188
124
157
187
124
158
187
124
160
187
125
161
187
125
162
187
124
164
188
124
166
187
125
167
187
125
168
187
124
169
187
124
171
187
124
171
187
124
173
187
124
175
187
124
176
187
125
177
187
125
179
187
124
181
186
124
94
189
126
95
189
126
96
188
126
97
188
126
99
187
126
100
187
126
102
188
126
103
187
126
105
187
126
105
187
126
107
187
126
109
187
126
110
187
126
110
187
126
112
187
126
114
187
126
116
188
126
116
188
126
118
187
126
120
187
126
121
187
126
122
187
126
123
187
126
126
187
126
126
187
126
128
187
126
130
187
126
130
187
126
132
187
126
134
187
126
135
187
126
136
187
126
137
187
126
139
187
126
140
186
126
142
187
126
143
187
126
145
186
126
146
186
126
147
186
126
149
186
126
151
186
126
151
186
126
152
186
126
155
186
126
156
186
126
156
186
126
159
187
126
160
186
126
161
186
126
163
187
126
164
186
126
166
187
126
167
186
126
168
186
126
169
186
126
171
186
126
172
186
126
173
186
126
176
186
126
176
186
126
177
186
126
180
185
126
181
185
126
93
187
127
95
187
127
96
187
127
97
187
127
99
187
127
100
187
127
101
186
127
103
186
127
104
186
127
105
186
128
107
186
127
109
187
127
110
186
127
110
186
128
112
186
127
114
187
128
115
186
128
117
186
127
118
186
128
120
186
127
121
185
127
122
186
127
124
186
128
125
186
127
127
186
127
128
186
127
129
186
127
131
186
127
132
186
127
134
186
127
135
186
127
136
186
127
137
185
127
140
185
127
141
185
128
141
185
127
144
184
127
145
185
127
146
184
127
148
184
128
149
184
127
151
184
127
151
184
127
153
184
127
155
184
127
156
184
128
157
185
127
158
185
127
161
184
127
161
184
128
162
184
127
165
185
127
166
184
127
167
184
127
169
185
127
170
184
127
171
184
127
172
184
127
174
184
127
175
184
128
177
184
127
178
184
127
179
184
127
181
184
128
93
186
129
95
186
130
95
186
129
97
186
129
99
186
129
100
186
130
102
184
129
103
185
129
105
184
129
105
184
129
107
184
129
108
185
129
110
185
129
111
184
129
112
184
130
114
184
129
116
184
130
116
184
129
119
185
129
120
185
130
121
184
129
122
184
129
124
184
129
126
183
129
127
184
130
129
184
129
130
184
130
131
184
129
132
184
129
134
184
129
136
184
129
137
184
129
137
184
129
139
184
129
141
183
130
142
184
129
144
182
129
146
183
129
146
182
129
148
182
129
150
182
129
151
182
130
152
182
130
153
182
129
155
182
130
156
182
129
158
182
130
159
182
129
160
182
129
161
182
129
163
182
129
165
182
129
166
182
129
167
183
129
169
183
128
171
182
129
171
181
130
173
182
129
174
182
129
176
182
129
176
182
130
178
182
129
180
182
129
181
181
129
93
184
131
95
184
131
96
184
131
97
184
131
99
184
131
100
183
131
101
183
131
104
182
131
105
182
131
105
183
131
108
182
131
110
183
131
110
182
131
111
183
131
113
182
131
114
182
131
116
182
131
117
182
131
118
182
131
120
182
131
121
182
131
123
182
131
124
182
131
126
182
131
126
182
131
128
182
131
131
182
131
131
182
131
132
182
131
134
182
131
135
182
131
136
182
131
138
182
131
140
182
131
141
182
131
142
182
131
144
181
131
146
181
130
147
181
131
148
181
131
150
181
131
151
181
131
152
181
131
154
181
131
155
181
131
156
181
131
157
181
131
160
181
131
161
181
131
161
181
131
164
181
131
165
181
131
166
181
131
168
181
131
169
181
130
170
181
130
172
181
130
173
180
131
174
181
130
176
181
131
177
180
130
178
181
131
180
181
131
181
181
131
94
182
131
95
182
132
96
182
132
98
182
132
99
182
132
101
182
132
102
182
131
104
181
132
105
181
132
106
181
133
108
181
133
109
181
132
110
182
133
111
181
132
113
181
132
115
181
132
116
181
131
117
181
132
119
181
131
121
181
132
122
181
132
123
181
132
124
181
132
126
181
132
127
180
132
129
180
132
130
181
133
131
181
132
133
181
132
134
181
132
136
181
132
136
181
132
139
181
133
140
181
132
141
181
131
143
181
131
144
180
132
146
180
132
146
180
131
149
180
132
150
179
132
151
179
131
153
179
131
154
179
132
156
179
132
156
179
132
158
179
132
159
179
132
161
180
132
162
180
133
164
179
133
166
179
132
166
179
132
168
179
132
170
179
131
171
179
132
171
180
132
174
179
131
175
179
132
176
179
131
177
179
132
179
179
131
180
179
132
182
179
132
94
181
134
95
181
134
97
181
134
99
181
133
99
181
134
101
181
134
103
181
133
104
181
133
105
180
134
107
180
134
108
180
134
109
180
133
111
181
134
112
180
134
113
180
134
115
180
134
116
179
134
117
179
134
119
179
134
121
179
133
121
179
134
124
179
133
125
180
134
126
180
134
128
179
133
130
179
134
131
178
133
132
179
134
133
179
134
134
179
134
136
178
133
137
178
134
138
179
134
141
179
134
141
179
134
142
179
134
145
179
134
146
178
134
147
178
134
149
178
134
151
178
133
151
177
134
153
177
134
155
177
134
156
177
134
157
177
133
159
177
134
159
177
133
161
177
134
163
178
133
164
178
134
165
177
134
167
177
133
168
177
133
170
177
134
171
177
134
172
177
134
174
178
134
175
177
133
176
177
134
177
177
134
179
177
134
181
177
133
182
177
134
94
179
135
95
179
136
97
179
136
98
179
136
100
179
135
101
179
136
102
179
136
105
178
136
105
179
136
106
178
136
109
178
136
110
179
135
110
179
136
112
179
136
113
178
136
116
178
136
116
178
136
118
177
136
119
177
136
121
177
136
122
177
136
123
177
136
126
177
136
126
178
136
128
177
136
130
177
136
131
176
136
132
177
135
134
177
136
135
176
136
136
177
136
137
177
135
139
177
136
140
177
136
142
177
135
143
177
136
145
176
135
146
177
136
147
177
136
149
177
136
150
176
136
152
176
135
153
176
136
155
176
136
156
176
136
157
176
136
159
176
135
160
176
136
161
176
136
163
176
136
164
176
136
166
176
135
167
176
136
169
176
136
170
176
136
171
176
136
173
176
135
174
176
136
175
176
135
176
176
136
178
176
135
180
176
136
181
175
136
182
176
136
95
177
137
96
177
137
97
177
137
98
177
137
100
177
137
101
177
137
103
177
137
104
177
137
106
177
137
107
177
137
109
176
136
110
177
137
111
177
137
112
176
137
114
177
137
116
176
137
117
176
137
119
176
137
120
176
137
121
176
136
122
176
136
124
176
137
125
176
137
127
176
137
128
176
137
129
176
137
131
176
137
132
175
137
134
176
137
135
176
137
136
176
137
137
175
137
139
176
137
141
176
136
141
176
137
144
176
136
145
176
137
146
176
137
147
176
137
149
176
137
150
175
137
152
175
137
153
174
137
155
174
137
156
174
137
158
174
137
158
174
137
161
174
137
161
175
137
162
175
137
165
176
137
166
175
137
167
175
136
168
174
137
171
174
136
171
174
136
173
174
136
174
174
136
175
174
136
177
175
136
179
175
137
179
174
136
181
174
137
182
173
136
95
176
139
95
176
139
98
176
139
99
176
139
100
176
139
101
176
139
103
176
139
105
176
139
105
175
139
108
176
139
109
176
139
110
176
139
112
176
138
113
176
139
114
176
138
116
176
138
116
176
139
118
175
138
121
175
139
121
175
138
122
174
139
125
174
138
126
174
139
126
174
139
128
174
139
129
175
138
131
174
139
133
174
139
134
173
139
135
174
138
136
175
139
138
174
139
139
174
139
141
173
139
142
174
138
143
174
139
146
174
139
146
174
138
148
174
138
149
174
139
151
174
139
152
173
138
154
173
138
156
173
139
156
172
138
157
172
138
159
173
139
160
172
138
162
173
138
163
174
139
164
174
139
166
173
138
167
173
139
169
173
138
171
172
138
172
172
137
173
172
137
174
172
138
176
173
139
176
172
138
179
172
138
180
172
138
181
172
138
183
172
138
95
173
140
96
174
141
97
174
140
100
174
140
100
174
141
101
174
141
103
174
140
105
174
140
106
174
140
107
174
141
110
174
141
110
174
140
112
174
141
113
174
141
115
174
140
116
174
140
117
173
139
118
173
140
121
173
140
121
173
140
123
172
139
124
172
140
126
172
141
127
172
140
128
172
140
131
172
140
131
172
141
132
172
141
134
172
140
136
172
140
137
172
140
138
172
141
140
172
141
141
172
141
142
171
139
144
172
140
145
172
140
147
172
140
148
172
140
149
172
140
151
172
140
152
171
140
153
172
139
155
171
140
157
171
140
158
171
141
159
171
140
161
171
140
162
171
140
164
172
141
165
171
141
166
171
140
167
172
140
169
171
140
171
171
139
172
171
139
173
171
139
175
171
139
176
171
140
178
171
139
178
171
140
181
171
139
182
171
140
183
170
140
95
172
141
96
172
141
98
172
141
99
172
141
101
172
141
102
172
142
103
172
141
105
172
141
106
172
141
108
172
142
109
172
141
111
172
142
112
171
142
114
172
141
116
172
141
116
172
141
117
172
141
119
171
141
121
171
141
121
171
141
123
171
141
125
171
141
126
171
141
128
171
141
129
171
141
130
171
141
131
171
141
133
171
142
134
171
141
136
171
141
137
171
141
138
171
141
140
171
142
141
171
142
142
171
141
144
171
141
146
171
141
146
171
141
149
171
141
150
171
141
151
171
141
153
171
141
154
171
141
155
169
141
156
170
141
159
170
141
159
170
142
161
169
141
162
171
141
163
170
141
166
171
141
166
170
141
167
171
141
170
170
141
171
170
141
172
170
141
173
169
141
176
169
141
176
169
141
177
169
141
180
169
141
180
170
141
182
169
141
183
170
141
95
171
143
97
170
143
99
171
143
100
171
142
100
171
142
103
171
143
104
171
143
105
171
142
107
171
142
108
171
143
110
170
143
111
170
143
113
171
143
114
171
142
116
171
143
116
171
143
118
171
142
120
170
142
121
171
142
122
171
143
124
170
142
125
170
142
126
170
142
127
169
142
129
169
143
131
169
142
131
169
143
133
169
143
134
170
143
136
169
143
137
169
142
139
169
143
141
169
143
141
169
143
142
170
143
145
169
142
146
168
142
147
169
142
148
169
142
151
169
142
151
169
142
153
169
142
154
168
142
156
169
142
157
168
142
158
168
142
161
167
143
161
167
143
162
169
142
164
169
142
165
169
143
167
169
143
168
169
142
169
169
142
171
168
143
172
168
142
173
167
142
176
168
142
176
167
142
178
167
143
179
167
142
181
167
142
182
168
142
184
167
142
95
170
144
97
169
144
98
169
144
100
169
144
101
168
144
102
168
144
105
169
145
105
169
144
107
169
145
109
169
144
110
169
145
110
168
144
113
169
144
114
169
145
116
169
144
117
169
144
118
168
144
119
169
144
121
169
144
122
168
145
123
169
144
126
168
144
126
167
144
128
167
144
129
167
144
131
167
144
132
167
144
134
167
145
135
167
144
136
167
145
137
167
144
140
167
144
140
167
144
142
167
144
143
167
145
144
167
144
146
167
144
147
166
144
149
167
145
150
167
144
152
167
144
153
167
144
154
167
144
156
166
144
157
166
144
159
166
144
160
166
145
161
166
144
163
167
145
164
167
144
166
167
145
166
167
144
169
167
144
170
167
144
171
167
144
173
166
145
174
166
144
176
166
144
177
166
144
178
166
144
179
166
145
181
166
144
182
166
144
184
166
144
95
167
146
97
167
146
99
167
146
100
167
146
101
166
146
103
167
146
104
167
146
106
167
146
107
167
146
109
167
146
110
166
146
111
167
146
112
166
146
114
167
146
116
167
146
116
167
146
118
167
146
120
167
146
121
167
146
123
167
146
124
167
146
125
166
146
127
166
146
128
166
146
130
166
146
131
166
146
133
166
146
134
166
146
136
166
146
136
166
146
137
166
146
140
166
146
141
166
146
142
166
146
143
166
146
145
166
146
146
166
146
148
166
146
150
166
145
151
165
146
151
166
146
154
166
146
155
166
146
156
165
146
158
166
146
158
166
146
161
165
146
161
165
146
163
166
146
165
166
146
166
166
146
167
166
146
168
166
146
171
166
146
171
166
146
172
166
146
174
165
146
176
165
146
177
164
146
178
164
146
180
164
146
181
164
146
182
164
146
184
164
146
96
166
147
97
166
147
99
166
148
100
166
147
102
166
147
104
166
147
105
166
147
105
166
148
108
166
147
109
166
147
110
166
147
112
166
147
112
166
148
115
166
147
116
165
148
117
166
147
118
166
146
121
166
147
121
166
147
122
166
148
125
166
147
126
166
147
126
166
148
129
165
147
130
165
147
131
164
147
132
164
148
135
164
147
136
164
147
137
165
147
138
164
148
139
164
147
141
164
147
142
164
148
143
164
146
146
164
147
146
164
148
148
164
147
149
165
147
151
164
146
152
164
147
153
164
148
156
164
148
156
164
147
157
164
147
159
164
148
160
164
147
162
163
148
163
164
147
165
164
147
166
164
147
167
164
147
169
164
148
170
164
147
171
164
147
172
163
147
175
163
147
175
164
147
177
163
147
178
163
147
179
162
147
181
162
147
182
162
147
183
162
148
96
164
149
97
164
149
100
164
149
101
165
149
102
164
149
104
164
150
105
164
150
106
164
149
107
164
150
110
164
150
110
164
149
112
164
149
113
164
149
115
164
150
116
164
150
117
164
149
119
163
149
121
164
149
122
164
149
123
164
149
124
164
149
126
164
149
127
164
149
129
163
150
131
164
150
131
163
149
133
163
149
134
162
149
136
162
149
137
163
150
138
162
149
140
163
150
141
162
149
143
162
150
144
162
148
145
162
149
147
162
149
148
162
149
149
162
149
151
162
149
152
162
148
154
161
149
155
162
149
156
162
149
158
162
149
159
162
149
161
161
150
162
162
149
163
161
149
164
162
149
166
162
149
167
162
149
168
162
149
171
162
149
171
162
149
172
162
149
174
162
149
176
161
148
177
162
149
179
161
148
180
161
148
181
161
148
182
161
148
185
161
149
96
162
150
98
162
151
99
162
151
101
162
150
102
163
151
104
162
151
105
162
151
107
162
151
108
162
151
109
162
151
111
162
151
112
162
151
114
162
151
115
162
151
116
162
151
118
162
151
119
162
150
121
161
150
121
162
151
123
162
151
125
162
151
126
162
151
128
162
150
129
162
150
131
162
151
132
161
151
133
161
151
134
161
151
136
161
151
137
161
151
138
162
151
141
161
151
142
161
151
142
161
151
145
161
150
146
161
151
146
161
151
149
161
151
150
161
150
151
161
150
152
161
151
154
160
150
155
161
150
156
160
151
158
161
150
159
161
151
161
161
151
161
160
151
164
161
151
165
161
151
166
161
151
168
161
151
169
161
151
171
161
150
172
161
151
173
161
150
174
160
150
176
161
151
177
161
151
178
160
151
181
160
151
181
160
151
182
159
151
185
159
151
97
161
152
98
161
151
100
161
152
100
161
152
102
161
152
104
161
151
105
161
151
106
161
152
109
160
152
110
160
151
110
161
152
113
161
153
114
160
152
116
161
152
117
161
152
117
161
152
120
161
152
121
161
152
122
161
152
124
161
152
126
161
152
126
161
152
128
161
152
130
161
152
131
160
152
132
161
152
133
160
152
134
160
152
136
159
151
138
161
152
139
161
152
140
160
152
142
159
151
143
159
152
144
160
151
146
159
152
146
159
152
149
159
152
150
159
152
151
159
152
152
160
152
154
159
152
156
159
152
156
158
151
157
159
152
160
159
152
161
159
152
162
159
151
163
159
152
166
158
151
166
159
151
167
159
151
170
159
152
171
159
152
172
159
152
174
159
152
175
159
152
176
159
152
177
159
152
179
159
152
180
158
152
182
158
152
183
158
152
184
157
152
97
159
154
98
160
154
100
159
153
101
159
154
103
159
154
105
159
154
105
160
154
107
159
154
108
159
154
110
159
153
111
159
154
112
159
153
115
159
154
115
159
154
116
158
154
118
159
153
119
159
154
121
158
154
122
159
154
124
159
154
125
158
154
127
159
154
128
159
154
129
159
154
131
159
154
132
159
153
133
159
153
136
159
154
136
159
154
138
158
154
139
159
153
141
159
154
141
158
154
142
158
154
144
158
153
146
157
154
146
157
154
148
157
154
150
157
154
151
157
154
153
157
154
154
157
154
155
157
154
157
157
154
158
156
154
159
156
154
161
157
154
163
156
154
164
157
153
165
157
154
167
157
154
168
157
154
169
157
154
171
157
154
172
157
154
174
157
154
176
157
153
176
157
154
178
157
154
180
157
154
181
157
154
182
157
154
183
156
154
185
156
154
97
158
156
99
157
156
100
158
156
102
157
156
103
157
156
104
157
156
106
158
156
107
157
156
108
157
156
110
157
156
111
158
156
113
158
156
114
158
155
116
158
156
117
157
156
119
157
156
120
157
155
121
157
155
122
157
156
124
157
156
125
157
156
127
156
156
128
157
155
130
157
155
131
157
156
132
157
156
134
157
156
136
157
156
136
157
156
137
157
156
139
157
156
140
157
156
141
157
156
143
156
155
144
156
156
146
156
155
147
156
156
149
156
156
151
156
155
152
156
156
153
156
156
154
156
155
156
156
156
157
156
156
158
155
155
160
156
156
161
156
156
162
155
156
164
156
155
165
156
156
166
155
156
169
156
156
170
155
156
171
156
155
173
156
155
174
156
155
176
156
155
177
156
156
178
156
155
179
156
156
181
156
155
182
155
156
184
156
156
186
155
155
97
156
157
99
156
157
100
156
156
101
156
157
104
156
156
105
156
157
105
156
157
107
156
157
109
156
157
110
156
157
112
156
156
113
156
157
115
156
157
116
156
156
118
156
156
119
156
156
121
156
156
121
156
156
122
156
156
124
156
157
125
155
156
127
156
157
128
156
156
129
156
156
131
156
156
132
156
157
134
156
156
135
156
156
136
156
157
137
156
157
140
156
157
141
156
157
141
156
157
143
156
157
145
155
156
146
155
156
148
155
156
149
154
157
151
154
156
151
154
156
154
154
156
155
154
156
156
155
157
157
154
157
159
154
157
161
154
156
161
154
157
162
154
156
165
154
157
166
155
157
166
153
157
169
154
157
171
154
157
171
154
156
172
154
156
175
154
156
176
154
156
177
154
156
178
154
156
180
154
156
181
154
156
182
154
157
183
154
156
186
153
156
98
155
157
100
156
158
101
154
159
102
155
158
103
155
159
105
154
158
106
154
159
108
154
158
110
154
158
110
155
158
112
154
158
113
154
158
114
154
159
116
154
159
116
155
158
118
155
158
120
154
158
121
154
158
123
154
157
125
154
157
126
155
158
127
153
159
129
153
158
130
154
157
131
154
158
132
154
158
134
154
159
136
154
158
136
154
158
138
154
159
139
154
158
141
154
159
142
154
159
144
153
159
145
154
158
146
153
157
147
153
158
150
153
158
151
153
158
151
152
158
154
153
158
155
152
158
156
152
158
157
152
159
160
153
158
160
152
157
161
152
157
163
152
158
164
153
158
166
153
158
167
152
158
168
152
158
170
151
159
171
152
158
173
152
157
175
152
158
176
152
158
177
152
158
178
152
158
181
152
157
181
152
158
182
152
157
184
152
158
186
152
158
99
154
159
100
153
160
101
153
160
102
153
160
104
152
160
105
153
160
106
152
159
107
152
160
110
152
161
110
152
160
111
152
160
114
152
160
115
152
161
116
152
161
117
152
159
119
152
159
121
152
160
122
152
159
123
152
159
125
152
159
126
152
159
127
152
160
128
152
159
131
152
160
131
151
160
133
152
160
134
152
161
136
152
160
137
152
159
139
152
159
140
152
160
141
152
160
142
152
160
144
152
159
145
152
159
147
152
160
148
151
159
149
151
159
151
151
159
152
151
160
154
151
159
155
151
159
156
151
160
158
151
159
159
151
160
161
151
160
161
151
159
163
151
159
165
151
160
166
151
160
168
151
160
169
151
160
171
151
160
171
151
160
174
151
159
175
151
159
176
151
160
177
151
159
178
151
159
181
151
159
181
151
159
183
151
159
185
151
160
186
151
160
98
152
161
100
152
161
101
151
161
102
151
161
103
151
161
105
151
161
107
151
161
107
151
161
109
151
161
110
151
161
112
151
161
113
151
161
115
151
161
116
151
161
118
151
161
120
151
161
120
151
161
122
151
161
123
151
161
124
151
161
126
151
161
128
151
161
129
151
161
130
151
161
132
151
161
133
150
161
134
151
161
136
151
161
136
150
161
138
150
161
141
151
161
141
150
161
142
151
161
144
151
161
146
151
161
146
151
161
148
151
161
150
150
161
151
150
161
153
150
161
154
149
161
156
149
161
156
149
161
158
149
161
160
149
161
161
149
161
162
150
161
164
149
161
165
149
161
166
149
161
167
150
161
170
149
161
171
149
161
171
149
161
173
149
161
175
149
161
176
148
161
177
149
161
180
149
161
181
149
161
182
149
161
183
149
161
184
149
161
187
149
161
99
151
162
100
151
162
100
151
162
102
151
162
104
150
162
105
150
162
107
149
162
108
150
162
109
149
162
110
149
162
113
150
162
114
149
162
116
150
163
116
149
162
118
149
163
119
149
162
121
149
162
122
149
162
124
149
162
125
149
162
126
149
162
128
149
162
129
149
162
131
149
162
132
149
162
133
148
162
135
149
163
136
149
162
137
149
162
138
149
162
140
148
162
141
149
162
143
149
163
144
149
162
146
149
162
147
149
162
148
149
162
150
149
162
151
149
162
152
148
162
155
148
162
155
147
162
157
148
162
158
147
162
160
147
162
161
147
162
163
147
162
164
147
162
165
147
162
166
147
162
168
147
162
169
147
162
171
148
162
172
147
162
173
147
162
176
146
163
177
147
162
177
147
163
179
147
162
181
147
163
181
147
162
184
147
162
185
147
162
186
147
162
98
149
164
100
149
164
102
149
164
102
149
164
105
149
164
105
148
165
106
148
164
109
147
164
110
148
164
111
147
164
112
148
164
114
148
164
116
148
164
117
148
165
118
148
164
120
147
165
121
147
164
122
147
165
123
148
164
126
147
165
126
148
164
127
147
164
130
147
164
131
148
165
132
147
164
133
147
164
136
147
164
136
146
164
137
147
164
139
147
164
140
147
164
142
147
164
143
146
164
144
147
164
146
147
164
147
147
165
149
147
164
150
147
164
151
146
165
153
146
165
154
146
164
156
146
165
157
146
165
158
146
164
161
146
165
161
146
164
162
146
165
164
146
164
166
146
164
166
146
164
168
146
164
170
146
164
171
146
164
173
146
164
174
146
164
176
146
164
177
146
165
178
146
164
179
145
164
181
146
164
183
146
164
184
146
164
185
146
164
187
146
165
99
147
166
100
146
166
101
147
166
103
147
166
104
146
166
105
147
166
107
146
166
108
146
166
110
146
166
111
146
166
112
147
166
115
146
166
116
146
166
117
146
166
119
146
166
120
146
166
121
146
166
122
146
166
125
146
166
126
146
165
126
146
166
128
146
166
129
146
166
131
146
166
132
146
166
134
146
166
136
146
166
136
146
166
138
146
166
139
146
166
141
146
166
141
146
166
143
146
166
145
145
166
146
146
166
147
146
166
149
146
166
151
146
165
152
146
166
154
146
166
155
145
166
156
145
166
157
145
166
158
144
166
161
144
166
161
144
166
163
144
166
165
144
166
166
145
166
167
144
166
168
144
166
170
144
166
171
144
166
172
145
166
175
144
165
176
144
165
177
144
166
178
144
166
179
143
166
181
144
165
183
144
165
184
144
166
185
144
166
187
144
166
100
145
167
100
146
167
101
146
166
104
146
167
105
146
168
105
146
167
107
145
167
109
145
167
110
145
168
112
145
168
113
146
167
115
146
167
116
146
168
116
145
168
119
145
167
120
144
166
121
144
167
122
144
167
124
144
166
126
144
166
126
144
166
129
145
167
130
144
167
131
144
167
133
145
167
134
145
167
135
145
167
137
144
167
139
144
167
140
144
167
141
144
167
142
145
168
143
144
168
145
144
167
146
144
166
147
144
167
150
144
167
151
144
167
152
144
166
154
143
167
156
144
167
156
144
167
157
143
166
160
143
167
160
142
167
161
142
168
163
143
167
164
143
166
166
142
167
167
142
168
169
142
167
171
142
167
172
142
166
173
142
167
174
142
167
176
142
167
177
143
166
179
142
166
181
142
167
181
142
166
183
142
167
184
142
166
186
142
167
187
142
167
99
144
169
100
144
169
102
144
169
104
144
168
105
144
169
106
144
169
107
144
169
110
143
169
110
143
169
111
143
170
114
144
169
115
144
169
116
144
169
117
144
169
119
142
169
120
142
169
122
142
169
124
142
168
124
142
168
126
142
169
127
142
168
128
142
168
131
143
169
131
142
169
132
142
169
135
143
168
136
142
168
136
142
169
138
143
169
140
142
169
141
142
168
142
142
169
144
143
170
145
142
169
147
142
169
148
141
168
150
142
168
151
142
169
152
142
169
154
142
169
156
142
169
157
142
169
158
142
169
159
141
168
161
141
169
161
141
169
163
141
169
165
141
169
166
141
168
168
141
169
169
141
169
170
141
169
172
141
169
173
141
169
175
141
168
176
141
169
178
141
169
179
141
169
181
141
168
182
140
169
182
140
168
185
141
169
187
141
168
187
141
168
99
142
171
100
141
171
103
142
171
103
142
171
105
142
170
107
142
171
108
142
171
109
142
170
110
141
171
112
142
171
113
142
171
115
142
171
116
142
170
118
141
171
120
141
171
120
141
171
122
141
171
123
141
171
125
141
171
126
141
170
127
141
171
129
141
171
130
141
170
132
141
171
133
141
171
135
141
170
136
141
171
137
141
171
139
141
170
141
141
171
142
141
171
142
141
171
144
141
170
146
141
171
146
141
171
149
141
171
150
140
171
151
141
171
153
141
171
154
141
171
155
141
171
157
141
171
158
141
171
160
141
171
161
140
171
162
140
171
163
140
171
166
140
170
166
140
171
167
140
171
169
140
170
171
140
171
171
140
171
174
139
170
176
139
171
176
139
171
177
139
171
180
139
171
181
140
171
181
139
171
183
139
170
184
139
171
186
139
171
188
139
171
100
141
172
100
141
172
102
140
172
104
141
172
105
141
172
107
141
172
108
141
172
110
141
172
110
141
172
113
141
172
114
141
171
115
141
171
117
141
172
118
141
171
119
141
172
121
140
171
122
140
172
124
139
172
125
140
172
126
139
172
127
139
172
129
139
172
131
139
172
131
139
172
134
139
171
135
139
172
136
139
172
137
140
172
139
139
172
141
139
171
141
139
172
143
139
172
145
139
172
146
139
171
147
140
172
148
139
172
151
138
171
151
139
171
152
139
172
154
139
172
156
139
172
157
139
172
159
139
172
160
138
172
161
138
172
162
138
172
164
138
172
165
139
172
167
138
172
168
138
172
170
138
172
171
138
171
172
137
171
174
137
172
176
137
172
177
137
171
178
137
171
179
137
171
181
137
172
182
138
171
184
137
172
185
137
172
186
137
172
188
137
172
100
140
174
101
139
174
102
139
174
105
139
174
105
138
174
107
139
174
109
139
173
110
139
174
111
139
174
113
139
174
115
139
174
116
139
174
116
139
174
119
139
174
119
139
173
121
138
173
122
139
174
123
138
173
126
138
174
126
137
174
128
137
173
129
137
174
131
137
174
132
137
174
134
137
173
136
137
173
136
137
174
138
138
174
139
137
174
141
137
174
142
137
174
143
137
174
145
137
174
146
137
174
148
137
173
149
137
174
150
138
173
152
137
173
153
137
173
154
136
174
156
137
174
157
137
174
159
137
173
161
137
173
162
137
174
163
136
174
164
137
174
166
136
173
166
137
174
169
136
174
170
137
174
171
136
174
173
136
173
174
136
174
176
136
173
177
136
173
178
136
172
180
136
173
181
136
173
183
136
174
183
136
173
185
136
173
187
136
174
187
136
174
100
137
176
101
138
176
103
137
175
104
137
176
106
137
176
107
137
175
109
136
176
110
137
175
112
137
176
113
136
176
114
137
176
116
136
176
117
137
176
119
137
176
121
136
175
121
137
174
122
136
175
124
136
175
126
136
175
127
136
175
128
136
176
130
136
175
131
136
176
132
136
175
134
136
175
135
136
175
137
136
176
138
136
175
140
136
176
141
136
176
142
136
175
143
136
176
146
136
176
146
136
175
148
136
174
149
136
175
151
136
175
151
136
175
154
136
175
155
136
175
156
136
175
157
136
175
159
136
175
161
136
175
161
136
175
163
135
175
164
136
175
166
136
175
167
136
176
168
136
176
171
136
176
171
135
176
172
136
176
175
135
174
176
135
175
177
134
175
178
134
174
180
134
174
181
134
175
182
134
175
184
134
175
186
134
175
187
134
175
188
133
176
100
136
176
101
136
177
104
136
176
105
136
176
105
136
176
108
136
177
109
135
176
110
136
176
112
135
176
113
136
177
115
136
176
116
135
176
118
135
176
118
136
177
120
136
176
121
136
176
123
136
176
125
135
176
126
136
176
126
135
176
129
134
176
130
134
176
131
134
176
132
134
176
134
134
176
136
134
176
136
134
176
139
134
177
140
134
176
141
134
176
142
134
176
143
134
176
146
134
177
146
134
176
147
134
176
149
134
176
151
134
176
152
134
176
153
134
176
156
134
176
156
133
176
158
134
176
160
134
176
161
134
176
162
134
176
163
134
176
165
133
177
166
134
177
167
134
176
169
134
176
170
134
177
172
134
176
173
134
177
174
133
176
176
133
176
177
133
176
178
132
176
181
132
176
181
132
176
183
132
176
185
132
176
186
132
176
187
132
176
189
133
176
101
134
177
102
134
178
104
134
178
105
134
178
106
134
177
107
134
178
110
134
178
110
134
178
112
134
177
113
134
178
115
134
178
116
134
179
117
134
178
119
134
178
121
134
177
122
134
178
123
134
177
124
134
177
126
134
177
127
133
177
129
133
177
131
133
178
131
132
178
132
133
178
134
132
178
136
132
177
137
132
178
139
132
178
141
132
178
141
132
178
142
132
178
144
132
177
145
132
178
147
132
178
148
132
178
149
132
177
151
132
177
152
132
177
154
133
177
156
132
177
157
133
178
158
132
177
160
131
178
161
132
177
162
132
177
164
132
177
165
132
178
166
131
178
167
132
178
169
132
178
171
132
178
171
132
178
173
132
178
175
132
177
176
131
177
178
131
177
179
131
177
180
131
177
181
131
177
183
131
177
184
131
177
186
131
177
187
131
178
188
131
177
100
132
180
103
132
179
104
132
179
105
132
179
106
132
179
108
132
179
109
132
180
111
132
180
112
131
180
113
133
179
116
133
179
116
132
180
117
132
180
120
131
180
121
132
179
121
132
179
124
132
179
125
132
179
126
132
179
128
131
179
129
131
179
131
131
179
132
131
179
133
131
180
134
131
179
136
131
180
138
131
179
138
131
179
140
131
179
141
131
180
143
131
180
145
131
180
146
131
179
147
131
179
149
131
180
150
131
179
151
131
179
153
131
179
154
131
179
156
131
179
157
131
179
159
131
179
160
131
179
161
131
179
162
131
179
164
131
179
166
130
180
166
131
179
167
130
180
169
131
179
171
131
180
172
131
180
173
131
180
175
131
179
176
130
179
178
130
179
179
130
179
181
130
179
182
130
179
182
129
179
184
129
179
186
129
179
187
129
179
189
129
179
100
131
181
102
131
181
105
131
181
105
131
181
107
131
181
108
131
181
110
131
181
110
131
181
113
131
181
114
131
181
116
131
181
117
131
181
117
131
181
120
131
181
121
130
181
122
131
181
123
131
181
125
131
181
126
131
181
127
131
181
130
131
181
131
130
181
132
130
181
133
130
181
135
129
181
136
129
181
137
129
181
140
129
181
141
130
181
142
129
181
143
130
181
144
129
181
146
129
181
147
129
181
148
129
181
151
129
181
151
129
181
153
129
181
154
129
181
156
129
181
157
130
181
158
129
181
160
129
181
161
128
181
163
128
181
164
129
181
165
128
181
167
129
181
168
128
181
169
128
181
171
129
181
171
129
181
174
129
181
175
129
181
176
129
181
177
129
181
180
128
181
180
128
181
181
127
181
183
128
181
184
127
181
186
127
181
187
127
181
188
127
181
101
129
182
102
129
182
104
129
182
105
129
182
107
129
182
109
129
182
110
129
182
111
130
182
112
130
182
115
129
182
115
129
182
117
129
182
119
130
183
119
129
182
121
129
182
122
129
183
124
128
182
126
129
183
127
129
183
128
129
183
129
129
182
131
129
182
132
128
183
134
128
182
136
128
182
136
127
182
137
127
182
139
127
182
141
128
182
142
128
182
144
128
182
145
128
183
146
127
182
148
127
183
149
127
181
151
127
182
151
127
182
153
127
183
154
127
182
156
127
182
157
127
183
159
127
183
160
127
183
161
127
183
162
127
182
164
126
183
165
127
182
166
127
182
168
127
182
169
127
183
171
127
182
172
127
182
173
127
183
176
127
182
176
127
183
178
126
183
180
127
182
181
126
182
182
126
182
183
126
183
185
126
182
186
126
182
187
126
182
189
126
182
101
128
184
103
128
184
105
127
185
106
127
184
107
127
184
109
127
185
110
127
184
111
127
184
113
127
184
114
128
185
116
127
184
117
127
184
119
127
184
120
127
185
121
127
184
122
127
184
125
127
184
126
126
183
127
127
184
128
127
185
130
127
185
131
127
184
133
126
185
134
126
184
136
127
185
136
126
184
138
126
185
139
126
184
141
127
185
142
126
184
144
126
185
145
126
184
147
126
185
147
126
185
150
126
184
151
126
184
152
126
184
153
126
184
155
126
184
156
126
184
157
126
184
159
126
184
160
126
184
161
126
184
162
126
184
164
126
184
165
126
185
166
126
184
168
126
184
170
126
184
171
126
185
172
126
184
174
126
185
175
126
183
177
126
183
177
126
184
179
125
184
181
126
183
182
125
184
183
126
183
186
125
185
187
124
184
187
124
183
190
124
183
102
126
185
104
126
186
105
126
186
105
126
187
107
126
186
110
126
186
110
126
187
112
126
186
113
126
187
115
126
186
116
126
187
118
126
186
119
126
186
121
126
187
121
126
185
122
126
186
124
126
185
126
126
186
127
126
186
129
126
186
130
126
186
131
126
185
132
126
185
135
125
186
136
125
186
137
125
186
138
125
186
139
125
185
141
126
186
142
125
186
144
125
186
146
125
186
146
124
186
148
124
186
149
125
185
150
124
186
152
124
186
153
125
185
155
124
186
156
124
185
158
124
186
159
124
185
161
124
186
161
124
186
163
125
185
165
125
185
166
124
186
167
124
186
169
124
186
171
124
186
171
124
186
172
123
186
174
123
187
176
124
185
176
124
186
178
124
186
180
124
185
181
123
186
182
124
186
184
124
186
185
123
185
187
123
186
188
122
186
189
122
185
103
125
187
104
125
187
105
125
187
106
125
187
107
125
187
110
124
187
110
124
187
111
124
188
114
124
187
116
124
187
116
124
187
117
124
187
119
124
187
120
124
187
122
124
187
123
124
187
124
124
187
126
123
187
128
124
187
129
124
187
130
124
187
132
124
187
133
124
187
135
124
187
136
124
187
137
124
187
138
123
187
140
124
187
141
123
187
142
123
187
144
123
187
146
123
188
146
123
187
147
123
187
150
123
187
151
122
187
151
122
187
154
122
187
155
123
187
156
122
187
158
122
187
160
122
187
161
122
187
161
122
187
163
122
187
164
122
187
166
122
187
167
122
187
169
122
187
171
123
187
171
123
187
173
122
187
174
122
187
176
122
187
177
122
187
178
122
187
181
122
187
181
122
187
182
122
187
185
121
187
186
121
187
187
122
187
189
121
187
190
121
187
102
124
189
104
123
189
105
124
189
106
123
189
108
122
188
109
122
189
111
122
189
112
122
189
114
122
188
115
122
188
117
122
189
118
122
188
120
122
189
121
122
189
122
122
189
123
122
189
125
122
189
126
122
189
127
122
188
128
122
189
131
122
189
131
122
189
132
122
189
134
122
189
136
122
189
137
121
189
139
122
189
140
121
188
141
122
188
142
122
189
145
122
188
145
122
189
147
121
189
148
121
189
149
121
188
151
121
189
153
121
189
153
121
189
156
121
189
157
121
189
157
121
189
159
121
189
161
121
189
162
121
189
164
121
188
165
121
189
166
121
189
167
121
189
169
121
188
170
121
189
172
121
188
174
121
189
175
121
188
176
121
189
178
120
188
179
121
189
180
121
189
181
121
189
182
121
188
184
121
189
187
121
189
187
120
189
189
120
189
190
120
189
103
122
191
105
122
191
105
121
191
107
121
191
109
121
191
110
121
191
111
121
191
112
121
191
114
121
191
116
121
191
117
121
191
118
121
191
120
121
190
120
121
191
122
121
191
124
121
191
125
121
190
126
121
190
127
121
191
130
121
191
130
120
191
132
121
191
133
121
191
134
121
191
136
121
191
137
121
191
139
120
191
140
121
191
141
121
190
143
121
190
144
121
191
146
121
190
147
120
191
149
120
190
150
120
190
151
119
190
152
119
191
154
120
191
155
119
191
156
120
191
158
119
190
160
119
191
161
119
191
163
119
191
164
119
191
166
119
191
166
119
191
167
119
191
169
119
191
171
119
191
171
119
191
174
119
190
176
120
191
176
119
190
177
120
190
180
119
190
181
118
191
181
119
190
184
119
191
185
119
191
187
119
191
187
119
191
189
118
191
191
119
190
103
121
192
104
120
192
105
121
192
108
121
192
108
120
192
110
120
192
110
119
192
112
120
192
114
119
192
115
120
192
116
120
192
118
120
192
119
119
192
121
119
192
121
119
192
123
119
192
125
119
192
126
119
192
127
119
192
129
119
192
131
119
192
132
119
192
133
118
192
135
119
192
136
119
192
137
119
192
139
119
192
141
119
192
141
119
192
143
119
192
144
119
192
146
119
192
147
119
192
148
118
192
151
118
192
151
118
192
153
118
192
155
117
192
156
118
192
157
117
192
159
117
192
160
117
192
161
117
192
162
117
192
165
117
192
166
117
192
167
118
192
168
118
192
169
118
192
171
117
192
172
117
192
174
117
192
176
117
192
176
118
191
178
117
191
179
117
192
181
116
192
182
117
192
184
117
191
185
117
192
186
117
192
188
117
192
190
117
192
191
117
192
103
119
192
105
119
193
106
119
194
106
119
194
109
119
194
110
118
193
110
118
193
113
117
194
114
118
194
115
118
194
117
119
194
119
117
194
120
117
194
121
118
194
122
117
193
123
117
193
126
117
193
126
117
193
128
117
193
129
117
193
131
117
193
131
118
194
134
116
193
135
117
193
136
117
193
137
117
194
140
117
194
141
117
194
142
116
193
143
117
194
145
117
193
146
117
194
147
117
194
149
117
193
150
117
193
152
117
192
153
116
193
154
116
192
156
116
193
157
116
194
159
116
193
161
116
193
161
116
193
162
116
193
164
116
194
166
116
193
167
116
192
168
116
193
170
116
194
171
116
194
173
116
193
174
116
193
176
116
194
177
116
192
178
116
192
180
116
192
181
115
192
182
116
193
184
115
193
186
116
193
187
116
193
187
116
193
190
116
193
191
116
193
103
117
195
105
117
194
105
117
195
107
117
195
108
117
195
110
117
195
111
116
195
112
116
195
115
116
195
116
117
196
116
116
195
118
116
196
121
116
196
121
116
196
122
116
194
124
116
194
125
116
194
127
116
195
128
116
195
129
116
194
131
116
194
132
116
195
134
116
195
136
116
195
136
115
194
138
116
195
139
116
196
141
116
195
141
116
195
144
115
195
145
115
195
146
116
195
148
116
195
150
116
195
151
116
195
152
116
194
154
116
194
155
115
194
156
115
194
158
114
195
159
115
194
161
115
195
162
115
194
163
114
194
165
114
195
166
115
195
167
115
194
169
115
194
171
114
195
171
114
196
172
114
195
174
114
194
176
114
195
176
114
194
178
114
194
180
115
194
181
115
195
183
113
194
185
114
195
186
114
194
187
114
194
188
114
195
189
114
194
192
114
194
104
116
196
105
116
196
106
116
196
107
116
197
109
116
197
110
115
197
112
116
197
113
115
196
114
115
197
116
116
197
117
116
197
119
115
197
121
115
197
121
115
197
122
115
196
124
114
196
126
115
196
126
114
197
129
114
196
130
114
196
131
114
196
133
114
196
134
114
197
136
113
196
137
113
197
138
114
197
140
114
196
141
114
197
143
114
196
144
114
196
146
114
196
146
114
197
147
114
197
149
114
196
151
114
196
151
114
196
153
113
196
156
113
196
156
113
196
157
112
196
160
113
196
161
112
196
162
112
196
164
113
196
165
113
196
166
112
197
167
113
196
169
113
196
170
113
197
172
112
197
173
112
197
174
112
197
176
112
196
177
112
196
179
113
197
180
112
196
181
112
196
182
113
196
184
112
196
186
111
196
187
111
196
189
112
196
190
112
196
191
112
197
103
114
197
105
114
197
106
114
197
107
114
197
109
114
197
110
114
197
111
114
197
114
114
197
115
113
197
116
114
198
118
114
197
119
114
197
121
113
198
121
114
198
123
113
198
124
113
197
126
112
197
127
113
197
128
112
197
131
112
197
131
112
197
133
112
197
135
113
197
136
113
198
137
112
197
139
111
197
141
112
197
141
112
198
142
112
198
145
112
197
146
112
198
147
111
197
148
111
198
149
112
198
151
112
197
152
112
198
154
112
197
155
112
197
157
111
197
158
111
197
159
110
197
161
110
197
162
111
197
164
111
197
165
111
197
166
111
197
167
112
198
169
111
197
171
111
197
171
111
198
174
111
198
175
111
197
176
110
197
178
111
198
179
110
197
181
110
198
182
110
197
183
110
197
184
110
197
186
110
198
187
110
197
188
110
197
191
110
197
192
110
197
104
112
199
105
112
200
106
112
199
108
112
199
110
112
199
111
112
199
112
112
199
113
111
199
116
112
199
116
112
199
117
112
199
119
112
199
121
112
199
121
111
200
124
112
199
125
111
200
126
111
199
127
110
199
129
110
200
130
110
199
132
110
199
133
110
199
134
110
199
136
110
199
137
110
199
138
110
199
141
110
199
142
110
199
143
110
199
144
110
200
146
110
199
146
110
199
149
110
199
150
110
200
151
110
199
153
110
199
154
110
200
156
110
199
157
110
199
159
110
199
160
110
199
161
110
199
163
110
200
164
109
199
166
109
199
166
109
199
167
110
199
170
110
200
171
110
199
172
110
199
173
110
199
175
110
199
176
110
200
177
109
199
180
109
200
181
109
199
182
109
200
184
109
199
184
109
199
186
109
199
188
109
199
189
109
199
191
109
199
192
108
199
104
110
201
105
110
201
107
110
201
109
110
201
110
110
201
111
110
202
112
110
202
114
110
201
116
110
201
117
110
201
118
110
201
119
110
201
121
110
201
122
110
202
123
110
201
126
110
201
126
110
202
127
110
202
130
109
201
131
109
201
131
109
202
134
109
201
135
109
201
136
109
202
137
109
202
139
109
201
140
109
201
142
110
201
143
109
201
144
109
201
146
109
201
148
109
201
148
108
201
151
109
201
151
108
201
153
109
201
155
109
202
156
109
201
157
109
201
158
109
202
160
109
201
161
108
201
162
107
201
165
108
202
166
108
201
166
108
201
169
109
202
169
109
201
171
109
202
173
109
201
174
108
201
176
108
201
176
107
202
178
108
201
180
107
201
181
108
201
182
107
201
184
107
201
185
108
201
186
107
200
188
107
201
189
108
201
190
107
201
192
107
201
104
109
203
105
109
202
106
109
202
109
109
202
110
109
203
110
109
202
113
109
202
114
109
202
116
109
203
116
109
202
119
109
202
120
109
203
121
109
203
122
109
203
124
109
202
125
109
202
126
108
202
128
108
203
129
108
202
131
108
202
132
107
202
133
107
202
136
107
202
136
107
202
138
108
202
139
108
202
141
107
202
142
107
203
143
107
202
146
107
202
146
107
203
147
107
202
149
108
203
150
107
202
152
107
202
153
106
202
155
107
202
156
107
202
157
107
202
158
107
202
161
107
202
161
107
202
163
106
202
164
106
202
166
105
203
167
106
202
169
107
202
170
107
202
171
107
202
172
107
203
174
106
202
176
107
203
177
106
202
178
106
202
180
106
202
181
105
202
183
105
202
184
105
202
186
105
202
187
105
202
188
106
202
190
105
202
191
105
202
192
105
203
105
107
205
105
106
204
107
107
204
108
107
203
110
107
204
112
107
205
113
107
204
114
107
204
116
107
204
117
106
205
119
107
205
121
107
204
121
107
204
122
107
204
124
107
203
126
107
204
127
107
204
128
106
203
130
106
204
131
106
204
132
106
204
134
105
203
135
105
204
137
105
204
138
105
204
140
105
204
141
105
203
142
105
204
144
105
205
145
105
204
146
105
204
148
105
204
150
105
205
151
105
204
151
105
204
154
105
203
155
105
204
156
105
204
158
105
204
159
105
204
161
105
204
162
105
204
163
105
204
165
105
204
166
105
203
168
105
204
169
105
204
171
105
204
171
105
203
172
105
204
175
105
204
176
105
204
176
105
204
179
105
204
181
105
204
181
105
204
182
105
204
185
104
204
186
104
203
187
104
204
189
104
204
189
104
204
192
104
203
192
104
203
105
105
206
105
105
206
107
105
206
109
105
206
110
105
206
112
105
205
113
105
206
114
105
205
116
105
206
118
105
206
119
105
206
121
105
206
122
105
206
122
105
205
124
105
206
126
105
206
126
105
206
129
105
206
130
105
206
131
105
206
132
105
206
135
104
206
136
105
205
136
104
206
139
104
206
139
104
206
141
104
206
142
105
205
143
104
206
146
104
206
147
104
206
148
104
206
150
104
206
151
104
206
152
104
206
153
104
206
156
103
206
156
103
206
157
103
206
160
103
206
160
103
206
162
103
206
164
104
206
165
103
206
166
103
206
167
103
206
170
103
206
170
103
205
172
103
206
173
103
206
174
103
205
176
103
206
177
103
206
179
103
206
181
103
206
182
102
206
182
102
206
184
102
206
186
102
206
187
102
206
188
102
206
191
102
206
191
102
206
193
102
206
