P3
#thjfh
64 64
255
255
255
255
255
255
255
255
255
255
255
255
255
255
255
255
255
255
255
255
255
255
255
255
255
255
255
255
255
255
255
255
255
255
255
255
255
255
255
255
255
255
255
255
255
255
255
255
255
255
255
255
255
255
255
255
255
255
255
255
255
255
255
255
255
255
255
255
255
255
255
255
255
255
255
255
255
255
255
255
255
255
255
255
255
255
255
255
255
255
255
255
255
255
255
255
255
255
255
255
255
255
255
255
255
255
255
255
255
255
255
255
255
255
255
255
255
255
255
255
255
255
255
255
255
255
255
255
255
255
255
255
255
255
255
255
255
255
255
255
255
255
255
255
255
255
255
255
255
255
255
255
255
255
255
255
255
255
255
255
255
255
255
255
255
255
255
255
255
255
255
255
255
255
255
255
255
255
255
255
255
255
255
255
255
255
255
255
255
255
255
255
255
255
255
255
255
255
255
255
255
255
255
255
255
255
255
255
255
255
255
255
255
255
255
255
255
255
255
255
255
255
255
255
255
255
255
255
255
255
255
255
255
255
255
255
255
255
255
255
255
255
255
255
255
255
255
255
255
255
255
255
255
255
255
255
255
255
255
255
255
255
255
255
255
255
255
255
255
255
255
255
255
255
255
255
255
255
255
255
255
255
255
255
255
255
255
255
255
255
255
255
255
255
255
255
255
255
255
255
255
255
255
255
255
255
255
255
255
255
255
255
255
255
255
255
255
255
255
255
255
255
255
255
255
255
255
255
255
255
255
255
255
255
255
255
255
255
255
255
255
255
255
255
255
255
255
255
255
255
255
255
255
255
255
255
255
255
255
255
255
255
255
255
255
255
255
255
255
255
255
255
255
255
255
255
255
255
255
255
255
255
255
255
255
255
255
255
255
255
255
255
255
255
255
255
255
255
255
255
255
255
255
255
255
255
255
255
255
255
255
255
255
255
255
255
255
255
255
255
255
255
255
255
255
255
255
255
255
255
255
255
255
255
255
255
255
255
255
255
255
255
255
255
255
255
255
255
255
255
255
255
255
255
255
255
255
255
255
255
255
255
255
255
255
255
255
255
255
255
255
255
255
255
255
255
255
255
255
255
255
255
255
255
255
255
255
255
255
255
255
255
255
255
255
255
255
255
255
255
255
255
255
255
255
255
255
255
255
255
255
255
255
255
255
255
255
255
255
255
255
255
255
255
255
255
255
255
255
255
255
255
255
255
255
255
255
255
255
255
255
255
255
255
255
255
255
255
255
255
255
255
255
255
255
255
255
255
255
255
255
255
255
255
255
255
255
255
255
255
255
255
255
255
255
255
255
255
255
255
255
255
255
255
255
255
255
255
255
255
255
255
255
255
255
255
255
255
255
255
255
255
255
255
255
255
255
255
255
255
255
255
255
255
255
255
255
255
255
255
255
255
255
255
255
255
255
255
255
255
255
255
255
255
255
255
255
255
255
255
255
255
255
255
255
255
255
255
255
255
255
255
255
255
255
254
254
254
252
253
252
249
251
249
248
250
248
247
249
247
247
249
247
247
249
247
248
250
248
249
251
249
252
253
252
254
254
254
255
255
255
255
255
255
255
255
255
255
255
255
255
255
255
255
255
255
255
255
255
255
255
255
255
255
255
255
255
255
255
255
255
255
255
255
255
255
255
255
255
255
255
255
255
255
255
255
255
255
255
255
255
255
255
255
255
255
255
255
255
255
255
255
255
255
255
255
255
255
255
255
255
255
255
255
255
255
255
255
255
255
255
255
255
255
255
255
255
255
255
255
255
255
255
255
255
255
255
255
255
255
255
255
255
255
255
255
255
255
255
255
255
255
255
255
255
255
255
255
255
255
255
255
255
255
255
255
255
254
254
254
253
253
253
252
252
252
249
249
249
247
247
247
241
241
241
237
237
237
237
237
237
173
189
175
104
142
109
72
121
77
53
107
58
39
95
45
27
89
34
19
82
25
18
82
24
20
83
26
28
89
34
39
98
45
55
109
61
74
122
80
105
141
109
171
184
172
224
224
224
226
226
226
232
232
232
239
239
239
244
244
244
248
248
248
251
251
251
253
253
253
254
254
254
254
254
254
255
255
255
255
255
255
255
255
255
255
255
255
255
255
255
255
255
255
255
255
255
255
255
255
255
255
255
255
255
255
255
255
255
255
255
255
255
255
255
255
255
255
255
255
255
255
255
255
255
255
255
255
255
255
255
255
255
255
255
255
255
255
255
255
255
255
255
255
255
255
255
255
255
255
255
255
255
255
255
255
255
255
255
255
255
255
255
254
254
254
254
254
254
252
252
252
250
250
250
246
246
246
242
242
242
246
246
246
170
189
172
113
150
116
107
148
110
90
136
95
72
122
77
51
109
56
37
98
44
25
89
31
16
83
22
12
81
19
11
80
17
15
82
22
21
86
27
30
93
35
42
102
48
57
112
62
74
125
78
91
138
97
109
147
112
111
149
115
168
184
168
231
231
231
231
231
231
238
238
238
244
244
244
248
248
248
251
251
251
253
253
253
254
254
254
254
254
254
255
255
255
255
255
255
255
255
255
255
255
255
255
255
255
255
255
255
255
255
255
255
255
255
255
255
255
255
255
255
255
255
255
255
255
255
255
255
255
255
255
255
255
255
255
255
255
255
255
255
255
255
255
255
255
255
255
255
255
255
255
255
255
255
255
255
255
255
255
255
255
255
255
255
255
254
254
254
254
254
254
253
253
253
251
251
251
248
248
248
243
243
243
244
244
244
157
182
160
110
152
114
116
155
119
109
151
113
106
148
110
163
189
165
154
183
156
176
198
178
176
199
178
158
186
161
153
183
155
144
174
147
122
160
126
99
145
103
56
114
62
19
88
26
30
96
36
45
106
50
59
116
63
74
127
78
91
138
96
109
152
114
117
157
121
109
151
113
152
175
153
228
228
228
230
230
230
239
239
239
245
245
245
250
250
250
252
252
252
253
253
253
254
254
254
255
255
255
255
255
255
255
255
255
255
255
255
255
255
255
255
255
255
255
255
255
255
255
255
255
255
255
255
255
255
255
255
255
255
255
255
255
255
255
255
255
255
255
255
255
255
255
255
255
255
255
255
255
255
255
255
255
255
255
255
255
255
255
255
255
255
255
255
255
254
254
254
254
254
254
252
252
252
250
250
250
245
245
245
250
250
250
181
198
183
106
150
110
112
154
116
137
171
140
186
206
187
215
226
216
234
240
235
223
233
224
214
225
214
201
217
202
190
209
191
183
203
184
175
199
177
170
195
172
165
192
168
162
190
165
164
191
166
153
182
156
116
156
121
57
116
63
43
106
49
57
116
62
71
127
76
86
136
91
100
147
104
118
159
122
115
157
120
107
149
111
169
185
170
228
228
228
232
232
232
241
241
241
247
247
247
251
251
251
254
254
254
254
254
254
255
255
255
255
255
255
255
255
255
255
255
255
255
255
255
255
255
255
255
255
255
255
255
255
255
255
255
255
255
255
255
255
255
255
255
255
255
255
255
255
255
255
255
255
255
255
255
255
255
255
255
255
255
255
255
255
255
255
255
255
255
255
255
254
254
254
254
254
254
252
252
252
248
248
248
243
243
243
224
227
224
135
170
139
97
146
101
138
173
141
211
224
212
255
255
255
242
246
244
235
241
236
228
236
228
221
231
222
213
225
214
205
219
206
196
214
198
191
210
193
183
205
185
179
202
180
174
199
177
170
196
172
165
193
168
163
191
165
162
190
165
163
191
165
115
157
119
55
117
61
52
115
58
65
124
70
78
133
83
92
142
96
106
152
110
115
157
119
101
148
107
133
165
135
204
206
204
225
225
225
237
237
237
246
246
246
250
250
250
253
253
253
254
254
254
255
255
255
255
255
255
255
255
255
255
255
255
255
255
255
255
255
255
255
255
255
255
255
255
255
255
255
255
255
255
255
255
255
255
255
255
255
255
255
255
255
255
255
255
255
255
255
255
255
255
255
255
255
255
255
255
255
255
255
255
254
254
254
251
251
251
247
247
247
243
243
243
215
221
215
104
152
109
99
148
103
187
208
190
250
251
250
242
246
243
240
244
241
236
242
236
232
239
233
224
234
225
219
230
220
212
225
213
206
221
207
201
217
203
193
212
194
190
210
191
184
206
186
180
203
182
175
201
178
172
198
174
168
196
170
165
193
167
161
191
163
159
189
161
158
189
161
72
130
78
44
111
50
58
121
66
70
129
76
83
139
89
97
147
102
109
154
113
93
145
98
105
150
108
191
196
192
221
221
221
234
234
234
244
244
244
249
249
249
253
253
253
254
254
254
255
255
255
255
255
255
255
255
255
255
255
255
255
255
255
255
255
255
255
255
255
255
255
255
255
255
255
255
255
255
255
255
255
255
255
255
255
255
255
255
255
255
255
255
255
255
255
255
255
255
255
254
254
254
254
254
254
251
251
251
247
247
247
241
241
241
185
202
186
102
152
107
107
156
111
210
223
210
243
247
244
237
243
238
236
242
237
234
241
234
231
239
231
228
236
228
222
232
224
216
229
217
210
224
211
204
221
205
199
217
201
194
214
195
190
211
191
186
208
188
182
206
184
178
203
180
175
200
177
170
198
172
167
195
170
163
193
165
159
189
162
156
188
159
163
192
165
88
143
93
39
110
46
50
117
56
62
126
67
74
134
79
90
144
95
98
149
103
88
143
93
104
154
108
165
179
166
216
216
216
231
231
231
243
243
243
249
249
249
253
253
253
254
254
254
255
255
255
255
255
255
255
255
255
255
255
255
255
255
255
255
255
255
255
255
255
255
255
255
255
255
255
255
255
255
255
255
255
255
255
255
255
255
255
255
255
255
255
255
255
254
254
254
254
254
254
251
251
251
247
247
247
240
240
240
173
195
176
101
153
106
126
170
131
230
238
230
229
237
229
230
238
232
231
239
231
231
239
231
229
237
229
224
234
225
223
233
224
217
229
218
212
226
213
206
223
208
204
221
205
198
216
200
194
214
195
189
211
191
185
208
187
182
206
184
178
202
180
174
201
176
170
199
173
166
196
168
161
193
164
159
191
162
154
187
158
152
186
155
153
187
156
67
130
73
34
110
42
45
115
51
56
124
63
69
131
73
84
141
89
83
142
89
86
143
91
104
155
109
152
172
154
211
211
211
230
230
230
242
242
242
249
249
249
253
253
253
254
254
254
255
255
255
255
255
255
255
255
255
255
255
255
255
255
255
255
255
255
255
255
255
255
255
255
255
255
255
255
255
255
255
255
255
255
255
255
255
255
255
254
254
254
254
254
254
252
252
252
247
247
247
240
240
240
185
202
187
101
155
106
142
181
146
215
228
216
219
231
220
223
234
224
224
234
225
225
235
226
224
234
225
223
233
224
219
231
220
215
228
216
211
226
212
207
224
208
202
220
204
197
217
199
193
215
195
190
212
192
186
209
188
184
207
185
179
205
182
175
202
178
171
200
174
167
197
171
163
195
166
160
192
163
156
190
159
152
187
155
148
185
151
144
182
147
140
180
143
47
119
56
31
108
38
40
114
49
50
122
57
64
131
71
81
141
87
72
137
78
85
146
90
102
156
107
158
172
160
210
210
210
230
230
230
243
243
243
249
249
249
253
253
253
254
254
254
255
255
255
255
255
255
255
255
255
255
255
255
255
255
255
255
255
255
255
255
255
255
255
255
255
255
255
255
255
255
255
255
255
255
255
255
254
254
254
252
252
252
248
248
248
241
241
241
221
224
221
104
157
108
115
164
120
203
221
204
208
225
210
214
228
215
216
229
217
219
231
220
217
230
218
217
230
217
216
230
216
211
227
213
208
224
210
203
221
205
199
219
200
196
216
198
193
215
195
188
212
190
185
209
187
182
207
183
177
205
180
174
202
177
170
200
172
166
198
169
164
196
167
159
193
162
155
190
158
151
188
153
148
186
151
143
183
147
139
180
143
138
179
142
118
166
123
19
104
27
28
109
35
36
114
43
48
122
53
61
131
69
70
137
76
70
136
76
86
147
92
105
157
109
185
185
185
211
211
211
232
232
232
244
244
244
250
250
250
254
254
254
254
254
254
255
255
255
255
255
255
255
255
255
255
255
255
255
255
255
255
255
255
255
255
255
255
255
255
255
255
255
255
255
255
254
254
254
253
253
253
250
250
250
243
243
243
222
226
223
106
161
112
94
153
99
189
212
192
195
217
197
205
222
207
209
225
211
211
227
212
211
227
213
211
227
213
211
227
212
207
224
208
203
221
205
201
221
203
197
218
199
193
215
195
190
213
192
186
211
188
183
208
185
180
207
182
175
204
177
173
203
175
168
200
172
165
198
168
162
196
165
157
192
160
153
191
157
151
188
154
146
186
149
142
183
146
138
181
142
134
178
138
131
176
135
131
175
135
44
123
52
18
105
26
25
110
33
34
116
42
46
123
54
62
133
67
57
130
64
72
140
79
89
150
95
107
160
112
183
184
183
215
215
215
234
234
234
246
246
246
251
251
251
253
253
253
255
255
255
255
255
255
255
255
255
255
255
255
255
255
255
255
255
255
255
255
255
255
255
255
255
255
255
255
255
255
254
254
254
251
251
251
245
245
245
244
244
244
133
176
138
93
155
97
160
196
163
187
213
189
195
217
197
200
221
202
203
222
205
205
224
207
206
224
207
205
223
207
203
222
205
199
220
201
197
218
199
194
216
196
189
214
191
187
212
189
182
210
185
180
208
182
175
204
177
171
202
175
168
201
171
166
199
169
161
196
166
158
194
161
155
192
158
151
190
155
149
188
152
144
186
148
140
183
144
136
181
140
132
179
136
128
176
132
125
174
129
121
171
126
111
165
116
12
105
21
16
106
26
25
112
34
34
117
42
46
126
54
53
129
60
59
134
65
76
144
81
94
155
101
119
158
123
196
196
196
220
220
220
238
238
238
248
248
248
253
253
253
254
254
254
255
255
255
255
255
255
255
255
255
255
255
255
255
255
255
255
255
255
255
255
255
255
255
255
255
255
255
252
252
252
248
248
248
239
239
239
185
204
187
100
161
104
108
165
114
189
214
191
186
212
188
194
217
195
197
219
200
200
221
201
200
221
202
200
220
201
197
219
199
196
218
198
192
216
194
189
214
191
186
212
188
184
211
186
180
209
183
177
206
180
173
204
176
169
202
172
165
200
168
162
198
165
158
195
161
155
194
158
152
191
155
148
189
151
144
186
149
141
184
145
137
182
141
133
180
137
131
179
135
127
176
131
123
174
128
121
172
126
116
169
121
111
167
116
15
109
23
11
106
20
17
110
26
25
114
33
35
121
43
45
126
53
48
128
56
63
138
70
81
149
87
105
163
110
152
165
153
201
201
201
227
227
227
242
242
242
250
250
250
254
254
254
255
255
255
255
255
255
255
255
255
255
255
255
255
255
255
255
255
255
255
255
255
255
255
255
255
255
255
250
250
250
243
243
243
234
234
234
107
164
112
86
154
93
174
206
177
181
210
184
184
212
187
192
217
194
193
217
195
195
218
198
194
218
196
193
217
195
191
216
194
188
215
191
187
213
189
182
211
185
180
210
182
177
207
180
173
206
176
170
203
173
167
201
169
162
199
165
158
197
162
157
196
159
152
193
155
150
191
153
145
189
150
141
186
145
137
184
142
134
182
138
131
180
135
127
177
131
123
176
128
120
173
125
116
171
122
111
168
117
107
166
113
107
166
113
27
119
34
6
106
16
12
110
21
18
113
27
26
117
36
37
124
45
38
125
46
53
134
60
70
144
77
89
155
95
104
159
109
178
178
178
211
211
211
234
234
234
246
246
246
252
252
252
254
254
254
255
255
255
255
255
255
255
255
255
255
255
255
255
255
255
255
255
255
255
255
255
255
255
255
246
246
246
237
237
237
163
193
165
93
159
99
101
164
105
179
209
181
180
210
184
184
212
187
189
216
191
189
216
192
189
216
192
188
215
190
187
214
189
185
214
187
183
212
186
179
210
183
175
207
178
174
206
177
170
204
173
167
202
170
163
199
166
159
197
162
156
197
159
152
194
155
150
192
154
145
189
149
140
186
145
138
185
142
135
183
138
131
181
136
126
179
131
124
177
128
120
175
126
116
173
121
114
171
120
110
168
115
106
166
111
101
164
107
97
162
103
66
144
74
3
107
13
6
109
16
12
111
21
19
114
28
30
122
39
31
123
40
44
130
52
59
140
68
78
151
83
101
164
108
135
157
136
191
191
191
222
222
222
241
241
241
250
250
250
253
253
253
255
255
255
255
255
255
255
255
255
255
255
255
255
255
255
255
255
255
255
255
255
255
255
255
242
242
242
238
238
238
103
164
109
76
151
83
151
193
155
173
207
177
177
209
181
182
212
184
184
214
188
187
215
189
183
213
185
182
212
185
181
211
184
179
210
182
176
208
180
171
205
175
168
204
172
164
201
168
162
200
165
160
198
163
154
197
157
152
195
156
148
192
153
145
191
149
141
189
144
137
186
141
134
184
138
132
182
137
126
180
131
124
179
129
120
176
126
116
174
122
113
173
119
110
170
115
106
168
111
102
167
108
100
164
106
96
163
102
92
160
98
74
149
81
1
110
11
3
109
12
9
112
19
14
115
25
23
120
31
24
122
33
36
128
45
50
137
60
69
146
76
88
158
94
104
161
109
175
175
175
207
207
207
233
233
233
246
246
246
252
252
252
254
254
254
255
255
255
255
255
255
255
255
255
255
255
255
255
255
255
255
255
255
255
255
255
236
236
236
168
195
171
87
159
94
73
152
81
175
208
177
172
207
175
176
210
179
177
211
180
180
212
183
180
212
184
179
211
183
176
210
179
175
209
178
171
207
175
168
204
171
165
203
169
162
201
166
157
199
160
155
197
161
152
196
156
148
194
153
143
191
148
141
189
145
137
187
142
134
185
139
130
183
134
128
182
133
123
179
128
119
177
124
117
175
124
114
174
120
109
171
115
106
169
112
102
167
108
100
165
106
96
164
102
91
161
98
87
159
94
84
158
91
64
147
72
0
111
10
3
111
13
5
113
15
9
115
19
17
120
27
20
121
30
31
128
40
43
135
52
59
144
67
79
154
86
104
170
110
130
150
133
189
189
189
222
222
222
241
241
241
250
250
250
254
254
254
255
255
255
255
255
255
255
255
255
255
255
255
255
255
255
255
255
255
255
255
255
230
230
230
112
171
117
72
153
78
78
156
86
175
209
178
171
207
175
173
208
176
174
210
178
177
210
180
174
209
178
173
209
176
169
207
173
168
206
172
165
204
168
160
202
163
158
200
162
155
199
159
152
197
156
148
195
152
146
193
150
140
189
144
136
188
141
134
187
139
131
184
136
127
182
133
123
181
128
120
179
125
116
177
121
113
175
120
109
173
115
106
171
112
102
169
108
100
167
106
96
166
102
92
164
98
88
161
95
84
159
91
81
159
89
78
155
85
58
146
67
1
113
11
2
114
12
4
114
14
6
116
17
12
119
22
16
121
23
25
126
35
37
133
46
52
142
61
71
152
79
93
164
98
114
158
119
171
171
171
209
209
209
234
234
234
247
247
247
253
253
253
254
254
254
255
255
255
255
255
255
255
255
255
255
255
255
255
255
255
255
255
255
230
230
230
75
154
82
58
147
66
96
167
104
167
206
170
167
206
171
169
207
173
170
207
174
171
208
174
168
206
172
167
205
170
164
204
168
161
202
165
157
201
161
154
199
158
152
197
156
147
196
151
144
193
148
141
192
145
137
189
142
134
187
138
130
185
136
128
184
132
122
182
128
119
180
125
117
178
122
113
176
119
110
175
116
105
172
111
101
171
108
100
169
106
95
167
102
91
165
98
88
163
94
84
162
92
81
159
88
77
157
85
74
155
82
70
154
78
48
142
56
0
115
11
1
116
12
3
116
14
5
118
15
9
120
20
13
122
23
21
126
31
32
132
42
46
141
55
64
150
72
85
162
93
103
169
109
157
157
157
195
195
195
226
226
226
244
244
244
252
252
252
254
254
254
255
255
255
255
255
255
255
255
255
255
255
255
255
255
255
255
255
255
167
191
170
60
151
69
45
142
55
103
173
110
162
204
167
164
205
168
165
206
169
164
205
168
164
205
168
163
205
167
159
203
163
157
201
161
154
200
158
151
198
156
147
196
152
144
195
148
140
193
144
137
191
142
134
189
139
131
187
136
127
185
132
122
183
127
120
181
126
117
180
123
113
178
119
108
175
115
106
174
112
102
172
108
98
170
105
95
168
102
90
166
96
88
164
95
84
163
92
81
162
88
77
159
85
73
157
80
70
155
78
68
154
76
63
152
72
24
131
35
0
118
11
1
118
12
2
119
13
4
120
15
7
121
16
11
124
22
18
127
28
28
134
38
41
139
50
58
149
67
79
160
86
105
176
112
119
138
121
179
179
179
217
217
217
239
239
239
250
250
250
254
254
254
255
255
255
255
255
255
255
255
255
255
255
255
255
255
255
255
255
255
99
164
105
46
146
56
34
139
43
98
172
105
156
202
160
158
203
163
160
205
163
159
204
163
159
203
163
156
202
160
154
201
158
150
199
155
148
197
153
145
196
150
140
193
145
136
191
142
133
190
139
130
189
136
125
186
130
122
184
129
120
183
125
117
181
124
113
179
120
108
177
114
105
176
111
102
173
108
98
172
105
95
170
102
91
167
98
88
167
96
84
164
92
80
162
88
77
160
85
73
160
81
70
157
78
67
156
75
62
153
71
59
152
68
56
150
65
10
125
21
0
121
11
1
121
12
2
120
13
3
122
14
5
122
17
9
125
20
16
129
27
25
134
35
38
139
47
53
148
62
73
158
80
97
171
104
111
153
115
163
163
163
207
207
207
234
234
234
248
248
248
253
253
253
255
255
255
255
255
255
255
255
255
255
255
255
255
255
255
255
255
255
57
149
66
35
141
42
25
136
35
101
175
108
150
200
155
153
202
159
153
202
156
153
201
157
150
200
155
149
200
153
146
198
151
143
196
148
140
195
146
137
192
142
134
191
139
131
190
136
126
187
131
123
186
128
118
184
124
115
182
122
111
180
118
110
178
116
105
176
111
102
175
109
99
174
106
95
171
102
90
168
97
88
168
94
84
166
92
80
164
88
77
163
85
74
161
82
69
158
77
67
158
76
62
156
70
60
153
69
55
151
64
52
150
62
49
149
58
1
123
12
0
123
11
1
123
12
1
124
12
2
125
14
4
125
16
8
126
19
14
130
25
22
134
33
34
140
46
49
148
59
68
158
79
91
169
98
110
165
116
150
150
150
197
197
197
228
228
228
246
246
246
252
252
252
255
255
255
255
255
255
255
255
255
255
255
255
255
255
255
255
255
255
40
143
48
25
138
36
18
134
29
79
165
87
149
200
154
147
200
152
147
200
152
146
199
150
145
199
150
142
197
147
139
195
144
136
194
142
133
192
138
130
191
136
126
189
130
122
187
128
119
185
125
115
183
122
113
182
119
108
179
114
106
179
112
102
176
109
98
175
105
94
173
102
91
171
99
87
169
94
84
168
92
81
167
89
76
164
85
73
162
81
70
161
78
66
159
75
63
157
72
58
156
67
56
154
66
52
152
62
49
150
58
46
149
56
27
139
37
0
126
12
0
126
12
0
126
12
1
125
13
2
127
14
4
128
16
7
130
18
13
131
24
20
137
31
32
141
42
47
149
56
65
158
73
87
170
95
105
170
110
140
140
140
185
185
185
223
223
223
242
242
242
251
251
251
254
254
254
255
255
255
255
255
255
255
255
255
255
255
255
255
255
255
26
138
36
17
137
28
14
135
25
41
147
51
148
201
153
142
198
147
141
197
146
141
197
147
137
195
142
135
195
141
132
193
136
129
191
136
126
190
132
121
188
127
119
187
125
115
185
122
111
183
118
107
181
113
104
179
111
101
177
108
98
176
105
94
175
102
91
173
99
87
171
95
84
170
92
80
168
88
77
165
86
73
164
82
69
162
78
67
161
76
63
159
72
59
157
68
54
154
63
52
154
62
49
152
59
44
150
54
42
149
52
38
147
48
5
129
17
0
128
12
0
128
12
0
128
12
1
129
13
1
129
13
4
130
16
6
130
18
11
133
22
20
138
31
30
143
41
44
150
54
62
159
71
84
170
92
104
176
111
129
129
129
176
176
176
217
217
217
240
240
240
250
250
250
254
254
254
255
255
255
255
255
255
255
255
255
255
255
255
255
255
255
15
136
26
13
136
25
10
136
22
20
140
31
129
193
135
133
195
139
133
195
139
133
195
137
131
194
137
129
193
135
125
191
131
122
188
128
118
188
125
116
186
123
112
184
119
109
183
116
104
181
111
102
179
109
98
178
106
95
177
102
91
174
99
87
173
95
83
171
91
80
170
89
76
167
85
73
166
80
70
164
79
66
164
75
62
161
71
58
160
68
56
158
65
51
155
61
49
154
59
46
153
56
42
151
52
37
150
48
33
147
44
22
142
33
0
132
12
0
132
12
0
130
12
0
130
12
1
131
13
1
131
13
3
133
15
6
134
18
11
137
23
19
141
31
29
143
40
42
152
52
61
159
71
82
170
90
105
182
112
119
119
119
168
168
168
212
212
212
237
237
237
249
249
249
254
254
254
255
255
255
255
255
255
255
255
255
255
255
255
255
255
255
12
138
24
9
137
21
8
136
20
2
134
14
105
183
113
129
194
135
129
193
135
126
193
132
124
191
130
121
190
128
119
189
125
114
187
122
112
186
119
108
184
115
104
182
111
102
181
109
98
179
106
94
178
102
91
176
101
87
175
95
83
172
92
81
171
89
75
169
85
73
168
82
69
166
78
66
165
76
62
163
73
58
160
69
55
161
63
51
157
61
49
156
59
45
154
55
42
154
53
37
152
48
34
149
45
30
148
43
26
146
38
1
133
13
0
134
13
0
134
13
0
134
13
0
134
13
1
133
13
1
133
13
3
134
15
6
136
18
10
138
22
18
141
30
28
146
39
42
153
52
60
161
69
82
172
89
107
186
114
112
112
112
161
161
161
207
207
207
235
235
235
249
249
249
254
254
254
255
255
255
255
255
255
255
255
255
255
255
255
255
255
255
10
141
23
8
139
21
6
139
19
4
138
17
36
152
47
126
193
132
120
191
127
120
191
127
117
189
124
116
189
123
112
187
119
107
185
115
105
184
112
101
182
109
98
181
106
94
178
101
91
178
99
86
176
95
84
173
92
80
173
89
76
171
84
72
169
81
69
168
79
67
167
76
63
165
73
58
164
68
55
161
65
51
159
61
48
158
59
45
156
55
41
155
52
38
153
49
34
151
45
31
150
42
27
148
38
25
147
37
9
140
21
0
136
13
0
136
13
0
136
13
0
136
13
0
136
13
1
136
14
1
136
14
3
137
16
6
138
18
10
139
23
18
144
30
28
148
39
41
154
51
60
164
69
80
173
89
107
188
115
106
106
106
156
156
156
204
204
204
234
234
234
248
248
248
254
254
254
255
255
255
255
255
255
255
255
255
255
255
255
255
255
255
13
144
25
10
144
23
8
142
21
5
141
19
3
139
16
112
189
119
117
190
124
112
189
119
110
188
117
109
187
115
104
185
111
100
184
108
97
182
105
93
180
101
90
178
98
86
178
95
84
175
92
80
175
88
76
174
86
72
171
82
68
169
78
66
169
76
62
167
72
58
165
68
55
163
65
52
162
62
48
161
59
44
159
55
41
157
52
37
155
48
34
154
45
30
153
42
26
150
38
24
149
36
21
148
33
10
143
23
0
139
12
0
139
13
0
139
13
0
138
13
0
139
13
0
139
13
1
139
14
1
138
14
3
140
16
6
141
19
11
144
24
18
147
30
28
151
40
42
158
53
60
166
71
81
176
90
107
188
114
103
103
103
153
153
153
202
202
202
233
233
233
248
248
248
254
254
254
255
255
255
255
255
255
255
255
255
255
255
255
255
255
255
16
147
29
13
148
25
11
145
24
8
144
20
5
143
17
22
150
34
110
189
117
106
188
114
103
186
111
100
185
108
98
184
106
94
182
102
90
180
99
87
179
95
84
177
92
80
176
89
76
176
86
73
173
83
68
172
77
65
170
75
62
169
71
58
166
68
54
165
64
51
163
62
48
163
59
44
161
55
41
159
52
37
157
49
33
156
45
30
154
42
27
152
39
23
150
35
20
149
32
16
149
29
10
145
22
0
142
12
0
142
13
0
142
13
0
141
13
0
141
13
0
141
13
0
141
13
1
142
14
1
142
14
3
142
16
6
143
19
11
146
24
19
149
31
29
154
41
43
160
54
61
168
71
83
178
92
105
187
113
102
102
102
153
153
153
202
202
202
233
233
233
248
248
248
254
254
254
255
255
255
255
255
255
255
255
255
255
255
255
255
255
255
27
152
38
19
152
32
15
150
28
11
147
24
8
147
21
5
146
18
36
159
48
100
186
108
96
185
104
93
183
100
90
182
99
85
180
94
83
179
92
80
178
89
76
176
86
72
175
82
68
173
78
65
173
75
60
170
71
58
169
68
54
167
65
51
166
63
48
165
59
44
163
55
40
161
51
36
159
48
33
157
45
30
158
43
27
154
39
23
153
35
20
153
33
16
151
29
12
150
26
6
146
19
0
144
13
0
145
14
0
145
14
0
144
14
0
144
14
0
144
14
0
144
14
0
144
14
1
143
14
2
144
15
4
146
17
7
147
20
11
148
24
20
152
33
30
157
42
45
163
56
63
172
72
85
180
94
102
183
110
102
102
102
153
153
153
202
202
202
233
233
233
248
248
248
254
254
254
255
255
255
255
255
255
255
255
255
255
255
255
255
255
255
41
158
52
27
158
39
21
155
34
16
153
29
11
151
24
8
150
21
5
149
19
61
172
72
93
184
102
85
182
95
83
181
92
79
179
88
75
178
85
71
176
81
68
175
78
65
174
76
62
172
73
59
171
70
55
169
66
51
168
62
48
167
59
44
164
55
40
163
51
37
161
49
34
160
46
30
158
42
27
159
39
22
155
34
19
154
32
15
152
28
13
152
26
7
150
20
4
148
17
0
146
14
0
146
14
0
146
14
0
146
14
0
146
14
0
146
14
0
146
14
0
146
14
0
146
14
1
147
15
2
147
17
4
148
18
7
149
20
13
151
26
21
155
34
32
159
44
47
167
58
65
174
76
88
184
97
101
176
108
104
104
104
156
156
156
204
204
204
234
234
234
248
248
248
254
254
254
255
255
255
255
255
255
255
255
255
255
255
255
255
255
255
58
166
68
37
164
49
29
161
42
22
159
35
15
154
28
11
153
24
7
151
21
3
150
17
42
167
54
82
182
91
74
179
84
72
178
82
68
177
79
65
175
74
62
174
73
58
172
69
54
172
65
50
170
61
48
168
59
43
168
55
41
166
53
36
165
48
33
161
45
30
160
42
27
159
39
23
158
36
19
156
32
15
155
28
12
155
26
7
152
21
5
151
19
1
149
15
0
150
14
0
148
14
0
149
14
0
150
14
0
150
14
0
148
14
0
150
14
0
150
14
0
150
14
1
149
15
1
149
15
2
150
16
5
151
19
9
152
22
14
154
27
23
159
36
35
163
47
50
170
61
69
178
80
92
186
100
103
164
108
107
107
107
161
161
161
207
207
207
235
235
235
249
249
249
254
254
254
255
255
255
255
255
255
255
255
255
255
255
255
255
255
255
95
166
102
49
172
61
38
167
50
30
163
42
22
160
35
15
158
28
10
156
20
6
154
20
4
154
18
14
157
27
66
177
76
66
178
77
61
176
72
57
175
68
53
173
64
50
172
62
47
170
59
44
169
56
40
167
52
36
166
48
34
164
46
30
164
43
25
161
38
22
160
35
19
158
32
16
159
30
12
156
26
9
156
23
5
153
19
2
152
16
0
152
14
0
152
14
0
152
14
0
152
14
0
152
14
0
152
14
0
152
14
0
152
14
0
152
14
0
152
14
0
152
14
1
153
15
2
152
16
3
152
17
6
153
20
9
155
23
16
158
29
26
162
39
38
167
50
54
173
65
74
181
84
99
193
107
87
137
91
113
113
113
167
167
167
212
212
212
238
238
238
250
250
250
254
254
254
255
255
255
255
255
255
255
255
255
255
255
255
255
255
255
149
168
150
63
181
74
49
174
61
38
168
50
28
165
41
20
162
34
13
160
27
9
157
23
5
155
19
3
155
17
2
155
16
20
162
33
52
174
63
53
174
64
47
172
59
43
170
55
39
170
52
36
168
49
33
166
45
30
166
43
26
164
39
22
163
35
18
162
32
15
160
29
11
158
25
9
158
23
5
155
19
1
155
15
0
154
14
0
154
14
0
155
15
0
154
14
0
154
14
0
154
14
0
154
14
0
154
14
0
154
14
0
154
14
0
154
14
0
154
14
0
154
14
1
155
15
2
154
16
4
155
18
7
156
21
11
159
22
19
161
32
29
165
42
42
171
54
59
178
70
80
185
90
108
200
117
73
88
73
123
123
123
177
177
177
217
217
217
240
240
240
250
250
250
254
254
254
255
255
255
255
255
255
255
255
255
255
255
255
255
255
255
184
184
184
78
182
87
61
180
73
48
175
60
36
170
48
25
166
38
17
163
31
12
162
26
7
159
21
4
158
19
2
158
17
1
157
16
1
156
15
9
160
23
22
165
35
28
167
42
32
169
45
30
168
42
27
166
40
24
166
37
20
164
33
16
163
30
11
161
25
8
160
22
3
157
18
0
158
15
0
157
15
0
158
15
0
158
15
0
157
15
0
157
15
0
158
15
0
158
15
0
158
15
0
156
15
0
157
15
0
158
15
0
158
15
0
158
15
0
157
15
1
157
16
2
157
16
2
158
17
5
158
19
9
160
23
14
162
28
22
165
35
33
169
46
47
174
60
65
181
77
86
189
97
99
184
107
85
85
85
135
135
135
186
186
186
223
223
223
243
243
243
251
251
251
255
255
255
255
255
255
255
255
255
255
255
255
255
255
255
255
255
255
189
189
189
107
181
114
75
186
86
59
181
70
44
175
57
32
171
45
22
166
36
15
165
29
10
162
24
6
161
21
3
161
18
2
159
17
1
160
16
0
160
15
0
159
14
0
160
14
1
159
16
3
160
17
2
161
17
3
160
18
2
160
17
2
159
17
0
159
15
0
160
15
0
159
15
0
159
15
0
159
15
0
159
15
0
159
15
0
160
15
0
159
15
0
159
15
0
159
15
0
159
15
0
159
15
0
159
15
0
159
15
0
159
15
0
159
15
1
161
16
1
160
16
2
159
17
4
160
19
6
161
21
10
163
24
17
166
31
26
169
39
38
173
51
53
180
66
73
186
83
95
194
105
87
143
92
95
95
95
148
148
148
197
197
197
230
230
230
246
246
246
252
252
252
255
255
255
255
255
255
255
255
255
255
255
255
255
255
255
255
255
255
199
199
199
144
167
146
90
197
100
70
187
81
54
181
66
39
175
53
28
172
42
19
169
33
12
166
27
8
165
23
5
163
20
3
163
18
2
162
17
1
162
16
0
163
15
0
162
15
0
163
15
0
163
15
0
162
15
0
162
15
0
162
15
0
163
15
0
162
15
0
162
15
0
163
15
0
163
15
0
163
15
0
162
15
0
162
15
0
162
15
0
163
15
0
163
15
0
163
15
0
163
15
0
163
15
0
162
15
0
162
15
0
162
15
0
162
15
1
162
16
1
162
16
3
164
18
5
163
20
8
164
23
14
167
28
21
170
35
32
174
45
44
178
57
61
184
73
81
191
91
110
208
119
66
85
68
110
110
110
163
163
163
207
207
207
235
235
235
249
249
249
253
253
253
255
255
255
255
255
255
255
255
255
255
255
255
255
255
255
255
255
255
211
211
211
183
183
183
102
189
110
83
193
93
64
187
76
48
182
61
35
176
49
24
174
38
17
170
31
11
168
26
7
167
22
4
166
19
2
165
17
1
164
16
1
164
16
0
165
15
0
165
15
0
165
15
0
165
15
0
165
15
0
165
15
0
164
15
0
165
15
0
165
15
0
164
15
0
165
15
0
165
15
0
165
15
0
165
15
0
165
15
0
165
15
0
165
15
0
165
15
0
165
15
0
165
15
0
165
15
0
165
15
0
165
15
1
166
16
1
165
16
2
165
17
4
165
19
7
167
22
11
169
26
18
169
32
26
173
40
38
177
51
52
184
65
69
188
81
90
196
100
89
167
96
80
80
80
128
128
128
179
179
179
218
218
218
240
240
240
250
250
250
254
254
254
255
255
255
255
255
255
255
255
255
255
255
255
255
255
255
255
255
255
221
221
221
192
192
192
131
168
135
97
202
107
76
192
87
59
187
71
43
181
57
31
179
45
22
175
36
14
172
29
9
170
24
6
170
21
4
168
19
2
168
18
1
167
17
1
167
17
0
166
16
0
167
16
0
167
16
0
167
16
0
168
16
0
168
16
0
166
16
0
166
16
0
168
16
0
167
16
0
168
16
0
167
16
0
167
16
0
168
16
0
166
16
0
166
16
0
168
16
0
167
16
0
168
16
0
168
16
0
168
16
1
167
17
1
167
17
2
168
18
4
168
19
6
168
21
9
170
24
15
172
30
23
174
37
33
178
47
45
183
58
61
187
73
81
194
92
105
206
114
65
91
69
96
96
96
148
148
148
195
195
195
228
228
228
245
245
245
252
252
252
254
254
254
255
255
255
255
255
255
255
255
255
255
255
255
255
255
255
255
255
255
231
231
231
206
206
206
175
175
175
103
189
112
89
199
99
70
193
82
53
187
66
40
183
54
28
179
42
19
176
34
13
174
28
9
173
25
6
172
22
4
172
20
2
170
18
1
169
17
1
169
17
0
170
16
0
170
16
0
170
16
0
170
16
0
170
16
0
170
16
0
170
16
0
170
16
0
170
16
0
170
16
0
170
16
0
170
16
0
170
16
0
170
16
0
170
16
0
170
16
0
170
16
0
170
16
0
170
16
1
169
17
1
169
17
2
170
18
4
170
20
6
172
22
9
174
26
14
175
29
20
176
35
29
180
43
41
183
54
55
188
68
73
193
84
92
199
102
86
168
94
73
73
73
118
118
118
169
169
169
210
210
210
236
236
236
249
249
249
253
253
253
255
255
255
255
255
255
255
255
255
255
255
255
255
255
255
255
255
255
255
255
255
238
238
238
219
219
219
188
188
188
135
159
137
105
209
115
83
198
94
64
193
76
49
187
62
36
183
50
26
181
41
18
178
33
12
175
27
9
175
25
6
174
22
4
174
20
2
172
18
1
173
17
1
173
17
1
173
17
0
172
16
0
172
16
0
172
16
0
172
16
0
172
16
0
172
16
0
172
16
0
172
16
0
172
16
0
172
16
0
172
16
0
172
16
0
172
16
0
172
16
0
172
16
1
173
17
1
173
17
1
173
17
2
172
18
4
174
20
6
174
22
9
175
25
13
175
28
19
178
34
27
181
42
37
184
51
50
187
63
66
192
78
84
199
95
109
210
118
58
74
61
93
93
93
142
142
142
189
189
189
223
223
223
242
242
242
251
251
251
254
254
254
255
255
255
255
255
255
255
255
255
255
255
255
255
255
255
255
255
255
255
255
255
244
244
244
230
230
230
205
205
205
171
171
171
113
169
119
96
204
106
77
198
89
60
193
72
46
190
60
35
186
49
25
183
40
18
180
33
13
179
29
9
178
25
7
177
23
4
176
20
3
175
19
2
176
18
1
175
17
1
175
17
1
175
17
0
174
16
0
176
17
0
176
17
0
176
17
0
175
17
0
175
16
0
176
17
0
176
17
0
175
17
0
176
17
0
176
17
1
175
17
1
175
17
1
175
17
2
176
18
3
175
19
4
176
20
7
177
23
10
178
26
13
177
28
18
181
33
26
182
41
35
186
49
47
190
61
62
194
74
78
199
90
98
205
108
66
111
69
74
74
74
119
119
119
167
167
167
208
208
208
234
234
234
248
248
248
253
253
253
255
255
255
255
255
255
255
255
255
255
255
255
255
255
255
255
255
255
255
255
255
255
255
255
248
248
248
239
239
239
220
220
220
190
190
190
149
149
149
100
196
109
91
205
102
74
199
86
58
195
71
45
191
59
34
187
48
25
184
40
19
183
34
14
181
30
10
180
26
7
179
23
5
179
21
4
178
20
3
176
18
2
178
19
2
178
19
2
178
19
1
178
18
1
178
18
1
177
18
1
178
18
1
178
18
1
178
18
1
177
18
1
179
18
1
177
18
2
178
19
2
178
19
2
178
19
3
178
19
4
178
20
5
178
21
7
180
23
10
180
26
14
182
30
19
183
34
26
184
41
34
187
49
46
191
60
59
195
72
75
199
87
92
205
103
91
182
99
60
60
60
100
100
100
147
147
147
191
191
191
224
224
224
242
242
242
251
251
251
254
254
254
255
255
255
255
255
255
255
255
255
255
255
255
255
255
255
255
255
255
255
255
255
255
255
255
251
251
251
245
245
245
232
232
232
210
210
210
176
176
176
135
137
135
105
210
115
88
205
99
73
200
85
58
196
71
45
193
59
34
190
50
26
187
41
20
185
35
15
184
31
11
183
27
8
182
24
6
182
23
5
182
22
4
180
20
3
181
20
3
181
20
3
180
20
2
179
19
2
180
19
2
179
19
2
179
19
2
180
19
2
180
19
2
180
19
3
181
20
3
180
20
3
181
20
4
181
20
5
181
22
7
181
23
9
183
25
11
183
27
15
184
31
20
185
35
27
187
42
35
191
50
45
193
60
58
197
71
74
201
86
90
205
101
103
205
112
51
51
51
86
86
86
131
131
131
176
176
176
213
213
213
236
236
236
248
248
248
253
253
253
254
254
254
255
255
255
255
255
255
255
255
255
255
255
255
255
255
255
255
255
255
255
255
255
255
255
255
253
253
253
250
250
250
241
241
241
226
226
226
200
200
200
164
164
164
117
136
119
107
215
117
88
206
99
72
202
85
59
198
72
46
196
60
37
192
52
29
191
44
22
189
38
18
187
34
14
185
30
11
185
27
9
185
25
7
185
24
6
184
23
5
183
22
4
185
21
3
184
20
3
182
20
3
183
20
3
183
20
3
184
20
3
183
20
3
182
20
4
183
21
5
184
22
6
184
23
7
183
23
9
185
25
11
185
27
14
185
30
18
187
34
23
190
39
29
191
44
37
193
52
47
196
61
60
198
73
73
203
86
90
207
101
105
211
115
48
60
48
77
77
77
118
118
118
163
163
163
202
202
202
229
229
229
245
245
245
251
251
251
254
254
254
255
255
255
255
255
255
255
255
255
255
255
255
255
255
255
255
255
255
255
255
255
255
255
255
255
255
255
254
254
254
252
252
252
247
247
247
237
237
237
219
219
219
191
191
191
154
154
154
107
133
110
104
213
114
89
209
100
74
204
87
61
201
74
50
199
64
40
196
55
33
194
48
26
191
42
21
190
37
17
190
33
14
189
31
12
188
28
10
188
27
9
187
26
8
188
25
7
187
24
7
187
24
7
187
24
7
187
24
7
187
24
7
187
24
7
187
24
8
186
25
9
188
26
10
188
27
12
189
29
14
188
31
17
190
33
21
192
37
26
191
42
33
194
48
41
196
55
50
198
65
63
201
75
75
204
87
90
209
101
104
211
114
47
70
50
70
70
70
109
109
109
152
152
152
193
193
193
222
222
222
241
241
241
250
250
250
254
254
254
254
254
254
255
255
255
255
255
255
255
255
255
255
255
255
255
255
255
255
255
255
255
255
255
255
255
255
255
255
255
254
254
254
253
253
253
251
251
251
246
246
246
234
234
234
214
214
214
185
185
185
149
149
149
103
122
105
103
210
113
92
211
104
78
208
90
66
204
79
55
201
69
45
199
60
37
197
52
32
196
47
26
195
42
22
192
38
19
193
35
17
192
33
14
191
31
14
191
30
12
190
29
12
189
29
11
190
28
11
190
28
11
190
28
12
189
29
12
191
29
14
192
31
15
190
31
17
192
33
19
194
35
22
192
38
26
195
42
32
196
48
38
197
53
46
199
61
56
202
70
67
204
79
79
208
91
93
212
105
100
204
110
43
57
45
68
68
68
105
105
105
146
146
146
186
186
186
217
217
217
237
237
237
247
247
247
253
253
253
254
254
254
255
255
255
255
255
255
255
255
255
255
255
255
255
255
255
255
255
255
255
255
255
255
255
255
255
255
255
255
255
255
255
255
255
254
254
254
254
254
254
250
250
250
244
244
244
231
231
231
211
211
211
181
181
181
146
146
146
116
116
116
101
201
110
97
215
108
84
211
96
71
208
85
61
205
75
52
203
67
45
202
60
38
200
53
33
198
49
29
197
46
26
196
42
23
195
39
21
195
38
20
196
36
19
195
35
18
194
34
18
194
35
18
194
34
19
195
35
20
196
36
21
195
38
23
195
39
26
196
42
30
197
46
33
198
50
39
200
54
45
202
61
52
203
66
62
205
76
73
207
86
84
211
96
98
215
109
91
187
99
46
46
46
70
70
70
104
104
104
144
144
144
182
182
182
213
213
213
234
234
234
246
246
246
252
252
252
254
254
254
255
255
255
255
255
255
255
255
255
255
255
255
255
255
255
255
255
255
255
255
255
255
255
255
255
255
255
255
255
255
255
255
255
255
255
255
255
255
255
254
254
254
253
253
253
249
249
249
243
243
243
230
230
230
209
209
209
181
181
181
148
148
148
114
114
114
90
150
96
106
221
117
92
213
103
81
212
93
71
209
84
61
207
75
54
205
69
48
205
63
42
203
58
39
202
54
35
200
51
32
201
49
31
199
47
30
200
46
29
199
45
29
200
45
29
199
45
30
200
46
31
199
47
33
201
49
35
202
51
39
202
54
43
202
58
49
204
63
55
205
69
62
207
76
71
209
84
82
212
94
92
215
104
107
222
119
59
109
63
51
51
51
76
76
76
109
109
109
146
146
146
182
182
182
211
211
211
232
232
232
244
244
244
251
251
251
253
253
253
255
255
255
255
255
255
255
255
255
255
255
255
255
255
255
255
255
255
255
255
255
255
255
255
255
255
255
255
255
255
255
255
255
255
255
255
255
255
255
255
255
255
255
255
255
254
254
254
253
253
253
249
249
249
242
242
242
230
230
230
211
211
211
185
185
185
155
155
155
123
123
123
92
105
93
93
192
103
102
221
114
90
215
102
81
214
94
73
212
87
66
211
80
61
209
75
55
207
69
52
206
66
49
206
64
45
206
60
43
206
59
43
205
58
42
205
57
43
205
58
44
205
59
46
206
61
49
206
64
52
205
66
55
208
70
60
208
74
67
210
81
74
212
87
81
214
94
92
217
104
104
222
115
83
178
92
46
57
47
61
61
61
86
86
86
118
118
118
152
152
152
186
186
186
213
213
213
233
233
233
244
244
244
251
251
251
253
253
253
254
254
254
255
255
255
255
255
255
255
255
255
255
255
255
255
255
255
255
255
255
255
255
255
255
255
255
255
255
255
255
255
255
255
255
255
255
255
255
255
255
255
255
255
255
255
255
255
255
255
255
254
254
254
253
253
253
249
249
249
243
243
243
232
232
232
215
215
215
191
191
191
164
164
164
134
134
134
106
106
106
84
110
86
92
190
101
109
227
120
95
219
107
88
216
100
80
216
93
75
214
88
70
213
83
67
212
81
65
211
79
63
211
77
62
211
76
61
211
75
61
211
75
63
211
77
65
211
79
67
213
81
70
213
84
75
214
88
81
216
94
88
217
100
96
219
108
111
230
123
83
177
92
49
71
51
53
53
53
74
74
74
100
100
100
131
131
131
163
163
163
192
192
192
217
217
217
234
234
234
244
244
244
251
251
251
253
253
253
254
254
254
255
255
255
255
255
255
255
255
255
255
255
255
255
255
255
255
255
255
255
255
255
255
255
255
255
255
255
255
255
255
255
255
255
255
255
255
255
255
255
255
255
255
255
255
255
255
255
255
255
255
255
255
255
255
254
254
254
253
253
253
250
250
250
244
244
244
235
235
235
221
221
221
200
200
200
176
176
176
149
149
149
122
122
122
99
99
99
79
102
81
84
147
90
99
210
110
109
231
121
100
224
111
93
220
105
89
219
101
87
218
99
84
217
97
83
217
95
81
217
95
83
217
96
84
218
97
87
218
99
89
219
102
93
220
106
101
224
113
110
233
122
96
206
107
69
128
74
47
67
49
55
55
55
72
72
72
93
93
93
119
119
119
147
147
147
176
176
176
202
202
202
222
222
222
237
237
237
246
246
246
251
251
251
253
253
253
254
254
254
255
255
255
255
255
255
255
255
255
255
255
255
255
255
255
255
255
255
255
255
255
255
255
255
255
255
255
255
255
255
255
255
255
255
255
255
255
255
255
255
255
255
255
255
255
255
255
255
255
255
255
255
255
255
255
255
255
255
255
255
254
254
254
252
252
252
250
250
250
246
246
246
238
238
238
227
227
227
211
211
211
191
191
191
168
168
168
144
144
144
120
120
120
100
100
100
85
85
85
68
90
71
80
134
84
90
168
98
94
194
104
101
214
112
107
226
119
111
232
122
112
234
124
110
231
122
107
225
118
101
212
111
92
191
102
84
159
91
68
121
72
47
65
49
54
54
54
63
63
63
78
78
78
96
96
96
118
118
118
142
142
142
167
167
167
191
191
191
213
213
213
229
229
229
240
240
240
247
247
247
252
252
252
253
253
253
254
254
254
255
255
255
255
255
255
255
255
255
255
255
255
255
255
255
255
255
255
255
255
255
255
255
255
255
255
255
255
255
255
255
255
255
255
255
255
255
255
255
255
255
255
255
255
255
255
255
255
255
255
255
255
255
255
255
255
255
255
255
255
255
255
255
255
255
255
254
254
254
254
254
254
251
251
251
248
248
248
242
242
242
234
234
234
222
222
222
207
207
207
188
188
188
169
169
169
149
149
149
130
130
130
112
112
112
97
97
97
85
85
85
76
76
76
68
68
68
62
62
62
58
58
58
56
56
56
55
55
55
55
55
55
57
57
57
60
60
60
65
65
65
72
72
72
82
82
82
95
95
95
110
110
110
128
128
128
148
148
148
169
169
169
189
189
189
208
208
208
224
224
224
236
236
236
245
245
245
250
250
250
253
253
253
254
254
254
255
255
255
255
255
255
255
255
255
255
255
255
255
255
255
255
255
255
255
255
255
255
255
255
255
255
255
255
255
255
255
255
255
255
255
255
255
255
255
255
255
255
255
255
255
255
255
255
255
255
255
255
255
255
255
255
255
255
255
255
255
255
255
255
255
255
255
255
255
255
255
255
255
255
255
254
254
254
254
254
254
253
253
253
250
250
250
246
246
246
241
241
241
233
233
233
222
222
222
209
209
209
195
195
195
179
179
179
163
163
163
149
149
149
135
135
135
124
124
124
115
115
115
107
107
107
102
102
102
99
99
99
97
97
97
98
98
98
101
101
101
106
106
106
113
113
113
122
122
122
134
134
134
148
148
148
163
163
163
178
178
178
195
195
195
210
210
210
223
223
223
234
234
234
242
242
242
248
248
248
251
251
251
253
253
253
254
254
254
255
255
255
255
255
255
255
255
255
255
255
255
255
255
255
255
255
255
255
255
255
255
255
255
255
255
255
255
255
255
255
255
255
255
255
255
255
255
255
255
255
255
255
255
255
255
255
255
255
255
255
255
255
255
255
255
255
255
255
255
255
255
255
255
255
255
255
255
255
255
255
255
255
255
255
255
255
255
255
255
255
255
255
255
254
254
254
254
254
254
252
252
252
250
250
250
246
246
246
242
242
242
234
234
234
226
226
226
217
217
217
207
207
207
197
197
197
185
185
185
176
176
176
168
168
168
161
161
161
156
156
156
153
153
153
153
153
153
153
153
153
156
156
156
161
161
161
168
168
168
177
177
177
186
186
186
197
197
197
207
207
207
218
218
218
228
228
228
236
236
236
242
242
242
247
247
247
251
251
251
253
253
253
254
254
254
254
254
254
255
255
255
255
255
255
255
255
255
255
255
255
255
255
255
255
255
255
255
255
255
255
255
255
255
255
255
255
255
255
255
255
255
255
255
255
255
255
255
255
255
255
255
255
255
255
255
255
255
255
255
255
255
255
255
255
255
255
255
255
255
255
255
255
255
255
255
255
255
255
255
255
255
255
255
255
255
255
255
255
255
255
255
255
255
255
255
255
255
255
255
255
255
254
254
254
253
253
253
252
252
252
250
250
250
248
248
248
244
244
244
240
240
240
234
234
234
228
228
228
223
223
223
217
217
217
212
212
212
207
207
207
204
204
204
202
202
202
202
202
202
202
202
202
204
204
204
207
207
207
212
212
212
217
217
217
223
223
223
229
229
229
235
235
235
240
240
240
245
245
245
248
248
248
251
251
251
253
253
253
254
254
254
255
255
255
255
255
255
255
255
255
255
255
255
255
255
255
255
255
255
255
255
255
255
255
255
255
255
255
255
255
255
255
255
255
255
255
255
255
255
255
255
255
255
255
255
255
255
255
255
255
255
255
255
255
255
255
255
255
255
255
255
255
255
255
255
255
255
255
255
255
255
255
255
255
255
255
255
255
255
255
255
255
255
255
255
255
255
255
255
255
255
255
255
255
255
255
255
255
255
255
255
255
255
255
255
255
255
255
255
254
254
254
254
254
254
253
253
253
251
251
251
250
250
250
248
248
248
245
245
245
243
243
243
240
240
240
237
237
237
235
235
235
234
234
234
233
233
233
233
233
233
233
233
233
234
234
234
236
236
236
238
238
238
240
240
240
243
243
243
246
246
246
249
249
249
250
250
250
252
252
252
253
253
253
254
254
254
255
255
255
255
255
255
255
255
255
255
255
255
255
255
255
255
255
255
255
255
255
255
255
255
255
255
255
255
255
255
255
255
255
255
255
255
255
255
255
255
255
255
255
255
255
255
255
255
255
255
255
255
255
255
255
255
255
255
255
255
255
255
255
255
255
255
255
255
255
255
255
255
255
255
255
255
255
255
255
255
255
255
255
255
255
255
255
255
255
255
255
255
255
255
255
255
255
255
255
255
255
255
255
255
255
255
255
255
255
255
255
255
255
255
255
255
255
255
255
255
255
255
255
255
255
255
254
254
254
254
254
254
254
254
254
254
254
254
253
253
253
253
253
253
253
253
253
252
252
252
252
252
252
252
252
252
252
252
252
252
252
252
253
253
253
253
253
253
253
253
253
254
254
254
254
254
254
254
254
254
255
255
255
255
255
255
255
255
255
255
255
255
255
255
255
255
255
255
255
255
255
255
255
255
255
255
255
255
255
255
255
255
255
255
255
255
255
255
255
255
255
255
255
255
255
255
255
255
255
255
255
255
255
255
255
255
255
255
255
255
255
255
255
255
255
255
255
255
255
255
255
255
255
255
255
255
255
255
255
255
255
255
255
255
255
255
255
255
255
255
255
255
255
255
255
255
255
255
255
255
255
255
255
255
255
255
255
255
255
255
255
255
255
255
255
255
255
255
255
255
255
255
255
255
255
255
255
255
255
255
255
255
255
255
255
255
255
255
255
255
255
255
255
255
255
255
255
255
255
255
255
255
255
255
255
255
255
255
255
255
255
255
255
255
255
255
255
255
255
255
255
255
255
255
255
255
255
255
255
255
255
255
255
255
255
255
255
255
255
255
255
255
255
255
255
255
255
255
255
255
255
255
255
255
255
255
255
255
255
255
255
255
255
255
255
255
255
255
255
255
255
255
255
255
255
255
255
255
255
255
255
255
255
255
255
255
255
255
255
255
255
255
255
255
255
255
255
255
255
255
255
255
255
255
255
255
255
255
255
255
255
