P3
#fdtht
64 64
255
25
0
230
14
0
241
50
0
205
254
0
1
235
0
20
224
0
31
213
1
42
203
4
55
193
6
67
184
9
79
173
10
91
165
12
101
154
13
113
147
15
122
137
15
132
130
16
140
122
16
148
114
16
156
108
16
162
101
16
170
94
16
175
87
15
181
81
16
186
76
16
190
71
18
196
67
17
198
62
16
201
60
15
205
57
15
206
55
15
208
53
15
210
51
15
212
50
14
212
50
14
212
50
14
212
50
13
212
52
14
211
54
14
210
57
13
207
60
14
205
63
14
203
66
13
200
70
13
197
75
14
192
80
14
188
85
14
183
92
14
177
97
14
171
103
14
165
110
14
158
116
13
151
124
13
143
132
11
133
140
11
125
148
10
116
156
8
106
165
6
95
174
4
84
184
2
72
194
0
61
204
0
51
214
0
41
224
0
31
234
0
21
15
0
240
48
0
207
255
0
0
234
0
21
223
0
32
211
1
44
201
4
57
190
7
71
181
9
82
170
11
95
160
13
107
150
14
118
142
15
128
132
16
138
124
16
146
116
17
155
108
17
164
100
16
170
92
16
177
84
17
184
77
17
189
71
17
195
65
17
200
60
15
204
53
15
208
49
15
211
46
14
216
43
13
218
40
13
219
37
12
222
36
12
224
33
11
225
33
12
226
33
12
226
33
12
226
34
11
226
35
11
224
36
10
223
38
11
222
42
12
219
45
12
217
48
12
213
53
13
210
58
12
206
63
13
203
69
13
198
75
14
193
81
14
187
89
14
179
94
14
174
102
14
166
109
13
158
116
13
151
124
12
142
133
12
133
143
11
122
151
8
111
161
7
100
171
5
88
181
2
75
191
0
64
201
0
54
212
0
43
222
0
33
50
0
205
255
0
0
234
0
21
223
0
32
210
2
46
199
5
60
189
7
72
178
10
86
168
12
98
158
14
110
148
15
121
138
16
132
128
17
143
118
16
152
111
17
160
102
17
169
92
16
177
84
16
183
76
17
190
69
16
196
60
17
203
54
16
207
49
16
213
43
14
218
38
13
220
34
12
225
31
11
228
26
10
231
24
9
233
22
9
235
20
8
235
19
7
237
19
7
237
18
7
238
18
7
238
19
7
237
19
7
237
22
8
235
23
8
234
26
9
233
29
9
230
33
10
226
38
11
223
41
11
219
47
12
216
52
12
211
60
13
205
66
12
200
73
13
194
81
14
187
89
14
179
95
14
173
104
14
164
112
13
155
120
12
146
128
12
138
138
11
127
148
9
115
158
7
103
168
6
92
178
3
79
188
0
66
199
0
56
211
0
44
255
0
0
235
0
20
224
0
31
211
2
45
200
5
59
189
7
72
177
10
87
166
12
100
156
14
112
146
15
123
135
15
135
125
16
145
116
17
155
107
17
165
97
17
174
86
17
182
77
18
189
69
18
197
60
17
203
53
16
209
45
15
215
40
14
220
33
12
225
28
10
230
25
10
234
19
8
237
16
7
240
13
5
242
3
1
251
0
0
255
0
0
255
0
0
255
0
0
255
0
0
255
0
0
255
0
0
255
0
0
255
0
0
255
0
0
255
12
4
243
15
6
241
18
7
239
22
7
235
26
9
233
32
10
228
38
11
223
44
10
217
50
12
213
58
11
206
66
13
201
75
13
192
81
13
186
90
14
178
97
13
170
108
14
160
115
13
152
125
12
141
135
11
130
145
9
118
156
8
106
166
6
94
177
3
80
188
0
67
199
0
56
237
0
18
225
0
30
212
2
44
200
5
59
188
8
74
177
10
87
165
12
101
155
14
113
144
15
125
132
16
138
123
17
148
112
17
159
102
17
169
91
17
177
81
17
186
72
18
194
61
16
202
53
16
208
45
15
215
38
13
220
31
12
227
25
10
232
19
8
236
15
7
241
3
1
250
0
0
255
49
24
210
104
54
160
160
84
109
218
114
68
215
114
68
213
113
67
212
113
67
213
112
67
213
113
68
215
111
67
217
111
68
221
109
68
232
111
70
98
48
168
117
54
151
0
0
255
0
0
255
13
4
242
18
6
239
23
8
235
28
9
231
35
10
225
44
11
218
50
12
214
60
12
206
68
13
199
76
13
191
85
14
183
94
13
173
103
13
164
113
13
154
123
12
144
133
11
133
144
10
120
154
8
108
164
5
95
176
3
81
187
0
67
227
0
28
214
1
41
201
5
58
190
7
71
178
11
87
167
13
100
155
14
113
143
15
126
132
17
139
122
17
150
110
17
161
100
17
171
87
17
180
77
18
189
67
18
197
57
17
206
48
16
212
40
14
219
31
12
226
25
10
233
18
7
238
13
6
242
0
0
255
47
24
211
160
86
109
213
117
68
202
113
70
190
110
79
187
110
82
183
109
83
182
110
85
181
109
87
180
109
88
179
108
88
181
108
88
182
107
88
184
107
86
187
105
85
190
105
83
194
104
80
198
101
77
219
108
68
233
109
70
101
46
167
51
23
210
2
1
252
15
5
241
22
7
236
28
8
231
35
9
225
45
11
218
53
11
211
63
12
204
72
13
195
81
13
186
90
13
177
100
13
167
111
13
156
121
12
145
131
11
134
142
9
121
153
8
109
165
5
94
176
3
80
217
1
39
204
4
54
191
8
71
179
11
87
168
13
99
155
14
113
143
16
127
132
17
139
121
17
150
108
17
163
97
17
173
85
19
183
74
18
192
63
18
200
52
16
209
44
15
217
35
13
223
26
11
231
20
9
237
13
6
242
0
0
255
104
57
159
220
122
71
200
115
70
187
111
79
180
112
85
176
111
88
171
110
91
168
110
95
165
110
97
162
110
99
162
110
101
160
109
102
160
109
102
162
108
101
163
107
101
164
107
100
167
106
98
171
106
97
175
104
94
180
105
91
186
103
86
193
103
84
199
101
80
214
103
68
167
76
110
50
21
211
0
0
253
14
5
241
22
7
236
29
8
230
39
10
222
48
10
216
59
12
207
67
12
199
78
13
190
88
13
179
97
13
170
109
13
158
120
12
146
130
11
135
141
9
122
153
8
109
165
5
94
207
4
51
194
8
68
182
11
83
169
13
98
157
15
112
145
15
124
133
17
138
121
17
150
108
17
163
97
17
174
84
18
184
72
19
193
60
17
202
50
16
211
41
14
218
30
12
227
22
9
234
15
7
241
0
0
255
104
56
159
220
123
71
189
113
78
182
113
84
175
113
88
168
113
93
163
111
97
157
112
102
153
111
104
149
111
107
147
110
111
144
109
111
143
108
114
143
108
115
142
107
114
142
107
115
144
107
115
147
106
113
149
106
111
153
106
110
157
106
107
163
105
104
167
104
101
174
104
97
181
102
92
188
101
87
198
101
81
213
101
69
168
75
111
51
22
211
2
1
252
17
6
240
26
7
233
34
9
226
45
10
218
55
11
210
65
12
201
76
13
191
86
13
181
97
13
171
108
13
159
119
12
147
131
11
134
143
10
121
155
7
106
197
6
63
185
9
78
171
13
96
159
14
109
146
16
124
135
17
137
122
17
150
110
18
162
96
17
174
83
18
184
71
19
194
59
18
205
48
17
212
38
14
221
28
12
230
19
8
237
12
6
243
48
25
211
157
89
110
190
113
77
181
113
83
172
113
89
164
114
95
157
113
101
151
111
105
145
111
110
140
110
113
136
110
118
133
108
120
130
108
122
127
107
125
127
106
125
125
105
126
125
105
128
126
105
126
127
104
126
129
105
126
131
104
124
136
104
122
138
104
119
144
104
117
150
104
114
155
104
110
163
104
105
171
103
100
179
101
93
188
100
89
199
99
81
216
99
69
171
73
109
54
21
210
14
5
242
21
6
236
31
8
228
42
9
220
53
11
212
63
12
203
74
12
192
85
13
182
96
13
171
107
12
159
120
12
146
132
11
133
143
9
120
189
9
74
176
12
90
162
14
106
149
15
120
137
17
135
124
18
148
112
18
160
97
17
173
84
19
184
71
19
194
59
19
204
47
17
213
37
14
222
26
11
231
17
8
239
0
0
255
103
57
159
209
121
68
184
115
81
174
114
88
164
114
95
156
114
102
148
112
107
141
111
113
134
111
116
129
109
121
123
108
125
119
105
129
116
105
132
114
104
134
112
103
136
110
102
137
108
101
138
109
102
139
110
101
139
111
100
139
113
101
137
115
100
136
119
101
133
123
101
131
128
101
128
133
102
124
140
102
121
147
102
117
154
102
112
163
102
107
171
101
100
181
99
94
193
100
88
203
98
79
231
100
68
42
18
219
2
0
252
19
6
239
29
8
231
40
9
222
51
11
213
63
12
204
74
12
192
85
13
182
97
13
171
108
12
158
121
12
145
133
10
131
180
11
85
166
14
102
154
16
117
139
17
132
127
18
145
114
18
158
100
17
170
86
19
181
72
19
193
59
19
204
47
17
213
35
14
222
25
11
232
16
8
240
0
0
255
165
93
101
190
114
77
179
115
84
168
116
92
157
114
99
148
114
105
140
113
112
132
112
118
125
109
123
119
108
129
113
106
133
108
103
137
105
102
141
101
101
144
99
99
145
96
98
147
95
96
149
94
96
151
93
95
151
95
95
150
96
95
149
98
96
150
100
96
147
103
97
145
107
97
143
111
98
141
118
99
137
124
100
133
131
101
128
138
101
123
145
100
118
154
100
112
165
101
105
176
101
99
187
99
92
199
97
84
218
96
69
183
75
101
0
0
255
17
5
240
27
8
233
39
9
223
51
10
213
63
12
204
74
12
192
86
13
181
97
13
170
110
12
156
123
11
142
171
13
96
158
15
111
144
17
127
131
18
141
117
18
155
104
18
167
89
19
180
75
20
191
61
18
202
49
17
212
37
14
222
25
11
232
15
6
240
0
0
255
164
94
103
186
116
79
175
117
87
164
116
96
153
115
103
143
114
110
133
112
117
124
110
124
117
109
129
110
105
134
104
104
140
99
102
144
94
99
147
90
96
151
86
95
154
84
93
156
82
92
160
81
91
160
80
90
162
79
88
162
81
89
162
81
89
162
83
90
160
85
91
158
88
91
156
93
92
154
98
93
151
102
94
148
108
96
143
115
96
139
122
97
134
131
100
130
139
100
123
149
100
118
159
100
111
170
99
102
183
98
95
196
97
87
208
93
78
182
73
101
0
0
255
16
4
241
27
7
232
40
9
222
51
10
213
63
12
203
75
12
191
88
13
179
100
12
166
113
12
153
163
14
105
150
16
120
135
18
137
122
18
150
108
18
164
94
18
176
78
19
188
65
18
199
51
17
210
39
15
220
27
12
230
16
7
240
0
0
255
163
95
103
185
116
79
173
116
88
161
116
97
148
116
105
138
114
113
127
112
120
120
110
128
111
107
133
104
105
140
97
101
145
90
98
150
85
96
154
81
93
159
76
91
162
74
88
165
70
86
168
69
84
170
67
83
172
66
82
174
67
82
174
67
82
174
68
82
173
70
82
171
72
83
170
75
86
168
79
86
165
84
87
162
88
89
158
95
90
154
101
93
150
108
94
145
116
96
139
125
97
134
134
98
127
145
99
122
155
98
114
167
98
106
180
97
97
194
95
88
208
92
80
182
74
104
0
0
255
16
4
241
28
7
232
39
8
222
52
10
212
65
12
201
78
12
188
90
13
177
103
12
163
157
16
113
141
17
130
127
18
145
113
19
160
99
19
172
83
20
184
69
20
196
55
18
208
42
16
219
29
12
228
18
8
238
0
0
255
164
95
102
185
116
80
172
118
89
159
117
97
147
116
106
135
114
115
125
112
122
115
109
130
106
106
136
99
103
143
90
100
149
83
96
155
78
92
160
73
89
164
68
85
169
65
83
174
61
81
176
58
78
179
56
76
181
56
75
183
54
73
184
54
72
185
55
72
184
56
73
184
58
74
183
59
75
181
63
76
178
67
79
176
70
80
173
75
82
170
81
85
165
87
87
161
95
90
155
103
92
150
111
94
145
120
95
138
131
97
131
141
97
124
153
97
116
166
97
108
179
96
98
193
94
88
207
92
80
183
73
104
0
0
255
17
4
240
29
7
231
43
9
220
56
11
209
67
12
199
80
12
186
95
12
172
148
16
122
133
18
139
119
18
153
104
18
167
90
20
180
73
20
192
58
19
204
44
16
215
32
13
225
21
10
235
3
1
251
165
95
102
186
117
79
173
118
88
159
117
97
146
116
106
133
114
115
122
112
124
113
109
132
102
105
139
94
102
147
85
97
153
79
94
159
71
89
165
67
86
170
61
82
175
56
78
180
53
75
184
49
71
187
47
69
189
45
66
193
43
65
194
42
64
195
43
63
196
43
63
195
45
63
195
46
65
193
48
66
191
51
68
191
55
70
187
59
73
184
63
76
180
69
78
176
75
80
171
83
85
166
90
86
159
99
90
155
107
91
147
118
93
140
128
96
133
139
96
126
153
97
118
165
95
109
179
95
99
194
93
89
210
90
80
185
71
102
0
0
255
19
5
239
32
7
229
45
9
217
59
11
206
72
12
194
84
12
182
142
18
130
126
18
146
112
19
162
96
19
174
79
20
188
65
20
199
50
17
211
37
15
221
25
11
233
13
6
241
39
22
218
197
122
69
175
118
86
160
119
97
147
117
105
134
115
116
122
112
124
111
109
133
100
105
140
91
102
148
82
96
155
75
92
162
67
88
169
61
83
175
55
78
180
49
73
185
45
68
189
42
65
194
39
62
198
37
59
200
34
56
203
34
55
205
33
54
206
32
52
206
32
52
206
34
53
207
35
54
204
38
56
203
39
58
200
44
62
198
48
64
194
52
67
190
57
71
185
63
75
181
70
77
176
76
81
170
87
85
164
95
87
157
104
90
150
115
92
144
128
95
136
139
96
127
153
96
118
166
95
108
181
94
99
197
92
88
212
89
80
187
69
101
3
1
252
22
5
236
35
8
227
48
10
216
63
11
202
76
12
190
133
18
139
119
19
154
104
19
169
87
20
181
71
20
193
57
19
206
43
16
218
28
13
229
17
9
239
0
0
255
216
131
74
179
119
84
163
119
95
149
118
104
136
116
115
123
112
124
111
109
133
100
105
140
90
101
149
80
96
157
72
91
164
64
85
172
57
80
178
50
74
184
45
69
190
40
64
195
36
59
200
33
56
205
30
51
209
27
49
211
25
45
215
23
42
216
23
41
217
23
40
218
23
40
218
24
42
217
25
43
215
27
45
214
30
48
211
34
51
208
37
54
205
41
58
200
47
62
195
53
66
190
59
71
186
67
74
179
75
79
173
84
83
166
93
85
158
103
89
151
116
91
144
128
93
135
141
95
127
154
95
118
168
95
108
184
94
98
201
90
86
226
89
68
43
16
219
14
4
243
26
6
234
41
9
222
53
10
211
67
11
198
128
19
145
112
19
161
95
20
175
80
21
187
64
20
200
49
17
211
34
15
224
22
10
234
3
1
251
164
97
103
183
119
81
168
120
91
153
119
102
138
117
112
125
114
123
113
110
130
101
107
140
90
102
149
80
96
157
70
90
165
62
85
172
55
79
180
48
73
187
41
67
192
36
60
200
31
55
205
27
49
210
23
43
215
22
40
219
19
36
223
17
34
225
16
31
227
14
28
229
14
27
230
14
28
229
16
29
228
17
31
227
19
33
225
21
37
222
23
40
219
27
43
215
32
49
211
37
53
205
43
58
200
49
63
194
56
68
189
64
72
183
74
78
175
82
81
169
93
85
161
103
89
153
116
90
144
128
92
135
143
94
126
156
93
117
172
94
106
189
91
94
205
89
84
240
90
67
55
19
209
17
4
240
30
7
230
46
9
217
60
11
205
122
19
151
106
19
167
88
19
180
72
21
193
57
19
206
42
16
219
28
13
229
16
8
239
48
27
210
197
123
69
173
121
87
158
120
98
142
118
109
129
115
119
115
112
129
102
107
138
92
103
147
81
98
157
71
91
165
62
85
172
53
78
181
46
72
189
39
64
196
32
57
202
28
51
208
24
45
215
20
39
221
17
33
226
13
27
230
11
24
234
9
21
236
7
17
239
8
16
239
7
16
240
7
16
241
7
17
239
9
19
237
11
21
237
14
25
233
16
28
229
19
33
225
23
38
220
28
43
215
34
49
210
39
54
204
47
59
197
55
66
190
63
70
184
72
76
176
83
81
169
94
85
161
105
88
153
118
91
144
131
93
135
146
93
124
161
93
114
178
93
103
194
89
92
212
87
81
180
64
109
0
0
253
23
5
235
37
8
225
51
10
213
116
19
158
98
20
172
81
20
186
65
20
199
50
18
211
36
15
222
22
10
234
3
1
251
154
94
111
181
120
81
165
121
93
148
119
104
134
116
115
119
113
125
106
110
135
94
104
145
83
99
153
72
93
163
62
86
171
53
78
181
45
71
189
38
64
197
31
55
204
26
48
212
21
41
219
16
33
225
13
27
232
10
21
237
7
16
240
1
3
251
0
0
255
0
0
255
50
122
149
47
113
157
48
114
157
22
52
211
0
0
255
0
0
255
6
13
242
8
16
239
13
23
235
16
27
230
21
33
226
25
39
218
31
46
212
38
52
207
46
58
199
54
64
193
63
70
184
74
76
177
83
79
169
95
84
160
107
86
151
122
90
142
136
91
132
150
93
122
167
92
111
184
91
100
203
88
87
228
87
69
44
15
219
16
4
241
28
6
232
45
9
218
111
20
163
92
20
177
75
21
190
59
20
204
44
17
216
30
13
228
17
9
239
0
0
255
204
129
72
173
122
88
155
120
99
141
119
111
125
115
121
112
111
132
98
107
141
86
101
152
75
96
160
65
88
170
55
80
179
47
73
188
38
64
197
31
57
204
24
47
213
19
39
221
14
30
227
10
23
235
7
16
240
1
1
253
20
52
210
67
175
106
89
235
62
87
233
61
81
215
71
82
216
72
84
214
73
89
222
66
95
230
65
104
239
71
49
110
161
0
0
255
1
3
251
8
16
239
12
23
235
19
30
227
23
37
222
29
43
215
38
50
207
47
57
200
55
64
192
64
70
184
76
75
176
87
80
166
99
85
158
112
88
149
126
90
139
142
91
128
159
91
118
174
91
107
191
88
95
210
85
82
255
87
70
0
0
255
22
5
237
37
8
225
105
21
168
87
21
182
69
21
196
54
20
208
39
16
221
25
11
233
13
7
242
99
61
161
181
121
81
165
121
93
148
121
106
132
118
115
118
114
127
104
110
137
92
104
147
79
98
156
67
89
167
57
83
176
49
75
186
39
66
194
31
57
203
25
48
212
19
38
221
14
29
229
9
20
236
4
12
243
20
53
209
65
174
105
81
226
61
74
215
70
71
211
74
68
208
77
68
206
79
69
205
81
71
204
81
74
204
81
77
206
79
81
208
78
88
210
77
101
229
69
82
178
104
0
0
255
7
13
243
11
20
237
16
27
230
23
36
223
30
43
215
38
49
208
47
57
200
57
64
191
67
70
183
79
76
174
90
80
165
103
85
155
118
86
145
132
89
135
148
90
125
166
90
114
183
88
101
201
87
89
220
82
77
120
39
158
16
4
241
30
7
231
100
20
172
82
21
186
66
21
199
49
19
212
34
15
224
20
9
236
0
0
255
214
134
75
176
122
86
158
121
98
141
120
110
126
117
121
111
113
132
97
107
142
85
101
151
72
93
162
62
87
173
51
79
181
41
69
192
34
60
201
26
51
210
19
41
219
14
29
229
8
21
236
1
3
251
16
43
219
84
237
59
72
216
70
67
209
76
62
204
79
60
199
83
58
196
87
58
193
89
58
192
91
60
192
91
62
194
90
65
194
89
71
197
87
77
201
86
84
205
82
90
208
79
110
236
74
20
41
220
4
10
245
11
19
238
16
26
232
23
36
223
31
43
215
39
51
207
48
58
198
60
66
190
70
70
180
83
77
171
95
81
161
110
85
152
124
88
142
140
89
131
157
90
118
174
89
108
193
87
95
213
84
83
255
85
69
0
0
255
24
5
235
95
21
175
77
23
190
61
20
203
44
18
215
30
14
227
17
8
239
47
28
211
194
126
71
169
124
90
152
121
102
135
119
114
120
115
125
106
111
136
91
105
147
79
98
157
66
91
167
56
83
177
47
73
187
37
64
197
27
53
206
21
43
215
15
33
225
9
21
236
4
11
244
41
113
158
78
228
59
68
213
72
62
206
78
57
199
83
53
193
88
49
188
92
48
183
96
47
181
99
49
179
101
49
180
100
53
181
101
55
183
99
60
186
97
66
190
94
73
195
91
80
200
87
89
206
82
106
226
72
54
108
163
0
0
255
11
19
238
18
27
231
23
35
222
33
44
214
42
52
205
53
61
195
64
67
187
76
73
177
89
79
169
103
83
158
118
86
148
133
87
136
149
89
126
167
89
115
185
87
101
204
85
88
232
80
68
55
17
211
18
4
240
91
22
178
74
22
192
57
21
206
41
16
219
26
13
232
13
7
242
101
62
160
182
122
81
164
124
94
146
121
105
130
119
118
115
114
128
100
109
140
87
104
151
74
96
161
62
88
172
51
79
181
42
69
192
33
60
202
24
47
212
17
36
222
10
25
233
5
15
241
15
44
217
80
237
58
67
213
72
58
205
78
53
196
85
46
188
91
43
181
97
40
175
101
39
171
106
39
168
109
38
166
110
41
166
111
43
168
110
46
170
110
52
175
107
56
179
104
64
184
100
71
191
95
80
197
90
89
203
85
99
209
80
55
107
163
5
11
245
12
19
237
19
28
229
27
38
220
36
47
212
47
55
202
56
62
192
69
70
183
82
75
174
95
80
164
111
84
154
126
86
142
142
88
130
160
87
118
178
88
107
198
84
94
218
81
80
186
59
107
4
1
250
87
22
181
69
22
196
54
20
208
39
16
221
24
11
234
10
5
244
89
57
171
177
123
85
159
123
98
141
120
108
126
118
121
110
113
131
96
108
143
83
101
154
69
93
165
58
84
175
47
74
185
37
65
196
28
54
207
20
42
217
14
30
228
7
18
238
0
0
255
85
249
62
67
215
70
58
206
77
51
196
85
44
187
93
39
178
99
34
169
105
31
162
111
30
157
116
30
154
120
30
152
122
31
152
122
34
154
121
39
158
119
44
163
117
48
168
113
55
173
108
64
181
104
72
188
99
82
196
92
92
202
86
112
223
75
21
40
221
7
13
243
14
22
236
22
32
226
31
41
217
40
49
207
51
58
198
63
65
189
77
72
178
89
76
168
104
80
157
119
85
147
136
86
136
154
87
124
172
87
111
191
85
99
211
81
85
248
80
66
0
0
255
86
22
184
67
23
198
51
20
211
35
15
223
21
10
236
0
0
255
213
136
76
173
124
87
154
123
100
137
121
112
121
118
124
106
113
134
91
107
145
79
100
158
66
92
167
55
83
179
44
72
189
34
61
200
25
51
210
18
39
222
11
26
233
5
14
242
41
115
156
69
219
67
59
210
75
52
198
83
43
187
90
37
177
100
31
166
108
28
157
114
25
149
121
23
143
127
23
139
131
23
137
132
25
138
133
27
140
132
31
143
131
36
150
126
42
156
123
48
163
117
56
171
112
65
180
106
74
186
101
85
195
94
97
202
86
120
230
79
0
0
255
9
15
241
18
26
231
26
36
222
36
45
213
47
54
203
57
61
193
71
70
183
84
75
173
98
79
162
114
83
152
130
85
141
148
87
128
166
87
116
185
84
104
205
82
90
225
76
76
133
39
149
83
23
186
66
21
199
49
19
212
33
15
225
19
9
236
0
0
255
202
132
73
170
125
90
152
125
103
135
121
115
119
117
126
102
112
137
89
106
149
75
98
160
63
90
170
52
80
181
41
70
192
32
59
202
23
47
214
16
35
225
8
21
236
0
0
255
83
249
61
64
215
70
55
204
78
45
192
88
38
180
98
30
168
107
25
156
115
21
145
124
18
136
131
15
128
137
15
124
143
17
121
145
18
122
145
21
125
143
26
130
142
30
137
136
36
146
131
42
153
127
51
162
120
59
170
113
69
180
107
79
188
100
90
196
92
103
202
86
94
171
110
1
2
252
13
20
237
21
30
226
31
40
217
42
50
207
53
57
197
67
66
188
79
72
176
94
77
166
109
80
156
126
84
144
143
86
133
162
86
121
180
84
107
200
81
93
222
77
80
111
34
165
82
24
187
63
22
201
47
19
214
32
15
227
18
10
238
0
0
255
199
132
72
168
125
92
149
124
104
133
121
116
116
117
127
101
111
139
86
104
151
73
97
161
62
89
172
49
80
182
39
68
193
30
57
204
21
44
216
13
31
227
7
19
238
19
55
208
74
231
58
60
212
73
49
200
82
41
186
91
32
173
101
26
160
112
20
146
123
16
133
132
13
122
142
11
113
150
11
107
155
11
104
158
13
106
158
17
111
156
21
117
152
25
124
147
30
134
141
37
143
133
45
152
128
53
162
121
63
171
113
74
181
106
85
190
98
97
198
90
115
212
77
28
49
212
9
15
241
18
26
231
27
36
221
38
46
211
49
55
201
63
63
191
76
69
180
91
75
170
104
79
158
122
83
148
139
85
136
157
86
123
176
84
111
196
82
98
216
77
83
247
74
65
79
22
187
62
22
202
46
19
215
31
15
227
17
10
239
0
0
255
197
134
73
166
125
93
148
124
105
131
121
117
114
117
128
100
112
140
85
105
152
72
97
163
60
88
174
48
78
184
38
68
195
28
55
206
20
42
217
13
29
229
7
16
240
40
118
154
69
222
66
57
209
75
46
197
84
36
183
94
30
168
105
22
154
115
16
138
128
12
123
141
7
108
152
6
97
162
6
90
169
7
88
172
10
90
172
12
94
169
15
103
163
21
112
157
26
121
150
33
133
143
41
143
136
48
153
127
59
164
120
69
174
112
81
184
104
93
193
95
105
201
87
55
97
173
7
11
244
15
22
236
24
32
225
35
42
215
46
51
204
58
59
195
72
67
184
86
72
173
100
77
162
118
81
150
134
82
138
153
84
126
172
83
114
192
81
100
212
77
85
235
71
70
80
24
188
62
22
203
46
19
214
30
14
227
16
9
239
0
0
255
196
134
73
165
128
93
147
125
107
130
122
117
115
117
130
98
111
141
85
105
152
70
97
161
59
89
174
48
77
185
37
67
196
28
55
207
20
42
218
11
28
230
6
15
241
38
116
155
67
221
67
55
208
75
46
196
86
35
181
95
27
166
107
19
150
119
14
133
132
8
115
147
5
96
162
3
80
176
3
71
186
4
69
189
6
72
187
9
80
182
13
89
175
18
100
168
23
111
158
30
123
150
37
136
142
46
146
133
55
159
125
66
169
117
77
178
108
89
188
100
103
197
92
129
225
83
0
0
255
12
18
238
22
29
228
32
39
218
44
48
207
55
56
197
69
64
187
83
71
176
99
75
165
114
80
154
132
82
141
150
82
129
169
83
116
189
81
103
209
78
88
232
72
73
79
24
188
63
22
202
45
19
215
30
14
227
16
9
239
0
0
255
195
135
73
165
128
93
147
125
106
130
122
117
114
118
129
98
112
140
85
105
152
72
97
163
58
88
173
48
79
185
38
68
195
28
55
207
20
43
218
11
28
230
6
15
241
38
118
154
65
222
65
55
209
75
45
196
85
34
182
95
27
166
106
19
150
119
12
131
133
7
111
149
3
86
171
0
63
191
1
50
205
2
49
207
4
55
203
7
65
195
10
76
186
16
90
177
20
103
167
29
115
157
35
127
149
44
140
139
53
152
131
63
164
121
75
175
112
86
184
104
99
193
95
119
208
80
30
48
214
10
15
241
19
25
231
28
36
221
41
47
210
53
55
200
67
63
189
81
69
177
95
75
167
112
78
155
129
81
143
148
82
131
165
82
118
187
80
104
207
77
91
229
72
75
80
24
188
63
23
202
46
19
214
31
16
227
17
10
239
0
0
255
197
136
74
165
127
93
148
126
105
130
124
117
115
119
129
100
113
141
85
106
151
71
97
162
59
89
174
48
79
183
38
68
194
28
56
205
20
44
217
13
31
228
7
17
240
42
128
147
66
223
64
56
212
73
46
199
83
35
185
93
28
170
104
21
155
115
13
137
127
8
117
144
4
90
168
1
30
225
0
14
240
2
29
227
4
39
219
6
53
206
9
66
196
15
80
185
20
95
174
27
109
164
33
122
154
42
134
144
51
148
134
62
160
126
73
169
117
85
181
107
99
190
98
113
198
90
63
103
167
8
12
243
18
24
233
28
35
222
39
44
212
52
54
202
64
61
190
80
68
180
94
73
168
110
76
157
127
80
145
145
82
133
164
81
120
184
80
107
206
77
92
228
72
78
81
23
187
65
23
200
47
19
213
33
16
225
18
10
237
0
0
255
199
136
75
167
129
91
149
126
104
133
124
117
116
119
127
101
114
139
88
107
150
73
100
160
61
91
172
50
81
183
38
70
192
30
60
204
21
46
214
13
32
226
7
20
237
0
0
255
74
243
57
57
216
70
47
204
78
37
191
88
30
178
97
23
164
108
17
150
118
12
137
127
8
127
134
10
197
67
11
199
67
0
0
255
2
25
231
5
42
217
8
57
203
13
74
191
18
88
179
24
103
168
33
118
159
41
131
147
50
143
138
61
157
128
72
167
118
84
178
110
99
188
101
112
196
92
62
101
169
7
11
245
17
22
235
26
33
224
38
43
213
49
51
203
64
60
193
78
67
181
92
71
170
110
77
159
127
79
146
144
81
135
162
80
120
184
80
107
204
76
94
227
71
78
84
24
185
66
23
199
49
20
212
35
17
224
19
9
236
0
0
255
202
137
76
169
129
91
151
128
102
134
124
114
118
121
126
104
116
137
89
109
148
75
101
158
63
93
170
51
82
180
41
73
190
31
61
201
24
51
211
16
37
222
9
24
234
1
3
251
56
182
102
61
223
66
51
211
75
42
199
82
33
188
90
28
177
98
20
167
103
17
162
107
15
168
99
15
195
72
19
226
46
12
133
132
2
17
238
4
36
223
8
53
208
13
69
195
19
84
183
25
99
171
32
115
160
42
128
150
50
141
140
61
153
130
73
165
122
84
175
111
97
186
102
112
194
93
99
157
122
1
2
251
16
21
237
25
31
225
38
42
215
50
51
204
62
58
193
77
66
183
92
70
171
108
75
159
126
78
148
144
79
134
163
79
122
183
79
108
205
75
94
227
70
79
85
23
183
67
23
197
52
21
211
36
17
222
23
13
235
3
1
251
149
101
115
173
130
89
155
129
102
138
127
113
121
122
124
105
116
135
92
111
146
78
103
156
66
96
167
54
86
177
44
76
187
34
66
197
25
53
208
18
42
218
12
29
230
6
18
239
17
54
208
72
245
56
56
220
68
48
209
76
40
200
82
33
191
87
28
186
92
24
184
90
22
191
82
24
207
68
25
228
49
14
122
145
2
15
241
5
34
226
9
50
212
13
66
198
19
82
186
26
98
174
33
112
162
42
126
151
51
140
141
62
152
132
74
163
123
85
174
114
99
185
104
113
193
95
137
213
86
0
0
255
15
20
237
26
32
225
37
40
215
49
49
204
64
59
193
77
64
183
93
71
172
109
75
159
126
78
148
144
79
135
164
79
122
183
76
107
205
74
94
228
69
79
89
25
182
70
24
196
55
22
208
39
18
220
25
12
232
11
6
244
96
65
164
176
130
87
158
130
99
141
127
110
124
124
122
111
120
133
95
114
143
81
107
152
69
99
164
59
90
174
48
80
184
38
70
193
28
59
204
22
48
214
15
36
224
8
24
234
4
13
243
36
119
155
61
228
63
53
220
67
46
213
72
40
206
77
35
202
78
33
204
76
30
209
70
31
220
60
34
234
49
20
136
136
3
18
238
6
35
225
10
51
211
15
67
198
21
83
185
28
98
174
36
113
163
44
126
152
54
139
143
64
151
133
75
163
123
88
174
114
102
183
105
115
191
95
144
218
89
0
0
255
15
20
237
25
30
226
38
41
215
50
49
204
63
57
193
78
64
183
94
70
172
109
75
159
127
76
148
144
78
135
164
78
122
185
76
108
205
74
94
228
67
78
93
25
178
75
25
192
57
23
205
42
19
218
28
15
230
14
8
241
45
30
213
187
135
77
163
130
96
146
130
108
130
126
118
114
121
128
100
117
139
85
110
150
74
101
160
62
94
170
52
86
180
43
76
189
32
64
199
25
55
209
19
43
217
12
32
227
7
22
236
0
0
255
36
120
154
67
248
54
54
225
63
48
221
66
43
218
66
41
220
66
40
225
60
40
234
53
35
201
81
0
0
255
4
24
233
8
40
220
12
55
209
18
71
196
24
85
185
30
100
173
39
114
163
46
127
152
56
140
142
67
152
133
78
163
123
91
173
113
104
183
105
118
192
95
60
91
177
6
10
245
17
21
236
26
32
225
38
40
215
51
50
204
65
57
193
80
63
182
96
70
170
111
74
159
128
76
147
146
78
135
166
76
120
186
76
107
207
71
93
230
66
77
96
25
176
79
25
189
62
24
203
47
20
214
33
16
226
19
11
238
0
0
255
206
145
80
169
131
92
151
130
103
135
128
114
119
123
125
106
119
137
91
113
145
79
106
156
66
98
165
57
90
175
48
82
184
39
72
194
30
61
202
23
52
212
17
41
220
12
31
229
7
21
236
4
13
243
15
55
207
49
185
100
62
250
52
59
249
50
55
251
48
55
255
49
25
123
149
0
0
255
4
20
237
7
33
227
11
47
215
16
62
204
20
75
192
27
89
182
33
103
172
42
117
161
50
129
150
59
141
141
69
153
130
82
163
122
95
174
113
107
183
103
122
191
94
66
98
170
8
11
244
18
22
234
28
32
224
40
42
213
54
51
203
66
57
192
81
65
181
96
69
169
113
73
158
131
76
145
148
76
133
169
76
120
189
74
107
210
71
93
233
65
76
101
25
172
82
26
186
66
24
198
51
22
211
36
17
222
23
11
234
11
7
244
88
62
173
174
133
88
157
133
100
141
130
110
126
127
121
111
121
131
97
117
141
85
110
151
74
104
160
63
96
170
52
87
178
42
78
187
35
69
196
28
61
204
22
51
212
17
42
220
13
34
227
8
24
234
6
18
240
1
4
250
0
0
255
0
0
255
0
0
255
0
0
255
3
15
241
4
22
235
8
32
228
11
44
218
15
56
209
19
68
198
26
82
189
30
94
178
37
107
169
45
120
158
54
132
148
65
144
138
74
155
130
86
165
120
99
175
111
112
184
101
125
190
93
76
107
162
10
13
243
20
23
232
30
33
223
43
43
212
56
51
201
69
57
190
84
64
180
100
69
167
116
73
156
134
76
144
152
75
131
172
76
118
192
73
105
213
69
91
236
62
74
107
25
168
88
24
181
72
25
195
56
23
207
41
19
219
26
15
231
16
9
241
45
30
212
188
138
78
164
132
95
148
132
106
132
129
116
117
124
126
104
120
137
91
114
146
80
108
155
69
101
164
59
94
173
49
85
180
41
78
189
35
68
197
27
60
203
23
53
211
18
44
218
14
38
223
11
31
229
8
26
233
7
23
235
6
21
236
5
21
236
6
24
233
7
28
231
10
37
225
13
44
218
15
54
210
19
65
202
25
77
192
29
89
183
36
102
174
43
113
164
50
124
155
60
136
146
69
147
137
80
157
128
92
168
118
104
177
109
118
184
101
142
205
86
0
0
255
12
15
240
22
25
230
34
36
221
45
44
210
58
52
199
72
59
188
87
64
178
103
70
167
118
72
154
137
74
142
155
75
129
175
74
116
194
71
102
217
67
87
239
62
73
112
25
164
94
26
177
77
26
190
63
25
202
46
21
214
33
17
225
20
11
237
1
0
252
147
104
118
172
135
89
155
133
101
140
131
112
124
127
121
111
123
131
98
119
140
87
114
149
76
107
157
66
99
166
57
93
174
49
85
181
41
77
190
34
70
195
28
63
202
24
56
208
20
50
214
16
43
218
15
41
221
12
38
223
13
37
224
12
37
224
13
39
222
14
44
219
14
48
214
18
57
208
22
66
202
25
75
193
29
86
185
36
97
178
42
109
169
49
118
160
57
130
151
66
141
142
76
150
133
86
160
124
98
169
116
111
179
106
124
186
97
153
212
92
0
0
255
15
18
238
25
28
228
37
38
217
48
46
207
62
53
197
76
60
186
91
65
175
107
70
164
124
72
152
141
73
140
159
74
127
179
72
114
199
70
100
220
65
86
243
59
69
119
24
159
101
27
172
83
27
185
68
25
198
53
23
210
39
20
222
26
14
231
14
8
242
44
30
213
188
140
79
164
135
96
148
133
105
134
131
116
120
127
124
108
124
134
95
118
142
84
113
151
74
106
159
64
100
167
57
94
174
49
86
180
42
80
187
36
74
194
31
68
198
26
62
203
24
57
207
21
53
210
20
52
212
18
50
213
19
52
213
19
55
210
20
58
208
21
63
204
26
70
199
27
77
193
32
85
186
36
95
178
42
105
171
48
115
163
56
125
154
63
136
147
73
145
137
83
156
129
93
163
120
105
173
112
117
180
104
131
187
94
71
98
168
9
11
243
19
22
235
29
30
224
40
40
215
53
48
204
67
56
194
80
61
183
96
66
172
110
70
162
128
72
149
146
73
137
165
72
124
184
72
111
205
68
97
227
62
82
248
59
66
126
25
153
107
26
167
91
27
180
75
25
192
60
24
204
45
21
216
31
16
226
20
11
237
2
1
252
147
107
118
174
137
89
157
135
99
142
133
109
129
132
119
116
127
127
104
123
136
93
118
145
82
113
151
73
107
159
65
102
166
57
96
172
50
90
178
44
84
184
40
79
189
34
74
192
32
71
197
28
67
199
27
65
201
25
65
201
25
65
201
26
68
200
27
71
196
28
75
194
31
81
189
35
88
184
39
96
178
43
104
171
50
114
164
56
123
156
64
133
149
71
141
141
80
151
132
91
159
125
102
168
116
113
175
107
126
182
99
155
209
92
0
0
255
12
14
240
23
25
231
33
34
221
45
42
211
58
50
201
71
57
191
85
62
181
100
66
169
117
70
158
134
72
146
152
73
134
170
71
120
190
70
107
210
66
93
232
61
79
187
43
110
132
25
147
116
26
162
99
26
175
82
27
186
66
25
199
53
23
210
40
20
221
26
15
232
15
9
240
46
32
212
197
146
80
167
137
92
153
136
102
139
133
113
126
131
120
114
127
128
103
123
137
92
119
145
83
115
152
75
109
157
66
103
164
59
99
169
54
94
174
49
90
179
44
86
184
40
83
186
38
81
189
36
78
190
36
79
191
34
78
191
35
81
189
36
84
187
38
89
184
40
94
180
43
99
175
46
106
168
52
114
163
59
123
156
66
130
149
73
138
142
81
148
135
89
155
127
99
164
119
111
171
112
122
178
103
136
184
96
73
94
170
9
11
244
18
20
236
27
28
227
38
37
217
51
45
207
64
51
197
76
58
187
91
63
176
106
66
165
122
70
154
140
71
142
158
71
130
176
70
117
196
68
104
217
63
89
238
58
73
127
28
155
140
25
140
124
25
155
106
27
168
90
28
181
75
26
192
61
25
204
46
21
214
35
19
225
22
13
235
12
8
243
36
26
221
185
143
80
164
137
96
149
137
104
137
136
113
124
132
121
114
129
130
103
124
136
93
121
143
85
117
150
77
112
156
70
108
161
64
104
166
58
101
170
53
96
174
50
94
176
47
92
178
45
91
179
44
91
179
43
92
179
43
93
179
45
96
176
47
101
174
49
104
170
52
110
167
58
117
161
61
123
154
68
130
150
74
137
144
82
145
137
90
153
129
100
161
123
109
167
114
120
175
107
132
182
99
160
206
93
0
0
255
13
15
240
22
24
231
33
32
222
44
41
213
57
48
202
69
54
193
83
60
183
97
64
172
113
68
161
129
70
150
146
70
138
165
71
126
183
69
113
204
65
99
224
59
83
251
59
62
60
13
208
146
25
133
132
25
147
115
26
161
99
27
173
84
27
186
69
26
198
55
24
208
43
21
218
30
17
228
19
11
237
2
1
252
155
113
110
175
139
89
162
139
97
148
139
106
137
136
115
125
134
122
114
130
129
104
127
135
96
123
141
88
121
147
81
117
152
75
113
155
69
110
160
65
108
164
62
105
166
58
103
168
56
102
170
54
103
170
54
103
170
54
105
169
55
108
167
57
111
164
59
115
161
64
121
157
67
126
152
72
132
148
77
139
142
85
146
135
92
152
130
102
159
122
111
165
116
121
172
108
131
178
100
153
195
88
28
35
222
10
12
243
19
20
236
28
28
226
38
36
217
51
44
208
62
50
197
76
57
188
90
61
178
105
64
167
120
68
156
136
69
145
154
69
133
172
68
120
192
66
108
211
61
93
233
58
79
255
62
62
0
0
255
155
25
124
140
26
140
126
26
154
109
28
167
93
28
179
79
27
190
64
26
201
52
23
211
39
20
221
27
16
230
16
10
239
0
0
255
154
116
112
175
141
89
161
141
98
148
140
106
137
137
113
126
136
119
117
133
126
108
130
133
100
127
138
93
124
143
86
121
147
81
119
152
76
117
155
72
115
156
70
114
158
67
114
160
65
113
160
65
114
160
66
116
159
66
118
157
69
122
154
71
125
151
75
130
148
78
135
144
84
140
139
90
147
133
95
152
128
104
158
122
113
164
115
122
170
109
131
175
102
142
180
95
77
94
171
7
9
245
16
17
239
25
25
229
36
34
220
46
39
212
57
47
202
71
53
192
83
57
183
97
62
172
113
66
162
129
67
151
145
68
140
162
68
128
180
67
115
200
63
100
219
59
88
238
57
73
117
25
162
15
3
242
162
25
117
148
26
132
134
26
146
119
27
160
103
28
171
88
28
183
74
27
194
61
25
204
48
23
214
37
20
223
25
15
232
16
10
240
0
0
255
152
116
112
174
142
89
162
142
96
151
141
104
140
139
111
130
137
118
121
135
123
113
134
129
105
131
133
99
129
138
93
127
141
89
126
144
85
124
147
82
123
148
79
123
150
79
124
150
77
124
150
78
126
150
79
129
148
81
131
145
84
134
143
86
138
139
91
144
134
95
147
130
103
153
126
109
159
122
116
164
114
124
169
108
134
174
101
144
178
96
127
152
119
0
0
255
15
16
240
23
23
231
33
30
223
43
38
215
54
45
207
66
51
197
77
55
187
92
59
177
106
63
167
121
66
157
137
67
145
153
67
134
171
66
122
189
64
109
209
61
95
229
56
80
252
57
59
60
13
207
21
4
237
171
24
107
156
25
123
142
27
139
130
27
151
115
28
163
99
30
176
84
28
186
71
28
196
58
25
206
46
23
215
35
19
224
24
15
233
15
10
240
0
0
255
153
118
113
182
149
83
163
143
95
154
143
103
144
142
108
135
141
114
127
139
119
119
137
124
113
136
129
107
135
131
102
134
134
98
132
137
95
132
138
93
132
140
91
133
140
92
134
140
91
136
139
93
138
138
94
140
136
97
143
133
101
147
130
105
151
126
109
155
122
115
159
116
122
163
112
130
169
107
139
173
101
153
183
89
128
149
119
0
0
255
13
14
240
22
22
233
32
29
225
40
35
216
51
42
208
62
48
200
74
53
190
88
57
180
101
61
171
115
65
162
130
66
150
146
67
139
163
65
127
181
64
114
200
62
103
219
57
89
236
56
74
195
43
103
3
0
251
26
5
233
179
23
99
167
25
112
152
26
128
139
27
142
125
27
155
110
29
166
96
29
176
82
29
188
69
27
198
57
25
207
45
23
216
36
20
224
25
15
232
17
11
239
3
1
251
35
27
221
199
160
86
167
145
94
158
146
99
150
144
104
140
143
109
134
143
114
127
142
118
122
142
122
117
140
124
113
140
127
110
141
129
107
140
129
105
140
130
105
142
130
106
144
130
107
145
128
108
147
126
110
151
123
113
153
121
119
157
118
124
160
113
130
165
109
136
168
104
144
172
98
164
188
90
30
34
223
2
1
252
15
15
240
22
22
233
30
28
226
39
35
218
49
40
210
60
46
201
71
51
193
84
57
183
97
59
173
110
63
165
125
65
154
141
66
144
157
65
132
173
65
120
192
63
109
211
58
96
229
55
80
251
56
59
59
12
208
18
3
239
31
5
228
188
22
88
175
25
104
162
26
119
149
27
133
136
27
145
122
28
158
108
30
169
94
29
178
80
29
189
69
28
198
57
25
207
46
24
216
36
20
223
27
16
230
19
12
239
12
8
243
0
0
255
150
120
115
180
152
83
165
148
95
158
147
100
149
147
104
143
146
108
137
146
111
132
146
113
128
146
116
125
146
119
123
146
120
121
147
119
121
149
120
121
150
119
122
152
118
124
153
116
127
157
114
129
159
111
134
163
107
139
166
104
145
169
100
156
178
89
123
137
127
38
40
215
9
9
244
16
15
240
22
22
233
31
28
226
40
34
218
49
39
210
59
46
201
70
49
194
82
54
186
93
58
176
107
61
168
121
63
157
136
65
147
151
64
137
168
63
124
185
61
113
203
59
101
221
56
87
236
55
73
195
41
101
1
0
253
24
4
234
38
6
222
197
21
78
183
24
95
171
25
108
159
26
121
147
28
135
134
28
148
120
29
159
105
30
171
93
30
179
80
30
189
69
29
197
59
27
207
47
24
215
38
21
222
29
17
228
21
13
236
15
10
241
2
1
251
43
35
213
141
116
122
179
156
85
166
151
94
159
150
97
154
150
101
148
151
104
146
151
107
142
152
107
139
152
108
139
154
109
137
155
110
138
156
110
139
157
108
140
160
106
142
162
105
145
165
101
150
168
98
161
175
89
125
134
127
37
38
216
1
1
253
12
12
242
18
17
237
24
22
230
33
28
224
41
34
217
49
39
210
59
43
203
70
49
196
80
52
186
93
57
178
105
59
169
119
61
159
132
63
149
148
64
140
163
63
129
179
63
118
197
59
105
215
56
93
230
55
79
252
55
57
59
12
207
17
3
240
31
5
228
45
6
215
207
19
66
194
22
82
181
25
98
169
27
112
157
28
125
145
28
137
134
28
148
120
30
161
105
30
170
93
30
179
81
30
189
70
29
196
60
27
205
51
25
212
42
23
218
34
21
226
26
18
232
19
12
237
13
9
242
2
1
252
45
36
213
83
71
174
195
168
90
183
165
87
165
153
93
163
154
95
158
156
97
156
157
98
154
158
99
154
160
100
154
160
98
155
162
98
157
164
96
165
171
89
179
184
93
75
79
178
38
39
215
1
1
253
11
10
244
17
16
240
22
20
234
28
24
228
36
30
222
42
35
216
51
39
210
61
44
201
71
49
195
81
52
186
93
55
178
104
58
169
117
60
160
130
61
152
145
63
142
159
61
131
176
61
120
193
60
109
209
56
97
226
54
83
238
53
70
206
42
90
2
0
251
25
4
233
39
6
221
54
7
207
217
18
55
204
21
71
191
23
86
179
25
100
167
27
114
156
28
126
145
28
137
133
29
150
120
30
160
106
31
170
95
31
178
84
31
187
73
30
194
63
28
202
54
26
209
47
25
216
39
22
222
32
21
227
25
17
232
21
14
238
14
10
241
12
9
243
0
0
255
0
0
255
98
85
162
89
79
169
87
80
171
79
75
179
190
176
92
133
126
126
84
81
172
85
83
171
87
85
170
40
38
214
0
0
255
9
9
245
12
11
242
16
15
239
22
20
234
27
23
229
32
26
225
39
31
220
48
36
213
55
40
207
64
44
200
73
48
193
82
51
185
93
54
179
105
58
169
116
60
161
129
61
152
142
62
143
158
61
134
172
61
123
189
58
112
205
55
101
221
54
87
234
53
74
255
56
56
0
0
255
20
3
237
32
5
227
47
6
213
60
7
201
227
16
43
214
19
59
203
22
73
191
24
87
179
26
101
168
28
114
157
29
126
145
29
138
135
30
149
121
31
159
108
31
167
98
33
176
87
32
185
77
32
192
68
30
199
59
28
205
51
26
211
44
24
217
39
23
222
32
20
225
27
18
230
23
16
234
19
13
238
16
12
240
13
10
242
11
9
244
9
7
245
9
7
245
0
0
255
2
2
251
10
8
245
10
9
244
12
11
243
15
12
240
17
15
239
20
16
236
24
20
232
28
22
229
33
26
224
38
30
220
45
34
215
51
37
209
59
41
204
67
45
197
75
48
191
85
51
185
95
54
177
107
56
169
117
57
161
130
60
152
144
61
143
156
59
133
171
59
124
186
56
113
204
55
101
219
53
89
230
53
77
251
52
55
49
9
215
16
3
241
29
5
230
41
6
219
56
7
205
69
7
192
237
13
30
225
16
45
212
19
61
201
23
76
190
25
89
179
27
102
168
28
114
157
29
126
146
30
138
136
30
147
124
31
157
112
33
166
101
33
174
92
33
181
83
33
187
73
32
195
66
31
200
59
29
206
52
28
212
46
26
215
39
23
220
36
22
224
32
22
227
29
20
229
26
19
231
23
17
233
22
17
235
21
16
236
21
16
236
21
16
237
21
16
235
23
18
234
23
19
232
26
21
231
29
22
227
32
24
226
37
28
223
41
30
218
47
33
214
51
36
210
58
39
205
65
43
200
72
45
195
81
49
188
89
51
181
99
53
174
109
55
167
121
57
160
131
59
152
144
58
144
158
58
133
171
57
124
185
56
114
202
54
104
215
53
92
228
52
78
239
51
66
206
40
88
3
1
252
24
4
234
36
6
224
50
6
210
64
6
196
77
7
184
255
10
10
235
14
33
224
17
47
213
21
62
202
24
77
191
25
88
179
28
103
170
28
113
158
29
125
149
30
135
139
31
146
128
31
154
117
33
162
107
34
171
97
34
176
89
34
183
81
33
189
74
33
195
66
31
199
60
31
205
55
29
209
50
27
212
47
27
216
42
25
218
39
24
221
38
24
222
36
24
224
34
23
224
34
23
225
34
23
225
35
24
224
36
25
223
37
26
222
39
27
220
42
29
218
46
32
215
49
34
212
54
37
209
60
39
204
65
41
200
72
43
194
79
47
190
86
50
184
95
51
178
104
54
172
114
55
165
124
56
157
135
57
149
147
58
141
160
57
132
171
56
123
186
54
113
202
52
104
214
52
92
227
51
79
237
50
67
205
40
90
0
0
255
20
3
237
33
5
226
46
6
214
59
6
201
72
6
189
86
6
174
51
2
206
255
12
12
235
15
34
223
18
49
213
21
62
202
24
76
192
26
88
181
28
101
172
29
111
161
30
122
153
31
132
143
31
142
133
32
150
123
33
158
113
34
166
104
35
172
97
35
178
90
35
183
82
35
189
76
34
194
69
33
197
66
33
201
61
32
204
57
31
207
54
30
209
51
31
211
50
29
212
50
30
213
49
29
214
48
30
214
49
31
213
49
32
212
51
33
211
54
35
209
56
35
206
60
38
204
65
40
201
69
41
198
74
44
193
80
46
190
86
48
185
93
50
180
101
51
173
109
52
168
118
54
161
129
56
154
138
56
147
150
57
139
162
56
132
175
55
122
189
53
113
202
51
103
214
51
91
225
51
80
237
49
66
255
53
53
0
0
255
18
3
239
30
5
229
42
5
217
56
6
204
68
6
192
81
6
179
94
5
165
16
0
239
48
1
207
255
13
13
236
16
34
225
19
48
215
22
61
203
24
75
194
27
87
184
28
98
174
29
109
166
31
119
157
31
129
149
31
136
140
32
146
130
33
152
121
34
160
113
34
166
105
36
172
97
36
177
92
37
181
86
36
185
82
37
189
77
36
193
73
35
195
70
36
198
67
35
199
66
35
201
64
35
202
63
35
202
63
36
202
64
37
201
64
37
201
66
38
199
68
39
198
72
40
196
75
41
193
79
43
190
84
45
186
89
46
182
96
48
178
102
50
173
109
51
168
118
53
163
126
53
157
135
54
149
144
54
143
156
55
136
167
54
127
179
53
119
191
52
111
204
51
101
215
51
90
225
50
79
236
48
66
255
50
50
50
9
214
17
3
240
28
4
230
40
5
219
53
6
207
65
6
195
77
6
183
90
5
169
103
4
155
26
0
229
16
0
239
50
2
207
255
13
13
236
16
34
226
20
48
217
22
59
207
24
71
197
26
83
187
28
95
179
29
104
171
31
114
162
31
123
154
32
133
148
33
140
138
33
147
130
35
153
122
36
160
116
35
164
108
37
169
103
38
173
97
37
177
94
38
181
90
39
183
86
38
186
84
39
187
81
39
189
81
40
190
80
40
190
80
40
190
81
40
189
81
41
189
83
42
188
86
42
186
88
44
184
91
45
181
96
46
178
100
47
174
105
48
170
112
51
167
119
51
162
126
53
158
134
53
151
142
53
145
151
53
139
162
53
131
173
51
124
185
51
115
196
50
108
206
50
98
216
49
87
226
48
76
237
47
64
255
49
49
50
9
214
17
3
240
28
4
230
38
5
221
51
5
208
64
6
196
75
6
185
87
5
172
99
4
159
114
3
143
38
0
217
26
0
228
16
0
239
60
2
197
194
10
71
238
16
32
229
20
45
219
22
57
211
25
68
201
26
79
193
28
89
184
29
99
176
31
109
168
32
118
161
33
126
154
33
133
148
34
140
141
33
145
133
35
151
126
36
155
121
38
161
115
38
164
111
39
168
107
39
171
103
40
172
100
40
174
99
40
176
98
41
177
97
42
178
97
42
178
97
42
177
98
42
176
100
44
175
102
45
174
106
46
171
109
47
169
112
47
166
118
49
163
123
49
158
129
50
155
136
50
149
143
52
144
152
51
139
159
51
133
170
51
126
181
50
119
190
48
111
200
48
102
210
48
93
219
48
83
229
48
73
238
46
62
194
36
96
60
11
204
17
2
239
28
4
230
38
5
221
50
5
209
62
6
198
73
6
187
85
5
174
98
4
160
111
3
146
124
1
131
50
0
205
38
0
217
28
0
227
17
0
238
0
0
255
206
11
59
241
16
29
232
19
41
223
22
53
214
24
64
207
27
74
198
28
84
190
29
93
183
30
101
175
32
111
170
33
117
163
33
124
156
34
132
151
34
137
145
35
143
140
35
147
135
38
151
129
37
154
126
39
156
123
41
160
120
41
161
117
41
162
115
42
165
115
42
165
114
44
165
115
44
164
116
44
164
118
45
162
121
46
161
122
46
159
128
47
157
130
47
153
137
49
150
141
49
146
149
50
142
154
48
137
163
49
131
169
48
126
180
48
120
188
48
114
197
48
106
205
47
96
214
48
89
222
47
79
231
46
69
240
45
59
206
36
85
0
0
255
17
3
240
28
4
230
38
5
221
49
5
210
62
6
198
73
5
186
83
5
176
96
4
162
108
3
149
121
1
134
134
0
121
61
0
194
50
0
205
40
0
215
30
0
225
20
0
235
0
0
255
129
7
132
254
16
16
237
19
36
228
21
47
221
24
58
213
26
67
204
28
78
197
29
86
191
30
94
184
31
101
178
32
108
172
33
115
168
35
121
161
34
127
158
35
132
154
36
136
149
37
140
145
37
142
142
39
146
140
40
147
137
41
149
136
41
150
134
42
151
134
42
151
135
43
151
136
43
149
138
44
149
139
45
147
143
46
146
146
46
143
151
46
139
155
47
137
162
45
131
167
46
128
175
46
122
182
47
117
189
46
112
196
46
104
203
46
98
211
46
89
219
46
81
227
46
73
236
45
63
253
45
46
128
22
148
0
0
255
20
3
237
30
4
228
40
5
219
50
5
209
62
5
197
73
5
186
83
5
176
96
4
162
107
3
150
119
1
136
131
0
124
144
0
111
