P3
# CREATOR: GIMP PNM Filter Version 1.1
3 3
255
0
252
255
0
18
255
0
16
138
0
18
255
73
81
138
27
32
73
0
16
138
27
32
73
8
13
47
