P3
#dhdj
64 64
255
25
0
230
14
0
241
50
0
205
254
0
1
235
0
20
224
0
31
213
1
42
203
4
54
193
6
67
184
9
78
173
10
91
165
12
101
155
13
113
147
15
122
138
15
132
130
16
140
122
16
148
115
16
155
108
16
162
101
16
169
94
16
176
88
16
180
81
16
186
76
16
190
71
17
195
66
16
199
63
15
201
59
15
204
56
15
207
54
15
208
52
15
210
51
15
212
50
14
212
50
13
212
50
14
212
51
14
212
51
14
211
53
14
210
56
13
208
59
14
205
63
14
202
66
13
200
70
13
197
75
14
192
80
14
188
85
14
183
91
14
177
97
14
172
103
14
165
110
14
158
116
13
151
124
13
143
131
11
134
140
11
125
148
10
116
156
8
105
165
6
95
174
4
84
184
2
72
194
0
61
204
0
51
214
0
41
224
0
31
234
0
21
15
0
240
48
0
207
255
0
0
234
0
21
223
0
32
211
1
44
201
4
57
190
7
71
180
9
82
170
11
95
160
13
107
150
14
118
142
15
128
132
16
138
124
16
146
116
17
155
108
17
163
100
16
170
92
16
177
84
17
183
77
16
189
71
17
195
65
16
200
60
15
203
53
15
209
50
15
211
46
14
215
43
13
217
40
13
220
37
12
222
36
12
224
34
11
225
33
12
226
33
12
226
33
11
226
33
11
226
35
11
224
36
11
223
39
11
222
42
12
219
45
12
216
49
13
214
53
13
210
58
12
206
64
13
202
69
13
198
75
14
192
81
14
187
89
14
180
94
14
174
102
14
166
109
13
159
116
13
151
125
12
142
133
12
133
143
11
122
152
8
111
160
7
101
171
5
88
181
2
76
190
0
64
201
0
54
212
0
43
222
0
33
50
0
205
255
0
0
234
0
21
223
0
32
211
2
45
200
5
59
189
7
72
178
10
86
168
12
98
158
14
110
148
15
121
138
16
132
128
17
143
119
16
151
111
17
160
101
17
170
92
16
177
84
17
183
76
17
190
68
16
197
61
17
203
55
16
208
48
16
213
43
14
217
39
13
221
34
12
225
30
11
228
27
10
231
24
9
233
22
9
235
21
8
236
20
8
237
19
7
237
18
7
238
18
7
238
19
7
237
20
7
237
22
8
236
23
8
234
26
9
232
29
9
230
33
10
226
38
11
223
42
12
220
47
12
216
52
12
211
59
13
206
67
12
199
73
13
194
81
14
187
88
14
180
95
14
173
104
14
164
112
13
155
120
12
147
128
12
138
139
11
126
148
9
115
158
7
103
168
6
92
178
3
79
188
0
66
199
0
56
211
0
44
255
0
0
235
0
20
224
0
31
211
2
45
200
5
60
189
7
73
177
10
87
166
12
101
156
14
112
146
15
123
134
15
135
125
16
145
116
17
156
106
17
165
96
17
173
87
17
182
77
18
190
68
18
197
61
17
202
53
16
209
46
15
215
39
14
220
33
12
225
28
10
230
24
10
233
20
8
237
16
7
240
13
6
242
3
1
251
0
0
255
0
0
255
0
0
255
0
0
255
0
0
255
0
0
255
0
0
255
0
0
255
0
0
255
0
0
255
12
5
243
15
6
241
18
6
239
22
7
235
27
9
232
31
10
228
38
11
223
44
11
218
51
12
214
58
12
207
66
12
201
74
13
193
81
13
186
90
14
178
98
13
170
107
14
160
116
13
151
125
12
141
135
11
130
145
9
118
156
8
106
166
6
94
176
3
80
188
0
67
199
0
56
237
0
18
225
0
30
212
2
44
200
5
59
188
8
74
177
10
87
165
12
101
155
14
113
145
15
125
132
16
138
123
17
148
113
17
159
102
17
169
91
17
177
81
18
186
72
18
194
62
17
202
53
16
208
45
15
215
38
14
220
30
12
227
25
10
232
20
8
236
15
7
241
3
1
250
0
0
255
49
25
210
105
54
159
160
84
110
218
114
58
215
114
60
213
113
61
212
113
62
213
112
62
214
113
62
215
111
62
217
110
61
220
109
60
232
112
50
98
47
168
117
54
152
0
0
255
0
0
255
13
5
242
17
6
239
23
8
235
28
9
231
36
10
225
43
11
219
50
12
213
59
12
206
68
13
199
76
13
191
85
14
183
94
13
173
103
13
164
113
13
154
123
12
143
133
11
132
144
10
120
154
8
108
164
5
95
176
3
81
187
0
68
227
0
28
214
1
42
201
5
58
189
7
72
178
11
87
167
13
100
155
14
114
143
15
126
132
17
139
122
17
149
110
17
161
100
17
170
87
17
180
77
18
189
67
18
197
57
17
206
48
16
212
39
14
219
31
12
226
25
10
232
19
8
238
13
6
242
0
0
255
47
24
210
160
86
109
213
117
60
202
113
70
190
110
79
188
110
82
183
109
83
181
110
85
180
109
87
180
109
88
179
108
88
180
108
88
182
107
88
184
107
86
187
105
85
191
105
83
194
104
81
198
102
78
220
109
62
233
109
50
101
46
167
51
22
210
2
0
252
15
5
241
22
7
236
28
8
231
35
9
225
45
11
218
53
11
211
63
12
203
71
13
195
81
13
186
91
13
177
100
13
167
111
13
157
121
12
145
131
11
134
142
9
121
153
8
108
164
5
95
176
3
80
217
1
38
204
4
55
191
8
70
179
11
86
167
13
99
155
14
113
143
16
127
132
17
139
121
17
151
109
17
163
97
17
172
85
19
183
74
18
192
64
18
200
52
16
209
43
15
217
35
13
223
26
11
231
19
8
237
13
6
242
0
0
255
104
56
159
220
122
53
200
115
70
187
111
80
181
112
85
176
111
88
171
111
91
168
110
95
165
110
97
162
110
99
162
110
100
161
109
102
160
109
103
162
107
101
162
107
101
164
107
100
167
107
98
171
107
97
175
105
94
180
105
90
186
103
86
193
103
84
199
101
80
214
103
69
167
76
110
50
21
210
1
0
253
14
5
241
22
7
236
30
8
230
39
10
222
48
10
215
59
12
207
68
12
199
78
13
189
88
13
179
98
13
169
109
13
158
120
12
146
130
11
135
141
9
122
153
8
108
165
5
94
207
4
51
194
8
68
182
11
83
169
13
98
157
15
112
145
15
125
133
17
138
121
17
150
109
17
163
97
17
174
84
18
184
71
19
193
60
17
202
50
16
211
40
14
219
31
12
227
22
9
234
15
7
241
0
0
255
104
56
159
221
123
52
189
113
78
182
113
84
175
112
88
169
114
93
163
112
97
157
113
102
153
110
104
149
111
108
146
110
110
145
109
111
143
108
114
143
108
114
143
107
114
142
107
115
144
107
114
147
106
114
150
106
111
152
106
110
157
105
106
162
104
104
167
104
101
174
104
96
181
102
92
188
101
87
197
101
81
214
101
69
168
75
111
51
21
211
2
0
252
16
6
240
26
7
233
34
9
226
44
10
219
55
11
210
65
12
201
76
13
192
86
13
181
97
13
170
108
13
159
119
12
147
131
11
134
142
10
121
154
7
106
198
6
63
185
9
79
172
13
95
159
14
109
146
16
124
135
17
137
122
17
150
110
18
162
97
18
174
83
18
184
71
19
194
59
18
204
48
16
212
38
14
221
28
12
230
19
8
237
12
5
243
47
25
210
157
88
110
190
113
77
181
114
84
173
114
90
164
114
95
157
113
101
152
112
105
145
111
109
140
111
113
136
110
117
132
108
120
130
108
122
128
106
125
127
106
125
125
105
127
125
104
127
126
104
126
128
104
126
129
105
126
132
104
124
135
104
122
139
104
119
144
104
117
150
104
113
155
104
109
163
104
105
171
103
99
179
101
93
188
100
89
198
99
81
216
100
69
171
72
109
53
21
209
14
5
243
21
7
236
32
8
228
41
9
221
53
11
212
63
12
203
74
12
192
85
13
182
96
13
171
107
12
159
120
12
146
132
11
133
143
9
120
190
9
74
176
12
91
162
14
105
149
15
121
137
17
135
124
18
148
111
18
160
98
17
173
84
19
183
71
19
193
59
19
204
47
17
213
37
14
223
26
11
231
17
8
238
0
0
255
103
57
159
209
121
60
184
115
81
174
114
88
164
114
96
155
114
102
148
112
107
140
111
113
134
111
117
129
110
121
123
108
125
119
106
129
116
105
132
114
104
134
111
103
136
110
103
138
109
101
138
109
101
139
110
101
139
111
101
139
113
100
137
116
100
136
119
101
133
123
101
131
128
102
129
133
102
125
140
102
121
146
103
117
154
102
112
162
101
106
171
101
100
181
99
94
192
99
87
203
97
79
231
100
59
42
18
219
2
0
252
19
6
239
29
8
231
40
9
222
51
11
213
62
12
204
74
12
193
85
13
182
97
13
171
108
12
158
121
12
145
133
10
131
180
11
85
166
14
102
153
16
117
139
17
131
127
18
144
114
18
158
100
18
171
86
19
182
72
19
193
59
19
204
47
17
213
36
14
222
25
11
232
16
8
240
0
0
255
165
93
101
190
114
77
178
115
84
168
115
92
158
115
99
149
114
106
140
113
112
131
112
118
125
110
123
119
108
129
113
105
133
108
104
137
104
102
140
101
100
143
99
100
146
96
98
147
95
96
150
94
96
151
93
96
150
94
95
150
96
96
149
98
96
150
100
96
148
103
97
146
107
97
143
112
98
141
117
99
137
123
100
133
130
100
128
137
100
123
145
101
118
154
100
112
165
101
105
175
100
99
187
99
92
199
97
84
219
96
69
183
74
101
0
0
255
17
5
240
27
8
232
39
9
223
51
10
213
63
12
204
74
12
192
86
13
181
98
13
169
110
12
156
123
11
142
171
13
96
158
15
111
144
17
127
131
18
141
118
18
155
104
18
167
89
19
180
75
20
191
61
19
202
49
17
212
38
14
222
25
11
231
15
7
240
0
0
255
164
94
103
186
115
79
175
116
87
164
116
95
153
115
102
142
114
110
133
112
116
124
110
123
118
108
129
110
105
135
104
104
140
99
101
144
94
99
148
90
96
151
86
94
154
84
93
156
82
92
160
81
90
159
79
89
162
79
89
162
81
89
162
81
89
162
84
90
161
85
90
158
89
91
157
93
92
155
98
93
152
102
94
148
108
96
143
115
96
139
122
98
134
130
99
129
139
100
123
149
100
117
160
99
110
170
99
102
182
97
95
195
96
87
208
93
78
182
74
102
0
0
255
16
4
241
27
7
232
40
8
222
52
10
213
63
12
203
75
12
191
88
13
179
100
12
167
113
12
153
163
14
105
150
16
120
135
18
137
123
18
150
108
18
164
94
18
176
78
19
188
65
18
199
51
17
210
39
15
220
27
12
230
16
7
240
0
0
255
163
96
104
185
116
79
173
117
88
160
116
96
148
116
105
139
114
113
128
112
120
120
110
128
111
107
133
104
105
140
97
102
144
90
98
150
86
95
154
81
93
158
77
90
162
73
88
166
71
86
168
68
85
170
67
83
172
66
82
173
67
81
173
67
81
173
68
82
173
70
82
171
73
83
170
75
85
168
79
86
165
83
87
162
89
89
158
95
91
155
101
92
150
108
94
145
116
96
139
124
97
135
134
98
127
145
99
122
155
98
114
168
98
106
180
97
96
194
95
88
208
91
79
182
74
103
0
0
255
16
4
241
28
7
232
40
8
222
52
10
212
65
12
201
78
12
188
90
13
177
103
12
163
156
16
114
141
17
130
127
18
145
113
19
159
98
19
172
84
20
184
68
20
196
55
18
207
42
16
218
29
12
228
18
8
238
0
0
255
164
95
102
185
116
80
173
118
89
158
117
98
147
116
106
136
114
115
125
113
123
115
109
130
106
106
136
98
103
143
91
100
149
84
96
155
78
93
160
73
89
165
68
85
169
65
83
173
61
81
176
59
78
179
56
76
181
55
75
183
54
74
184
53
73
185
55
73
184
55
74
183
58
74
183
59
75
182
63
76
178
67
79
176
70
80
173
76
83
170
81
84
165
88
88
161
94
89
155
103
92
150
111
94
144
120
96
138
131
97
132
142
97
124
153
97
116
166
97
108
179
96
98
192
94
89
207
91
81
183
73
103
0
0
255
17
4
240
29
7
231
42
9
220
55
11
209
67
12
199
80
12
186
95
12
172
149
16
122
133
18
139
119
18
153
105
18
167
89
20
180
74
20
192
59
19
204
45
16
215
32
14
225
21
10
236
3
2
251
165
94
102
186
117
79
173
118
88
159
117
98
146
116
106
134
115
116
123
112
124
112
109
132
103
105
139
94
102
147
86
97
152
79
94
160
72
89
165
66
86
171
60
82
175
56
78
180
53
75
184
49
71
187
47
69
190
45
67
192
43
64
194
43
64
195
43
63
196
43
63
196
45
63
195
46
64
193
48
66
192
52
68
191
54
69
187
58
73
184
64
75
180
68
78
176
75
80
171
83
84
166
90
87
160
98
90
155
108
92
147
117
94
140
128
96
133
139
96
126
152
97
118
166
96
109
179
95
99
194
93
89
210
90
80
185
71
103
0
0
255
20
5
238
32
7
229
45
9
217
59
11
206
72
12
194
84
12
182
141
18
130
126
18
146
112
19
161
96
19
175
79
20
187
64
20
200
50
17
211
37
15
221
24
11
233
14
7
241
39
22
218
197
122
69
175
118
86
160
119
97
147
117
105
134
115
116
122
112
124
111
109
133
100
105
140
91
101
148
82
96
155
75
92
162
67
88
169
61
83
174
55
78
180
50
73
185
45
69
190
42
65
195
39
62
198
37
59
200
34
56
204
34
54
205
33
54
207
32
53
206
32
53
206
34
53
207
35
54
205
37
56
202
40
58
201
44
61
198
47
63
194
52
67
191
58
70
185
63
74
181
70
78
175
77
81
170
87
85
164
95
87
157
104
90
150
115
92
144
128
95
135
139
95
126
152
96
118
167
96
109
181
94
99
197
92
88
212
89
79
188
69
101
2
0
252
22
5
236
36
8
227
49
10
215
63
11
202
76
12
190
133
18
139
119
19
154
104
19
168
87
20
181
72
20
193
56
18
206
43
16
218
29
13
229
17
8
239
0
0
255
216
131
54
178
119
84
163
119
94
149
118
105
136
116
115
122
112
124
111
109
133
100
106
140
90
101
149
80
96
157
72
91
165
64
85
172
58
80
178
51
75
184
45
70
190
40
64
195
36
59
200
33
56
205
29
51
209
27
48
211
25
45
214
24
43
216
23
42
218
23
41
219
23
41
219
24
42
217
25
43
216
27
45
213
30
47
212
34
51
208
37
54
204
42
58
200
47
62
196
53
67
190
59
71
186
67
74
180
75
79
173
84
83
166
94
86
159
103
88
151
116
91
143
128
93
135
141
94
127
154
95
119
168
95
108
184
93
97
200
90
87
226
89
68
43
16
219
14
4
243
26
6
233
40
9
222
53
10
211
68
11
198
128
19
145
112
19
161
95
20
175
79
20
187
63
20
201
49
17
212
34
15
224
22
10
235
4
1
251
164
96
103
183
118
81
168
120
90
153
119
102
138
117
112
125
114
122
113
111
131
101
107
141
90
102
149
80
96
157
71
90
164
62
84
172
54
79
180
48
72
187
41
67
193
37
60
200
31
55
205
27
49
211
23
44
215
22
40
219
19
36
223
17
33
226
16
31
227
15
29
229
14
28
229
15
28
229
16
29
228
17
31
227
19
33
225
21
37
221
24
40
219
27
43
215
32
48
210
37
53
205
43
58
200
49
63
194
56
68
189
64
73
182
73
77
175
83
81
168
93
85
161
104
88
153
116
91
144
128
92
135
143
94
126
157
94
117
172
94
107
189
91
95
206
89
84
239
90
59
55
18
209
18
4
240
31
7
230
45
9
218
59
11
205
122
19
151
106
19
167
87
20
181
72
21
194
57
19
205
41
16
219
29
13
229
16
8
239
48
28
210
197
123
69
174
121
88
158
120
99
143
118
109
129
116
119
115
112
129
102
108
138
91
102
147
80
97
157
71
91
165
62
85
172
53
78
181
46
71
188
39
64
196
33
57
202
28
51
208
24
45
215
20
39
221
16
33
226
13
28
230
11
24
233
9
21
236
8
17
239
8
16
239
7
16
240
7
16
240
8
17
239
9
19
238
11
21
236
13
25
233
16
28
229
19
33
225
23
38
221
28
43
215
34
49
210
40
55
204
47
60
197
55
66
190
63
70
184
72
76
177
83
81
168
94
85
161
105
88
153
119
90
144
131
92
135
146
93
124
161
93
114
178
92
103
194
90
93
212
87
81
180
65
109
1
0
253
23
5
236
37
8
225
51
10
213
116
19
158
97
20
172
82
21
186
65
20
198
50
18
211
36
15
223
22
10
234
3
2
251
155
94
111
182
120
82
165
120
93
148
119
105
134
116
115
119
113
126
107
110
134
94
104
145
83
99
154
72
92
163
62
86
172
53
79
181
45
71
189
38
64
197
31
56
204
26
48
212
21
41
219
16
33
225
13
26
232
9
21
237
7
16
240
1
3
251
0
0
255
0
0
255
50
122
149
47
114
157
48
114
157
22
52
210
0
0
255
0
0
255
6
13
242
8
17
240
12
22
235
15
27
230
21
33
225
25
39
218
32
45
212
38
52
207
46
58
199
53
64
193
63
70
184
74
75
177
84
79
169
95
84
160
108
87
151
122
90
142
136
91
132
151
93
122
168
92
111
184
91
100
203
88
87
229
87
69
44
15
218
15
4
241
29
6
231
45
9
219
111
19
162
93
21
177
75
21
190
59
20
204
44
17
216
29
13
228
17
9
239
0
0
255
204
130
63
173
122
88
156
121
100
140
119
110
125
115
121
111
111
132
99
108
141
87
101
152
75
95
160
64
88
170
55
80
179
46
73
188
39
64
197
31
56
203
24
47
213
19
39
220
14
30
227
10
23
235
7
16
240
0
1
253
20
52
210
67
175
105
89
235
53
87
233
56
81
215
71
82
215
72
84
214
72
89
222
66
96
230
58
104
239
51
49
110
161
0
0
255
2
3
251
9
17
239
13
23
235
19
30
228
23
37
222
29
43
215
38
51
208
46
57
200
55
64
192
64
70
184
76
75
176
87
80
167
99
84
158
112
88
149
126
90
139
142
90
128
158
91
118
174
91
106
191
88
96
211
84
83
255
87
50
0
0
255
22
5
237
36
8
226
105
20
168
87
21
181
70
21
196
54
20
208
39
16
220
25
11
232
13
7
242
100
61
161
182
121
82
165
120
93
149
121
105
132
117
115
118
114
127
104
110
137
91
104
147
79
98
157
67
90
167
57
83
176
49
74
185
39
66
194
32
57
203
25
48
212
19
38
221
14
29
229
8
20
236
4
12
243
19
52
209
64
174
104
81
226
61
75
214
71
71
212
74
69
208
77
69
205
79
70
205
80
71
204
81
74
205
81
77
206
79
82
208
78
88
210
77
101
229
61
83
178
104
0
0
255
7
13
243
11
20
237
17
27
230
23
36
223
30
43
215
38
50
208
47
57
200
57
64
191
67
70
182
79
76
174
90
80
165
103
85
156
118
87
145
133
89
136
148
90
125
166
90
113
183
89
102
201
87
90
221
82
76
121
39
158
15
4
241
30
7
231
100
21
171
82
21
186
65
20
199
49
19
212
34
15
224
20
10
236
0
0
255
214
134
55
176
122
86
158
122
97
141
121
110
126
117
120
111
113
131
97
107
142
85
102
152
72
94
163
62
87
173
51
78
182
42
69
192
34
59
201
26
50
210
20
41
219
14
30
229
8
20
237
1
3
251
15
42
218
84
237
50
71
216
69
67
210
76
63
204
79
60
199
83
58
196
87
58
194
89
58
192
91
60
192
91
62
194
90
66
194
90
71
198
87
77
201
85
84
205
82
90
208
79
110
236
56
20
40
220
5
10
245
11
19
238
16
26
232
23
35
223
31
43
215
40
52
206
49
58
198
60
65
190
70
71
181
82
77
171
95
81
161
109
85
152
124
87
142
140
89
131
157
90
118
174
90
109
193
87
96
213
84
82
255
85
50
0
0
255
24
5
235
95
21
175
77
22
189
61
20
203
45
18
215
30
14
227
17
8
239
47
28
211
195
126
72
169
124
91
152
121
103
135
119
114
120
116
125
106
111
136
92
105
147
78
98
157
67
91
167
56
83
176
46
73
187
37
64
197
28
54
207
22
44
216
15
32
226
9
22
236
4
11
244
41
114
157
77
228
59
68
213
72
61
206
78
57
199
83
52
193
89
49
188
93
48
183
96
46
181
99
48
180
101
50
180
100
53
181
102
56
183
99
60
186
98
67
191
95
73
195
91
81
200
87
89
205
82
106
226
65
54
108
163
0
0
255
11
18
238
17
27
231
24
36
222
33
44
214
42
53
205
52
60
195
63
67
187
76
73
178
88
78
169
102
82
157
117
86
148
133
87
136
149
90
126
167
89
115
185
86
101
204
84
88
232
81
68
55
17
210
18
4
240
92
22
179
73
21
193
57
20
206
41
17
218
26
13
232
13
7
242
101
62
160
182
122
81
164
124
94
146
121
105
130
119
118
115
114
129
100
109
140
86
103
151
74
96
160
61
87
171
52
78
182
41
69
192
33
59
202
24
48
212
17
37
223
11
25
233
5
14
241
15
43
217
81
237
51
66
213
72
59
205
78
53
196
85
46
188
91
43
181
97
40
175
101
39
171
106
39
168
109
38
166
110
41
166
112
43
168
110
47
170
110
51
175
107
57
179
104
64
184
100
71
191
95
80
197
91
89
203
84
99
209
80
55
107
164
5
10
245
12
20
237
19
29
229
27
38
220
36
47
211
46
55
202
57
62
192
69
69
183
82
75
174
95
80
164
110
83
153
126
86
141
143
88
131
160
87
119
178
87
107
198
84
93
218
81
80
186
59
107
4
0
250
87
22
181
69
22
196
53
20
208
38
16
221
23
12
234
10
5
244
89
57
171
177
123
84
159
124
98
142
121
109
126
119
121
110
114
131
96
108
143
82
101
153
69
94
165
58
85
175
47
75
185
37
65
195
28
54
206
21
43
217
14
31
228
7
19
238
0
0
255
85
249
43
67
215
70
58
206
77
51
196
85
44
187
92
39
178
99
34
169
106
31
162
112
30
157
116
30
154
120
30
152
122
32
152
122
34
154
122
38
158
119
43
162
117
49
168
113
56
174
108
63
181
104
72
187
99
82
195
92
93
202
86
112
223
68
21
39
221
7
13
243
14
22
235
22
32
226
31
41
216
40
50
208
52
58
198
64
65
189
77
72
178
89
77
169
104
81
157
120
85
147
136
86
136
154
87
124
171
87
112
191
85
99
211
81
84
248
80
57
0
0
255
85
22
183
67
22
198
51
20
210
35
15
223
21
11
236
0
0
255
213
136
57
174
125
88
155
123
100
137
122
113
121
117
125
107
113
134
92
106
145
78
100
158
66
91
167
54
82
178
44
72
188
34
62
200
25
50
210
18
38
221
11
26
233
5
14
242
40
115
156
68
219
66
59
210
75
52
198
83
43
188
91
36
177
100
31
166
108
28
157
114
25
149
121
23
143
127
23
139
130
23
137
132
25
138
133
28
141
132
31
143
131
36
150
125
42
155
123
49
164
117
57
171
112
65
179
106
74
187
100
85
195
94
97
202
86
120
230
61
0
0
255
9
15
241
18
26
231
26
36
222
36
45
212
46
54
203
58
61
193
71
69
183
84
75
173
98
79
162
114
83
152
130
85
141
148
86
128
165
87
116
185
85
104
205
82
90
225
77
76
133
39
150
82
23
186
65
21
199
49
19
213
33
15
225
19
9
237
0
0
255
202
132
66
170
125
90
152
124
103
134
121
115
118
118
126
103
112
138
89
105
149
76
98
159
64
90
169
52
80
181
41
70
191
31
58
203
23
47
213
16
34
225
8
21
236
0
0
255
83
249
42
64
215
70
55
204
78
45
192
87
37
180
97
30
167
107
25
156
115
21
145
124
18
136
132
16
129
137
15
123
142
16
122
145
18
122
146
21
125
144
26
130
141
30
137
137
36
145
132
42
153
127
51
162
120
59
170
113
68
179
107
79
188
100
89
196
91
103
202
86
94
171
111
1
2
251
13
20
237
21
30
227
32
40
217
42
50
207
53
58
197
67
66
188
79
72
177
94
76
167
109
81
156
126
84
144
142
85
133
161
85
120
180
84
107
200
81
93
222
78
80
112
34
166
82
23
187
63
21
200
47
19
214
32
15
226
18
10
238
0
0
255
199
133
66
167
125
92
149
124
104
133
121
116
116
117
127
101
112
139
87
105
151
73
97
161
61
89
172
50
79
182
40
69
194
30
57
204
21
44
216
14
31
227
7
19
238
19
54
208
74
231
58
60
213
73
49
200
82
41
186
92
32
173
101
26
160
111
20
146
123
16
133
133
13
122
141
11
113
150
11
107
155
11
105
158
13
106
158
16
111
156
21
116
152
25
124
147
30
134
141
38
143
134
45
152
128
53
162
121
63
171
113
73
181
106
85
190
98
97
198
90
114
212
77
28
49
213
9
15
241
18
26
231
27
36
221
38
46
211
50
54
201
62
62
191
75
69
180
90
75
170
105
79
159
122
83
148
139
85
136
157
85
123
176
84
110
196
82
97
217
78
83
247
74
61
80
22
187
62
21
202
46
19
216
31
15
227
17
9
240
0
0
255
197
133
68
166
125
93
149
124
106
131
122
117
115
118
128
99
112
140
85
105
151
72
97
162
60
87
173
48
77
184
38
67
195
28
55
205
20
43
218
12
29
229
6
16
240
39
117
154
68
222
66
58
210
74
46
197
84
36
183
94
30
168
105
22
154
116
17
138
128
11
122
141
7
109
152
6
97
162
6
89
169
7
87
173
9
90
172
12
94
169
16
103
164
21
112
157
26
121
150
33
133
143
41
143
135
49
153
127
59
165
120
69
174
111
81
185
104
93
193
96
106
202
87
55
96
173
7
11
244
14
21
236
24
32
225
34
42
215
46
51
204
58
59
195
72
66
184
86
73
173
101
77
162
118
81
150
134
82
138
153
84
126
172
83
114
192
82
100
212
77
85
235
71
70
80
23
188
62
22
202
46
19
215
30
14
227
17
9
239
0
0
255
196
134
68
164
127
94
147
125
107
130
122
117
114
117
129
99
111
141
85
106
151
71
97
162
60
88
173
47
78
185
37
66
195
28
55
206
20
42
218
12
29
230
6
15
241
38
117
155
67
221
66
55
209
75
45
196
86
35
182
95
27
166
106
19
149
119
14
133
132
8
115
147
5
96
162
3
80
176
3
71
186
4
68
189
6
72
186
9
80
181
13
89
175
18
100
168
23
112
159
30
124
151
37
136
142
46
146
134
56
158
125
66
168
117
77
179
108
89
189
101
103
197
92
129
225
66
0
0
255
12
18
239
21
28
229
32
39
218
44
49
207
55
57
197
68
64
187
83
71
176
98
75
165
114
80
154
132
82
142
150
83
129
168
83
116
189
81
103
210
78
88
232
72
73
79
23
189
62
22
201
46
19
216
30
15
227
17
9
239
0
0
255
195
135
69
165
127
93
147
125
106
130
122
118
114
118
129
98
113
140
84
106
152
72
98
163
59
88
172
47
78
185
38
68
195
28
55
206
20
43
218
12
29
230
5
15
241
38
118
154
66
222
64
55
210
75
44
196
85
35
182
95
27
166
106
19
150
119
12
131
133
7
111
149
3
86
171
0
64
191
1
50
205
2
49
207
4
55
203
7
65
195
11
77
186
15
89
176
21
102
167
28
115
157
34
127
148
43
140
140
53
152
130
63
164
121
75
174
112
87
184
104
100
193
96
118
208
80
30
47
215
10
15
241
19
25
231
29
36
221
41
46
210
53
55
199
67
63
189
80
69
177
96
75
167
112
78
155
129
81
144
148
82
132
166
82
118
186
80
104
207
77
91
229
71
75
80
23
188
62
23
201
46
19
215
31
15
227
18
10
239
0
0
255
197
136
69
165
127
93
148
126
104
131
123
117
115
119
129
99
113
140
85
106
151
72
98
162
60
89
173
48
79
183
38
69
195
28
56
205
21
44
217
13
31
228
7
17
240
42
128
146
66
223
65
55
212
73
45
199
83
35
185
93
27
170
103
20
154
114
13
137
127
8
117
144
4
89
168
1
30
225
0
14
240
2
28
227
4
39
218
6
53
207
9
65
196
14
80
184
20
95
174
27
108
164
33
122
153
42
135
143
51
148
134
61
159
126
73
170
117
85
181
108
99
190
98
113
198
90
63
103
167
8
12
243
18
24
233
28
35
223
40
44
212
52
54
202
65
61
190
79
68
180
94
73
168
110
77
156
127
80
145
145
82
133
165
82
120
185
80
108
206
77
92
228
71
77
81
24
187
64
23
200
47
19
214
33
16
226
18
10
238
0
0
255
199
137
68
167
129
92
149
126
104
132
125
117
116
120
127
101
114
139
87
107
150
73
100
160
61
91
172
50
81
182
39
71
192
30
59
204
21
46
215
14
32
226
7
20
238
0
0
255
73
243
49
57
217
70
48
204
79
37
191
88
30
178
97
23
164
108
17
150
118
12
137
127
8
127
134
10
197
66
11
198
67
0
0
255
2
26
231
5
42
217
8
58
203
13
73
191
18
89
179
25
103
168
33
117
159
41
131
147
51
143
138
61
156
127
72
167
118
84
178
110
99
187
101
112
196
91
62
101
169
7
10
245
16
22
235
26
33
224
38
43
213
50
52
202
64
60
192
78
67
181
92
71
170
109
77
159
127
79
146
144
81
134
163
80
121
184
79
108
203
76
93
227
70
78
83
24
185
65
23
200
49
20
212
34
16
225
20
10
237
0
0
255
202
137
66
169
129
91
151
128
102
134
125
114
119
120
127
103
116
137
89
109
148
75
102
158
64
93
170
51
83
180
41
72
191
32
62
200
23
50
211
16
37
223
9
24
233
0
3
251
56
181
102
61
223
66
51
211
75
42
199
83
33
188
90
28
177
98
21
167
103
17
162
107
15
168
99
15
195
73
19
226
46
12
133
132
2
18
238
4
36
223
8
53
208
13
70
195
19
85
184
25
99
172
32
114
161
42
128
150
50
141
140
61
153
130
72
165
122
85
175
112
97
186
102
112
195
94
99
157
122
2
3
251
16
20
237
26
32
225
38
42
215
50
51
204
62
58
193
78
66
183
92
70
171
108
76
159
126
78
147
144
80
135
163
79
122
183
79
108
204
74
94
227
70
78
85
24
183
68
23
198
52
21
210
37
17
222
22
12
235
2
1
251
149
101
116
173
130
89
155
129
101
137
127
113
121
123
123
106
117
135
91
112
145
78
103
156
66
96
167
54
87
177
44
76
187
35
66
198
26
54
208
18
42
218
12
29
230
6
17
239
17
54
208
71
245
48
56
219
68
48
209
76
39
200
82
33
191
87
28
185
92
24
183
89
22
190
83
23
207
68
26
228
50
15
121
146
2
15
241
5
34
225
9
51
211
13
67
198
20
83
185
27
97
174
33
113
162
42
126
152
51
140
141
62
152
132
74
163
122
86
174
114
99
185
104
113
193
95
137
213
75
0
0
255
15
20
237
25
32
225
37
41
215
50
50
204
63
58
193
77
65
183
93
71
172
109
75
160
126
77
147
144
78
135
163
79
122
183
76
108
204
73
94
228
69
78
89
25
182
71
24
196
54
22
208
39
18
220
25
12
233
11
6
244
96
65
164
176
130
87
158
130
98
141
127
110
125
124
122
110
120
133
95
113
143
82
106
152
69
99
163
59
90
173
47
81
184
38
70
194
29
59
204
22
48
214
15
36
224
9
24
234
4
13
243
36
119
155
61
227
63
54
220
68
46
213
73
40
206
77
35
202
78
33
203
76
31
209
70
31
219
60
34
234
49
20
135
135
3
18
238
6
35
225
10
52
210
15
67
198
22
83
186
28
98
174
35
113
163
44
127
152
54
139
143
64
151
133
75
163
123
88
174
114
101
183
105
115
192
95
144
218
69
0
0
255
15
20
237
26
31
225
38
41
216
51
50
204
63
58
194
78
65
183
94
70
172
109
75
159
127
76
148
145
78
134
164
78
122
185
76
108
205
73
94
228
67
78
92
25
178
74
25
192
58
23
206
43
19
218
28
15
230
15
8
241
45
30
212
187
136
76
163
130
96
146
130
108
129
125
118
114
122
128
100
116
139
86
110
150
73
102
160
62
94
170
52
86
180
42
76
189
33
65
198
25
55
208
19
44
218
12
32
227
7
21
236
0
0
255
35
119
155
67
248
47
54
225
63
48
221
66
44
219
67
41
220
66
40
225
60
40
234
53
34
201
81
0
0
255
4
24
233
8
40
220
13
55
209
18
71
196
24
86
185
30
100
173
39
114
163
46
127
151
57
141
142
67
152
133
78
163
123
90
173
113
104
183
105
118
192
95
60
91
177
7
10
245
17
21
236
27
32
225
39
41
215
51
50
203
65
57
193
79
64
182
96
69
170
111
74
159
128
77
147
147
78
135
166
77
120
186
76
108
208
72
94
230
66
77
96
25
176
79
25
189
62
24
202
46
20
214
32
16
226
18
10
238
0
0
255
206
145
63
169
132
92
151
130
104
135
128
114
120
123
125
106
118
136
91
113
145
79
106
156
67
98
165
56
90
175
47
81
184
38
72
193
29
61
202
23
51
212
17
41
220
12
31
229
7
21
236
4
13
243
15
55
208
50
185
100
63
250
44
58
249
45
55
251
42
56
255
31
25
123
150
0
0
255
4
20
237
7
33
227
11
47
215
16
62
203
20
75
193
27
89
182
33
103
172
42
117
160
50
130
151
59
141
141
70
152
131
81
163
122
95
174
112
107
184
103
122
191
94
67
99
170
8
10
244
18
22
234
28
32
224
41
42
213
53
51
203
67
58
192
82
65
181
97
69
169
113
73
158
130
76
145
148
76
133
169
76
120
188
74
107
209
70
92
233
65
77
101
25
172
83
26
186
67
24
199
50
22
210
36
17
223
22
12
234
10
6
244
88
62
173
174
133
88
157
132
100
141
130
111
126
127
121
111
121
132
98
117
141
84
110
151
74
104
160
62
96
169
53
87
178
43
79
187
35
69
196
28
60
204
22
51
212
17
41
220
13
33
227
8
24
234
5
18
239
1
4
250
0
0
255
0
0
255
0
0
255
0
0
255
3
15
241
5
22
235
8
32
228
11
44
218
15
55
209
19
68
198
25
81
189
30
94
178
38
107
169
45
120
159
54
132
148
65
145
138
75
155
130
86
165
120
99
175
111
112
184
101
125
190
94
76
107
162
9
12
243
20
24
232
30
33
223
43
43
212
55
51
201
69
58
191
84
64
180
100
69
167
116
72
156
134
76
144
152
75
131
171
76
119
192
72
104
213
69
91
236
62
74
107
25
167
89
25
181
71
25
194
56
23
207
41
19
219
27
15
231
15
8
241
45
31
212
188
138
79
164
132
94
148
132
106
132
129
117
117
124
127
104
120
136
91
114
146
80
108
155
69
101
164
59
93
172
50
85
181
41
78
189
35
68
197
27
60
203
23
53
211
18
44
218
13
37
223
11
30
229
8
26
233
7
22
236
6
21
237
5
21
237
6
25
234
7
29
231
10
36
225
12
44
218
15
54
210
19
65
202
25
77
192
29
88
183
36
101
174
43
112
164
51
124
155
59
136
146
69
148
137
80
158
127
92
168
118
104
177
110
118
184
101
141
205
79
0
0
255
12
15
241
22
25
230
34
36
220
45
44
210
59
52
199
73
59
188
87
65
178
103
69
166
118
72
155
137
74
142
155
75
130
175
74
116
195
71
103
217
67
87
239
62
73
112
25
164
94
26
177
78
26
191
62
24
202
46
21
215
33
16
225
20
11
237
2
0
252
147
104
118
172
135
90
156
133
101
140
131
111
125
127
121
112
123
131
99
119
140
88
114
149
75
106
157
66
99
166
57
93
174
49
85
181
41
78
190
34
70
195
28
63
202
24
56
208
20
49
214
16
44
218
15
40
221
13
38
224
12
37
225
12
37
224
12
39
222
13
43
218
15
49
214
18
57
208
22
66
202
25
75
193
29
86
185
36
96
178
42
108
168
49
119
160
57
130
150
66
141
142
75
151
133
86
160
124
97
169
115
110
178
106
124
186
97
153
213
72
0
0
255
15
18
238
25
28
227
36
37
217
49
46
207
61
54
197
76
60
186
91
65
176
106
70
164
123
72
152
142
74
140
159
73
127
179
73
114
200
69
100
220
66
86
244
59
69
119
25
159
101
26
172
84
27
186
68
25
198
53
23
210
38
19
221
26
14
232
13
8
241
44
30
213
187
139
79
164
135
96
148
134
106
134
131
116
119
127
124
107
124
134
95
118
143
84
113
151
74
106
159
64
100
167
57
94
174
49
86
180
42
80
187
37
74
194
31
67
199
27
62
204
24
57
207
22
54
210
20
51
212
19
50
213
18
51
212
19
54
210
20
58
208
22
62
203
25
69
199
27
77
193
32
85
186
36
95
178
42
105
170
48
115
163
56
125
154
63
136
147
72
145
137
83
155
130
94
164
120
105
173
113
117
181
104
131
187
95
72
98
169
9
11
243
19
21
235
29
30
225
40
40
215
53
48
204
66
55
194
80
61
183
96
66
172
110
70
161
128
71
149
146
73
137
165
73
124
184
71
111
205
68
97
226
62
82
248
59
65
126
25
153
108
26
167
91
27
180
75
25
192
60
24
204
46
21
216
32
16
226
20
12
237
2
1
252
147
106
118
174
137
90
157
135
99
143
134
109
130
131
119
116
127
127
104
123
136
93
118
145
82
113
151
73
107
159
65
101
166
57
96
172
50
90
179
44
84
184
40
79
189
35
74
193
31
71
197
28
67
199
27
66
200
26
66
201
25
66
202
26
68
200
27
71
197
29
75
194
31
81
189
35
88
184
39
96
178
44
104
171
50
114
164
56
123
156
63
132
149
71
141
141
81
151
132
91
159
125
101
168
117
113
175
107
126
182
100
155
210
74
0
0
255
12
14
241
23
25
231
33
34
221
45
42
212
58
50
201
71
57
191
85
62
180
99
66
169
117
70
158
134
72
146
151
73
134
170
71
121
190
70
107
210
66
92
232
61
79
187
43
111
133
25
146
115
26
162
98
26
175
82
27
186
67
25
199
53
23
210
40
20
220
26
15
232
15
9
241
46
31
212
197
146
70
168
137
92
153
136
102
139
133
112
126
131
121
114
127
129
103
123
137
93
119
145
83
114
151
75
109
157
66
103
164
59
99
169
54
94
174
48
90
179
44
86
183
41
83
187
38
80
189
36
79
190
35
79
191
34
79
191
35
81
190
36
84
187
38
88
184
40
94
180
44
99
174
47
106
169
53
114
164
58
123
156
65
130
149
72
139
142
81
148
135
90
155
128
100
164
119
111
171
112
122
178
103
135
184
96
73
95
170
9
10
244
18
20
236
27
28
227
38
37
217
51
45
207
63
51
197
76
58
187
90
63
176
107
66
165
122
70
154
140
71
143
157
71
129
176
70
117
196
68
104
217
63
89
238
58
74
127
28
155
139
25
140
124
25
155
107
27
168
90
27
181
76
26
192
60
25
204
46
21
215
35
18
224
22
13
235
12
8
243
36
26
221
184
142
80
164
137
96
150
137
104
137
136
112
124
132
121
113
129
129
103
124
136
94
120
143
84
117
150
77
112
156
70
108
161
64
104
165
59
101
169
54
96
174
50
94
176
47
92
178
45
91
180
44
90
180
43
92
180
43
93
179
45
96
177
47
101
174
49
104
170
53
110
166
57
117
160
62
123
155
68
130
150
74
137
143
82
145
136
90
153
129
100
161
123
109
168
114
120
174
106
132
181
100
160
206
74
0
0
255
13
15
240
22
24
231
34
33
222
44
41
212
56
48
202
69
54
193
83
59
182
98
64
172
112
67
161
129
70
150
146
70
137
165
70
126
183
68
113
204
65
98
224
60
84
251
59
63
60
13
207
146
25
133
132
25
147
116
27
162
99
28
174
84
27
186
69
26
198
56
24
208
42
21
218
30
16
228
19
12
238
2
1
252
155
114
111
175
139
89
161
139
97
148
139
105
137
135
115
124
134
122
114
130
129
105
127
135
96
123
141
88
121
146
81
117
152
75
113
156
69
110
160
64
108
163
62
105
166
58
103
168
56
103
170
54
103
170
54
104
170
55
105
169
55
108
167
57
111
164
59
115
161
64
121
157
67
126
152
72
132
147
78
139
142
85
146
135
92
152
130
101
159
122
110
165
115
121
172
108
131
178
101
153
196
81
29
35
222
10
12
243
18
20
236
28
28
226
39
37
217
51
44
208
62
50
197
76
57
188
91
61
178
105
64
168
120
67
156
136
69
145
154
69
133
172
68
120
192
66
108
211
62
93
233
58
79
255
62
43
0
0
255
155
25
124
140
26
140
125
26
154
109
28
167
93
28
179
79
27
190
64
26
201
52
23
211
39
20
221
27
16
230
17
10
239
0
0
255
153
115
112
174
141
89
161
141
98
148
140
106
137
137
113
126
136
119
117
132
126
108
130
133
100
127
138
93
124
143
86
121
146
81
119
152
76
117
155
72
115
156
69
113
158
67
113
160
66
113
160
66
114
160
66
116
159
66
118
157
69
122
154
71
126
152
74
129
148
79
135
143
84
141
139
90
146
133
96
152
128
104
158
122
113
164
115
122
170
109
131
176
102
142
180
95
77
94
171
8
9
245
17
17
238
25
25
230
36
34
220
46
40
212
57
47
202
71
53
193
84
58
183
98
63
173
112
66
163
129
67
150
145
68
140
162
68
128
181
67
115
200
63
101
219
60
88
238
57
73
117
25
162
15
3
242
162
25
117
148
26
131
134
26
147
119
27
160
103
29
171
88
28
183
74
27
194
60
25
204
48
23
214
37
20
223
25
15
232
16
10
240
0
0
255
153
117
112
174
142
90
162
142
97
151
142
104
139
139
111
130
138
118
121
135
123
113
134
129
105
131
133
99
129
138
94
127
142
89
126
144
85
124
146
82
123
149
80
123
150
79
123
151
78
125
150
78
126
150
79
128
148
81
131
145
84
135
143
87
138
139
91
143
135
96
148
131
103
153
126
109
159
121
116
164
115
125
169
108
135
174
102
144
178
96
127
151
118
0
0
255
15
16
240
23
23
231
33
30
223
43
38
214
54
45
206
66
50
197
78
55
187
92
60
177
107
64
167
121
66
157
137
67
145
153
68
134
171
66
122
189
64
109
209
61
95
229
56
81
252
57
59
60
13
206
21
4
237
171
24
107
156
25
124
142
27
138
129
26
151
114
28
163
98
29
175
85
28
186
71
27
196
58
25
206
46
23
215
35
19
224
25
15
233
16
10
240
0
0
255
153
118
113
182
148
83
164
143
95
153
143
103
144
141
108
135
141
115
127
139
120
119
137
124
113
136
128
107
134
131
102
134
133
99
133
138
95
132
138
93
133
139
92
133
140
91
133
139
91
135
138
93
137
138
94
140
136
97
143
133
100
147
130
105
151
126
109
155
122
115
159
117
123
164
113
130
168
106
139
173
101
153
183
89
128
149
119
0
0
255
13
14
240
22
22
233
31
29
225
40
36
217
51
42
208
63
48
200
74
53
190
88
58
181
100
61
171
116
64
161
130
66
150
146
67
139
163
65
127
181
65
115
199
62
103
219
57
88
237
56
74
195
43
102
3
0
251
25
5
233
179
23
99
166
25
112
152
26
128
139
27
142
126
28
155
110
29
166
96
29
176
82
28
188
69
27
197
57
25
207
45
23
216
35
20
224
25
15
232
17
11
239
3
2
251
35
27
221
199
160
67
167
145
94
159
146
99
149
145
104
141
144
109
134
143
115
128
143
118
122
142
122
118
140
124
112
139
127
110
140
129
107
140
130
106
140
131
105
142
130
105
144
130
107
146
128
108
147
127
111
151
123
114
153
121
118
157
118
124
161
113
130
165
109
136
169
104
144
172
98
164
188
81
30
34
224
2
2
252
14
15
240
22
21
233
30
28
226
39
35
218
49
40
210
61
47
201
71
51
194
84
56
183
97
59
174
110
63
165
125
65
154
140
66
144
157
65
131
174
65
121
192
62
109
211
58
95
229
55
80
252
56
59
58
12
208
18
3
239
31
5
228
188
22
88
174
25
104
162
26
119
148
27
133
137
27
145
122
28
158
108
30
169
94
30
178
80
29
189
69
28
198
57
25
207
46
24
216
36
20
223
27
16
230
19
12
238
11
8
243
0
0
255
150
120
115
180
152
83
165
147
95
158
147
100
149
147
103
143
146
107
137
146
112
132
146
114
128
147
117
126
146
119
123
146
120
121
148
120
120
149
120
121
151
119
121
152
118
124
154
116
126
157
115
129
159
111
134
163
108
139
166
104
145
169
100
157
178
90
123
137
127
38
41
215
9
9
244
16
15
239
23
22
233
31
27
225
40
34
218
49
39
211
59
46
201
71
49
194
82
54
186
94
58
176
107
61
168
121
63
157
136
64
147
151
64
137
168
64
124
184
62
114
203
58
101
221
55
88
236
55
73
195
41
101
2
0
253
24
4
234
38
6
222
197
21
78
184
24
94
171
25
109
159
26
122
147
28
134
134
28
148
120
29
159
105
30
170
93
30
179
80
30
189
69
29
197
58
26
207
47
24
214
38
21
222
30
18
228
22
14
235
15
10
241
2
1
251
43
35
214
141
117
122
179
155
85
166
151
94
160
150
97
153
150
101
149
151
103
145
152
107
142
152
107
139
152
108
138
153
109
137
154
110
137
156
110
138
157
107
140
159
106
142
162
105
146
164
101
150
167
98
161
175
90
125
134
128
37
39
216
1
0
253
12
12
242
18
17
237
25
22
230
33
28
224
41
34
217
50
39
210
59
43
203
70
49
196
81
52
186
93
57
178
105
59
169
119
61
160
132
63
149
147
64
140
162
63
129
179
62
118
197
59
106
215
56
93
230
55
79
251
55
57
59
12
207
17
3
240
31
5
228
45
6
215
207
19
67
194
22
83
181
24
98
169
27
112
157
28
125
145
28
137
134
28
148
119
30
160
106
30
170
93
30
179
81
30
189
70
29
197
60
27
205
50
25
212
42
23
219
33
20
226
26
17
232
19
13
236
13
9
241
2
1
252
44
36
213
84
71
175
195
168
70
183
164
79
165
154
94
162
154
94
158
156
97
156
157
99
154
158
99
154
160
100
154
160
98
155
162
98
157
165
96
164
171
88
180
185
75
76
79
178
39
39
215
0
0
253
11
10
244
17
15
239
22
20
234
28
24
228
35
30
222
43
35
216
52
39
209
61
44
201
71
48
195
81
52
186
93
55
178
104
58
169
117
60
160
130
62
152
144
63
142
159
62
131
176
60
120
193
60
109
209
55
97
226
54
83
238
53
69
206
42
90
3
0
251
25
4
233
38
6
221
54
7
207
217
18
55
204
21
71
192
23
86
180
25
100
167
27
113
156
28
126
145
28
137
133
29
150
120
30
160
106
31
170
95
31
178
84
31
186
73
30
194
64
28
202
54
26
209
46
25
215
39
22
222
31
20
228
25
17
232
20
14
238
15
10
241
11
9
243
0
0
255
0
0
255
99
85
162
88
79
169
87
80
171
79
74
179
191
177
71
133
126
126
84
81
173
85
82
171
87
84
170
41
39
215
0
0
255
9
8
245
12
11
242
17
15
239
22
19
234
27
23
229
33
27
225
39
31
219
48
36
213
55
41
206
64
44
200
73
48
193
82
51
185
93
54
179
105
58
169
116
60
161
129
61
152
142
62
143
158
61
134
172
60
123
189
58
111
205
55
101
221
54
87
234
53
73
255
56
38
0
0
255
20
3
237
32
5
227
46
6
214
61
7
200
227
16
43
214
19
59
203
22
73
191
24
87
179
26
101
167
28
114
157
29
126
145
29
138
134
30
149
121
31
159
109
32
167
98
32
176
87
31
185
77
31
192
68
30
199
59
28
206
52
26
211
44
24
216
38
22
222
32
21
226
27
18
231
23
16
234
19
14
237
16
12
240
13
10
242
11
9
244
9
7
245
9
8
245
0
0
255
2
2
251
9
8
245
10
9
244
12
10
243
15
12
241
16
14
239
20
17
236
24
20
232
28
23
229
33
27
224
39
30
219
45
34
215
52
37
210
59
41
204
67
45
197
76
48
191
85
51
185
95
53
177
107
56
169
118
57
161
130
60
152
144
60
143
156
59
133
171
59
124
186
57
113
203
54
101
218
53
90
230
53
77
251
52
56
49
9
215
16
3
241
28
5
231
41
6
219
55
7
205
69
7
192
237
13
30
225
16
46
213
19
60
201
23
77
190
25
89
179
27
102
168
28
114
157
29
126
146
30
137
136
30
148
124
31
157
112
32
166
101
32
174
92
33
181
83
32
187
73
32
195
66
30
200
58
29
206
52
27
211
46
25
215
40
24
220
36
22
223
32
21
226
28
20
229
26
18
231
23
17
233
22
17
235
21
16
236
21
16
236
20
16
237
21
16
235
23
18
234
24
19
232
26
21
231
29
23
228
33
24
225
36
27
223
41
30
218
46
33
215
52
36
211
57
39
205
64
42
200
72
45
195
81
49
188
89
50
181
99
53
174
110
55
168
120
57
159
131
59
152
144
58
143
158
59
133
172
58
124
185
56
114
202
54
104
216
53
92
228
52
78
239
51
66
206
40
88
3
1
251
24
4
234
36
6
224
50
6
210
63
6
197
77
7
184
255
10
9
235
14
33
224
18
48
213
21
62
202
24
77
191
25
88
179
28
103
170
28
113
158
29
125
149
30
135
139
31
146
128
31
153
117
33
162
106
34
170
97
34
176
89
34
183
81
33
189
73
33
195
66
31
200
60
31
204
55
29
209
50
27
213
46
26
216
42
25
217
39
25
221
38
24
222
35
24
224
34
23
224
34
23
224
34
23
224
34
25
224
35
25
223
37
26
222
40
27
220
42
30
218
46
32
215
49
34
211
54
36
209
60
39
204
65
41
200
72
44
195
79
47
190
86
49
184
94
51
178
104
53
172
114
54
165
124
56
157
135
57
149
147
58
141
160
57
132
171
56
123
186
55
113
202
52
104
214
52
92
227
51
79
238
50
67
205
40
89
0
0
255
20
3
237
33
5
226
46
6
214
59
6
201
72
6
188
86
6
174
50
2
206
255
12
3
235
15
34
223
18
49
213
21
62
202
24
76
192
26
88
181
28
100
171
29
111
162
30
122
153
31
132
144
31
142
134
32
151
123
33
159
113
34
166
104
34
172
96
35
178
89
35
183
81
35
189
75
34
193
70
34
197
65
33
201
61
32
204
57
31
208
54
30
209
52
31
211
50
29
212
49
30
214
48
29
214
47
30
214
49
31
213
50
32
212
52
33
211
54
34
209
56
36
206
61
37
204
64
40
201
69
41
197
74
43
193
80
46
190
86
47
185
93
50
179
101
51
174
109
52
168
118
54
161
129
56
154
139
56
147
150
56
139
162
56
131
175
54
122
189
53
113
202
51
103
215
51
92
225
51
80
237
49
66
255
53
32
0
0
255
18
3
239
30
5
228
43
5
217
56
6
204
68
6
192
81
6
179
94
5
165
16
0
239
49
1
208
255
13
3
236
16
34
225
19
49
215
22
61
203
24
75
194
27
87
184
28
98
174
29
109
166
31
119
157
31
128
149
32
137
140
32
146
130
33
152
122
34
160
113
34
166
105
36
172
97
36
176
92
36
181
86
36
186
81
36
189
77
36
193
72
35
196
70
35
198
67
35
198
65
35
201
64
35
201
63
35
202
63
36
203
64
37
201
64
38
200
66
38
200
69
39
197
72
40
196
76
41
192
79
43
190
84
45
186
89
46
182
95
48
178
102
50
173
109
51
168
117
53
163
125
54
157
135
54
150
144
55
143
156
55
136
167
53
127
179
53
119
192
51
111
204
50
101
215
51
90
225
50
78
237
48
66
255
50
40
50
9
213
17
3
240
29
4
230
40
5
219
53
6
207
65
6
195
78
6
183
90
5
169
104
4
154
26
0
229
16
0
239
49
2
207
255
13
4
236
16
34
226
20
48
217
22
59
207
24
71
198
26
83
187
28
94
179
29
104
171
30
114
162
31
124
154
32
132
148
33
140
138
33
147
130
34
152
122
36
159
116
36
164
108
37
169
103
38
173
98
38
177
94
38
180
90
38
183
86
38
185
84
39
188
82
38
189
80
40
190
80
40
190
79
40
190
81
40
189
82
41
189
83
42
188
86
42
186
88
44
184
91
45
181
96
46
179
100
47
174
105
48
170
112
50
167
118
51
162
126
52
157
134
53
151
143
53
145
152
53
139
162
53
132
172
52
124
185
51
115
197
50
108
206
50
98
216
49
87
226
48
77
237
47
64
255
50
38
50
9
213
17
3
240
28
4
230
38
5
221
51
5
208
63
6
197
75
6
185
87
5
172
100
4
159
114
3
143
38
0
217
26
0
228
16
0
239
60
2
198
194
10
70
238
16
32
229
20
44
219
22
57
211
25
68
202
26
79
193
28
89
184
29
100
176
31
108
168
32
118
162
33
125
154
33
133
148
34
140
141
34
146
133
36
151
127
36
155
121
38
161
115
38
164
111
39
167
107
39
171
103
40
172
101
40
174
99
40
176
98
42
177
97
42
178
97
42
178
97
43
177
98
43
177
100
44
175
102
45
174
106
46
171
109
47
169
113
47
166
118
49
163
123
50
159
129
50
154
136
50
149
143
51
144
152
51
139
159
51
133
170
50
126
181
49
118
191
49
112
200
48
103
209
48
93
220
48
83
229
48
73
238
46
63
194
36
96
60
11
205
17
2
239
28
4
230
38
5
221
50
5
209
62
6
198
73
6
188
85
5
174
98
4
160
111
3
146
124
1
131
50
0
205
38
0
217
28
0
227
17
0
238
0
0
255
206
11
59
241
16
29
232
19
41
223
22
52
214
24
64
207
27
74
198
28
84
190
29
94
183
30
101
175
32
110
170
33
118
163
33
125
156
34
132
151
34
137
146
35
143
140
36
147
135
38
150
129
38
154
126
39
157
122
40
160
120
41
161
117
41
163
115
42
165
115
42
165
114
43
165
115
44
164
116
44
164
118
45
162
120
46
161
122
46
159
127
47
157
131
48
153
137
48
150
142
49
146
148
49
141
155
49
137
162
49
131
170
49
126
180
48
120
188
48
114
197
48
105
205
47
96
214
48
88
223
47
79
232
46
69
240
45
59
206
36
84
0
0
255
17
3
240
28
4
230
38
5
221
49
5
210
61
6
198
73
5
186
84
5
175
96
4
162
108
3
149
121
1
134
134
0
121
61
0
194
50
0
205
40
0
215
30
0
225
20
0
235
0
0
255
129
7
133
254
16
16
237
19
36
228
21
47
220
24
57
213
26
67
204
28
78
197
29
86
191
30
93
184
31
102
178
32
108
173
33
115
167
35
122
162
34
127
158
35
131
154
36
136
150
36
140
146
38
143
142
38
146
140
39
148
137
40
149
136
41
150
134
42
151
135
42
151
135
43
151
136
44
150
137
44
149
139
45
148
143
46
146
146
46
144
151
46
139
155
46
137
162
46
131
168
46
128
175
46
123
182
46
117
188
46
112
196
46
104
203
46
97
210
46
90
219
46
82
227
46
73
236
45
62
253
45
46
128
22
149
0
0
255
20
3
237
30
4
228
40
5
219
50
5
209
62
5
197
73
5
186
83
5
176
96
4
162
107
3
150
119
1
136
131
0
124
144
0
111
